<?xml version="1.0" encoding="utf-8" standalone="no"?>
<!DOCTYPE svg PUBLIC "-//W3C//DTD SVG 1.1//EN"
  "http://www.w3.org/Graphics/SVG/1.1/DTD/svg11.dtd">
<svg xmlns:xlink="http://www.w3.org/1999/xlink" width="460.8pt" height="345.6pt" viewBox="0 0 460.8 345.6" xmlns="http://www.w3.org/2000/svg" version="1.1">
 <metadata>
  <rdf:RDF xmlns:dc="http://purl.org/dc/elements/1.1/" xmlns:cc="http://creativecommons.org/ns#" xmlns:rdf="http://www.w3.org/1999/02/22-rdf-syntax-ns#">
   <cc:Work>
    <dc:type rdf:resource="http://purl.org/dc/dcmitype/StillImage"/>
    <dc:date>2026-05-11T23:31:47.401034</dc:date>
    <dc:format>image/svg+xml</dc:format>
    <dc:creator>
     <cc:Agent>
      <dc:title>Matplotlib v3.10.9, https://matplotlib.org/</dc:title>
     </cc:Agent>
    </dc:creator>
   </cc:Work>
  </rdf:RDF>
 </metadata>
 <defs>
  <style type="text/css">*{stroke-linejoin: round; stroke-linecap: butt}</style>
 </defs>
 <g id="figure_1">
  <g id="patch_1">
   <path d="M 0 345.6 
L 460.8 345.6 
L 460.8 0 
L 0 0 
z
" style="fill: #ffffff"/>
  </g>
  <g id="axes_1">
   <g id="patch_2">
    <path d="M 57.6 307.584 
L 414.72 307.584 
L 414.72 41.472 
L 57.6 41.472 
z
" style="fill: #ffffff"/>
   </g>
   <g id="matplotlib.axis_1">
    <g id="xtick_1">
     <g id="line2d_1">
      <defs>
       <path id="mcdbb6bd2af" d="M 0 0 
L 0 3.5 
" style="stroke: #000000; stroke-width: 0.8"/>
      </defs>
      <g>
       <use xlink:href="#mcdbb6bd2af" x="57.6" y="307.584" style="stroke: #000000; stroke-width: 0.8"/>
      </g>
     </g>
     <g id="text_1">
      <!-- 0.00 -->
      <g transform="translate(46.467188 322.182437) scale(0.1 -0.1)">
       <defs>
        <path id="DejaVuSans-30" d="M 2034 4250 
Q 1547 4250 1301 3770 
Q 1056 3291 1056 2328 
Q 1056 1369 1301 889 
Q 1547 409 2034 409 
Q 2525 409 2770 889 
Q 3016 1369 3016 2328 
Q 3016 3291 2770 3770 
Q 2525 4250 2034 4250 
z
M 2034 4750 
Q 2819 4750 3233 4129 
Q 3647 3509 3647 2328 
Q 3647 1150 3233 529 
Q 2819 -91 2034 -91 
Q 1250 -91 836 529 
Q 422 1150 422 2328 
Q 422 3509 836 4129 
Q 1250 4750 2034 4750 
z
" transform="scale(0.015625)"/>
        <path id="DejaVuSans-2e" d="M 684 794 
L 1344 794 
L 1344 0 
L 684 0 
L 684 794 
z
" transform="scale(0.015625)"/>
       </defs>
       <use xlink:href="#DejaVuSans-30"/>
       <use xlink:href="#DejaVuSans-2e" transform="translate(63.623047 0)"/>
       <use xlink:href="#DejaVuSans-30" transform="translate(95.410156 0)"/>
       <use xlink:href="#DejaVuSans-30" transform="translate(159.033203 0)"/>
      </g>
     </g>
    </g>
    <g id="xtick_2">
     <g id="line2d_2">
      <g>
       <use xlink:href="#mcdbb6bd2af" x="129.024" y="307.584" style="stroke: #000000; stroke-width: 0.8"/>
      </g>
     </g>
     <g id="text_2">
      <!-- 0.01 -->
      <g transform="translate(117.891188 322.182437) scale(0.1 -0.1)">
       <defs>
        <path id="DejaVuSans-31" d="M 794 531 
L 1825 531 
L 1825 4091 
L 703 3866 
L 703 4441 
L 1819 4666 
L 2450 4666 
L 2450 531 
L 3481 531 
L 3481 0 
L 794 0 
L 794 531 
z
" transform="scale(0.015625)"/>
       </defs>
       <use xlink:href="#DejaVuSans-30"/>
       <use xlink:href="#DejaVuSans-2e" transform="translate(63.623047 0)"/>
       <use xlink:href="#DejaVuSans-30" transform="translate(95.410156 0)"/>
       <use xlink:href="#DejaVuSans-31" transform="translate(159.033203 0)"/>
      </g>
     </g>
    </g>
    <g id="xtick_3">
     <g id="line2d_3">
      <g>
       <use xlink:href="#mcdbb6bd2af" x="200.448" y="307.584" style="stroke: #000000; stroke-width: 0.8"/>
      </g>
     </g>
     <g id="text_3">
      <!-- 0.02 -->
      <g transform="translate(189.315187 322.182437) scale(0.1 -0.1)">
       <defs>
        <path id="DejaVuSans-32" d="M 1228 531 
L 3431 531 
L 3431 0 
L 469 0 
L 469 531 
Q 828 903 1448 1529 
Q 2069 2156 2228 2338 
Q 2531 2678 2651 2914 
Q 2772 3150 2772 3378 
Q 2772 3750 2511 3984 
Q 2250 4219 1831 4219 
Q 1534 4219 1204 4116 
Q 875 4013 500 3803 
L 500 4441 
Q 881 4594 1212 4672 
Q 1544 4750 1819 4750 
Q 2544 4750 2975 4387 
Q 3406 4025 3406 3419 
Q 3406 3131 3298 2873 
Q 3191 2616 2906 2266 
Q 2828 2175 2409 1742 
Q 1991 1309 1228 531 
z
" transform="scale(0.015625)"/>
       </defs>
       <use xlink:href="#DejaVuSans-30"/>
       <use xlink:href="#DejaVuSans-2e" transform="translate(63.623047 0)"/>
       <use xlink:href="#DejaVuSans-30" transform="translate(95.410156 0)"/>
       <use xlink:href="#DejaVuSans-32" transform="translate(159.033203 0)"/>
      </g>
     </g>
    </g>
    <g id="xtick_4">
     <g id="line2d_4">
      <g>
       <use xlink:href="#mcdbb6bd2af" x="271.872" y="307.584" style="stroke: #000000; stroke-width: 0.8"/>
      </g>
     </g>
     <g id="text_4">
      <!-- 0.03 -->
      <g transform="translate(260.739188 322.182437) scale(0.1 -0.1)">
       <defs>
        <path id="DejaVuSans-33" d="M 2597 2516 
Q 3050 2419 3304 2112 
Q 3559 1806 3559 1356 
Q 3559 666 3084 287 
Q 2609 -91 1734 -91 
Q 1441 -91 1130 -33 
Q 819 25 488 141 
L 488 750 
Q 750 597 1062 519 
Q 1375 441 1716 441 
Q 2309 441 2620 675 
Q 2931 909 2931 1356 
Q 2931 1769 2642 2001 
Q 2353 2234 1838 2234 
L 1294 2234 
L 1294 2753 
L 1863 2753 
Q 2328 2753 2575 2939 
Q 2822 3125 2822 3475 
Q 2822 3834 2567 4026 
Q 2313 4219 1838 4219 
Q 1578 4219 1281 4162 
Q 984 4106 628 3988 
L 628 4550 
Q 988 4650 1302 4700 
Q 1616 4750 1894 4750 
Q 2613 4750 3031 4423 
Q 3450 4097 3450 3541 
Q 3450 3153 3228 2886 
Q 3006 2619 2597 2516 
z
" transform="scale(0.015625)"/>
       </defs>
       <use xlink:href="#DejaVuSans-30"/>
       <use xlink:href="#DejaVuSans-2e" transform="translate(63.623047 0)"/>
       <use xlink:href="#DejaVuSans-30" transform="translate(95.410156 0)"/>
       <use xlink:href="#DejaVuSans-33" transform="translate(159.033203 0)"/>
      </g>
     </g>
    </g>
    <g id="xtick_5">
     <g id="line2d_5">
      <g>
       <use xlink:href="#mcdbb6bd2af" x="343.296" y="307.584" style="stroke: #000000; stroke-width: 0.8"/>
      </g>
     </g>
     <g id="text_5">
      <!-- 0.04 -->
      <g transform="translate(332.163187 322.182437) scale(0.1 -0.1)">
       <defs>
        <path id="DejaVuSans-34" d="M 2419 4116 
L 825 1625 
L 2419 1625 
L 2419 4116 
z
M 2253 4666 
L 3047 4666 
L 3047 1625 
L 3713 1625 
L 3713 1100 
L 3047 1100 
L 3047 0 
L 2419 0 
L 2419 1100 
L 313 1100 
L 313 1709 
L 2253 4666 
z
" transform="scale(0.015625)"/>
       </defs>
       <use xlink:href="#DejaVuSans-30"/>
       <use xlink:href="#DejaVuSans-2e" transform="translate(63.623047 0)"/>
       <use xlink:href="#DejaVuSans-30" transform="translate(95.410156 0)"/>
       <use xlink:href="#DejaVuSans-34" transform="translate(159.033203 0)"/>
      </g>
     </g>
    </g>
    <g id="xtick_6">
     <g id="line2d_6">
      <g>
       <use xlink:href="#mcdbb6bd2af" x="414.72" y="307.584" style="stroke: #000000; stroke-width: 0.8"/>
      </g>
     </g>
     <g id="text_6">
      <!-- 0.05 -->
      <g transform="translate(403.587188 322.182437) scale(0.1 -0.1)">
       <defs>
        <path id="DejaVuSans-35" d="M 691 4666 
L 3169 4666 
L 3169 4134 
L 1269 4134 
L 1269 2991 
Q 1406 3038 1543 3061 
Q 1681 3084 1819 3084 
Q 2600 3084 3056 2656 
Q 3513 2228 3513 1497 
Q 3513 744 3044 326 
Q 2575 -91 1722 -91 
Q 1428 -91 1123 -41 
Q 819 9 494 109 
L 494 744 
Q 775 591 1075 516 
Q 1375 441 1709 441 
Q 2250 441 2565 725 
Q 2881 1009 2881 1497 
Q 2881 1984 2565 2268 
Q 2250 2553 1709 2553 
Q 1456 2553 1204 2497 
Q 953 2441 691 2322 
L 691 4666 
z
" transform="scale(0.015625)"/>
       </defs>
       <use xlink:href="#DejaVuSans-30"/>
       <use xlink:href="#DejaVuSans-2e" transform="translate(63.623047 0)"/>
       <use xlink:href="#DejaVuSans-30" transform="translate(95.410156 0)"/>
       <use xlink:href="#DejaVuSans-35" transform="translate(159.033203 0)"/>
      </g>
     </g>
    </g>
   </g>
   <g id="matplotlib.axis_2">
    <g id="ytick_1">
     <g id="line2d_7">
      <defs>
       <path id="md661cc1748" d="M 0 0 
L -3.5 0 
" style="stroke: #000000; stroke-width: 0.8"/>
      </defs>
      <g>
       <use xlink:href="#md661cc1748" x="57.6" y="306.572044" style="stroke: #000000; stroke-width: 0.8"/>
      </g>
     </g>
     <g id="text_7">
      <!-- −400 -->
      <g transform="translate(23.132812 310.371263) scale(0.1 -0.1)">
       <defs>
        <path id="DejaVuSans-2212" d="M 678 2272 
L 4684 2272 
L 4684 1741 
L 678 1741 
L 678 2272 
z
" transform="scale(0.015625)"/>
       </defs>
       <use xlink:href="#DejaVuSans-2212"/>
       <use xlink:href="#DejaVuSans-34" transform="translate(83.789062 0)"/>
       <use xlink:href="#DejaVuSans-30" transform="translate(147.412109 0)"/>
       <use xlink:href="#DejaVuSans-30" transform="translate(211.035156 0)"/>
      </g>
     </g>
    </g>
    <g id="ytick_2">
     <g id="line2d_8">
      <g>
       <use xlink:href="#md661cc1748" x="57.6" y="271.791106" style="stroke: #000000; stroke-width: 0.8"/>
      </g>
     </g>
     <g id="text_8">
      <!-- −300 -->
      <g transform="translate(23.132812 275.590325) scale(0.1 -0.1)">
       <use xlink:href="#DejaVuSans-2212"/>
       <use xlink:href="#DejaVuSans-33" transform="translate(83.789062 0)"/>
       <use xlink:href="#DejaVuSans-30" transform="translate(147.412109 0)"/>
       <use xlink:href="#DejaVuSans-30" transform="translate(211.035156 0)"/>
      </g>
     </g>
    </g>
    <g id="ytick_3">
     <g id="line2d_9">
      <g>
       <use xlink:href="#md661cc1748" x="57.6" y="237.010168" style="stroke: #000000; stroke-width: 0.8"/>
      </g>
     </g>
     <g id="text_9">
      <!-- −200 -->
      <g transform="translate(23.132812 240.809387) scale(0.1 -0.1)">
       <use xlink:href="#DejaVuSans-2212"/>
       <use xlink:href="#DejaVuSans-32" transform="translate(83.789062 0)"/>
       <use xlink:href="#DejaVuSans-30" transform="translate(147.412109 0)"/>
       <use xlink:href="#DejaVuSans-30" transform="translate(211.035156 0)"/>
      </g>
     </g>
    </g>
    <g id="ytick_4">
     <g id="line2d_10">
      <g>
       <use xlink:href="#md661cc1748" x="57.6" y="202.22923" style="stroke: #000000; stroke-width: 0.8"/>
      </g>
     </g>
     <g id="text_10">
      <!-- −100 -->
      <g transform="translate(23.132812 206.028449) scale(0.1 -0.1)">
       <use xlink:href="#DejaVuSans-2212"/>
       <use xlink:href="#DejaVuSans-31" transform="translate(83.789062 0)"/>
       <use xlink:href="#DejaVuSans-30" transform="translate(147.412109 0)"/>
       <use xlink:href="#DejaVuSans-30" transform="translate(211.035156 0)"/>
      </g>
     </g>
    </g>
    <g id="ytick_5">
     <g id="line2d_11">
      <g>
       <use xlink:href="#md661cc1748" x="57.6" y="167.448292" style="stroke: #000000; stroke-width: 0.8"/>
      </g>
     </g>
     <g id="text_11">
      <!-- 0 -->
      <g transform="translate(44.2375 171.247511) scale(0.1 -0.1)">
       <use xlink:href="#DejaVuSans-30"/>
      </g>
     </g>
    </g>
    <g id="ytick_6">
     <g id="line2d_12">
      <g>
       <use xlink:href="#md661cc1748" x="57.6" y="132.667354" style="stroke: #000000; stroke-width: 0.8"/>
      </g>
     </g>
     <g id="text_12">
      <!-- 100 -->
      <g transform="translate(31.5125 136.466573) scale(0.1 -0.1)">
       <use xlink:href="#DejaVuSans-31"/>
       <use xlink:href="#DejaVuSans-30" transform="translate(63.623047 0)"/>
       <use xlink:href="#DejaVuSans-30" transform="translate(127.246094 0)"/>
      </g>
     </g>
    </g>
    <g id="ytick_7">
     <g id="line2d_13">
      <g>
       <use xlink:href="#md661cc1748" x="57.6" y="97.886416" style="stroke: #000000; stroke-width: 0.8"/>
      </g>
     </g>
     <g id="text_13">
      <!-- 200 -->
      <g transform="translate(31.5125 101.685635) scale(0.1 -0.1)">
       <use xlink:href="#DejaVuSans-32"/>
       <use xlink:href="#DejaVuSans-30" transform="translate(63.623047 0)"/>
       <use xlink:href="#DejaVuSans-30" transform="translate(127.246094 0)"/>
      </g>
     </g>
    </g>
    <g id="ytick_8">
     <g id="line2d_14">
      <g>
       <use xlink:href="#md661cc1748" x="57.6" y="63.105478" style="stroke: #000000; stroke-width: 0.8"/>
      </g>
     </g>
     <g id="text_14">
      <!-- 300 -->
      <g transform="translate(31.5125 66.904697) scale(0.1 -0.1)">
       <use xlink:href="#DejaVuSans-33"/>
       <use xlink:href="#DejaVuSans-30" transform="translate(63.623047 0)"/>
       <use xlink:href="#DejaVuSans-30" transform="translate(127.246094 0)"/>
      </g>
     </g>
    </g>
   </g>
   <g id="line2d_15">
    <path d="M 57.95712 167.383032 
L 58.31424 166.530202 
L 58.67136 163.713664 
L 59.74272 148.818618 
L 60.81408 140.855945 
L 62.24256 119.084158 
L 62.59968 118.248057 
L 62.9568 117.812919 
L 63.31392 116.146465 
L 64.38528 107.684235 
L 65.45664 104.190345 
L 66.528 96.997827 
L 67.24224 93.274686 
L 68.67072 83.132445 
L 69.38496 81.937873 
L 69.74208 80.778116 
L 70.45632 77.60432 
L 70.81344 77.012785 
L 71.17056 77.305356 
L 71.52768 77.806656 
L 71.8848 77.802778 
L 72.95616 75.970287 
L 73.31328 76.16153 
L 73.6704 76.559643 
L 74.02752 76.719144 
L 74.74176 76.36012 
L 75.09888 76.585359 
L 77.2416 81.093222 
L 78.67008 86.636731 
L 79.38432 88.974973 
L 83.31264 107.85725 
L 84.384 113.970412 
L 89.7408 145.185067 
L 96.52608 183.132706 
L 99.74016 199.217387 
L 102.59712 212.2631 
L 106.16832 227.15536 
L 108.66816 236.678988 
L 111.52512 246.682187 
L 114.02496 254.60665 
L 116.16768 260.721718 
L 118.3104 266.141778 
L 120.096 270.04471 
L 121.8816 273.370833 
L 123.31008 275.576706 
L 124.73856 277.355818 
L 126.16704 278.697574 
L 127.2384 279.39774 
L 128.30976 279.842616 
L 129.38112 280.023109 
L 130.45248 279.93631 
L 131.52384 279.586322 
L 132.5952 278.972911 
L 133.66656 278.091821 
L 134.73792 276.955806 
L 136.1664 275.038047 
L 137.59488 272.679798 
L 139.02336 269.888145 
L 140.80896 265.82035 
L 142.59456 261.140696 
L 144.38016 255.887172 
L 146.52288 248.887977 
L 149.02272 239.799709 
L 151.52256 229.872313 
L 154.37952 217.667467 
L 157.5936 203.047379 
L 161.87904 182.509244 
L 172.59264 130.612787 
L 176.16384 114.580877 
L 179.0208 102.667649 
L 181.52064 93.087526 
L 184.02048 84.399545 
L 186.52032 76.720537 
L 188.66304 70.998922 
L 190.44864 66.928014 
L 191.87712 64.095936 
L 193.3056 61.669306 
L 194.73408 59.661318 
L 196.16256 58.081256 
L 197.23392 57.175441 
L 198.30528 56.510783 
L 199.37664 56.099963 
L 200.448 55.925853 
L 201.51936 56.00402 
L 202.59072 56.327631 
L 203.66208 56.89577 
L 204.73344 57.710876 
L 205.8048 58.769195 
L 207.23328 60.561111 
L 208.66176 62.756961 
L 210.09024 65.381576 
L 211.51872 68.41769 
L 213.30432 72.744305 
L 215.08992 77.654718 
L 216.87552 83.103378 
L 219.37536 91.609745 
L 221.8752 101.049057 
L 224.37504 111.28558 
L 227.232 123.798551 
L 230.8032 140.423705 
L 235.80288 164.723213 
L 242.94528 199.332388 
L 246.8736 217.262892 
L 249.73056 229.439066 
L 252.2304 239.298899 
L 254.73024 248.335139 
L 256.87296 255.250686 
L 259.01568 261.45601 
L 260.80128 265.958746 
L 262.58688 269.863301 
L 264.37248 273.122312 
L 265.80096 275.303219 
L 267.22944 277.023643 
L 268.65792 278.34006 
L 269.72928 279.020061 
L 270.80064 279.46708 
L 271.872 279.672319 
L 272.94336 279.617326 
L 274.01472 279.325275 
L 275.08608 278.780348 
L 276.15744 277.986475 
L 277.2288 276.952516 
L 278.65728 275.189131 
L 280.08576 273.020001 
L 281.51424 270.418457 
L 282.94272 267.397745 
L 284.72832 263.088261 
L 286.51392 258.193307 
L 288.29952 252.765812 
L 290.79936 244.239279 
L 292.94208 236.170914 
L 295.44192 226.055114 
L 298.656 211.984185 
L 302.2272 195.293187 
L 306.86976 172.636113 
L 314.36928 136.014288 
L 318.65472 116.317499 
L 321.51168 104.140318 
L 324.01152 94.297723 
L 326.15424 86.521484 
L 328.29696 79.505341 
L 330.43968 73.202402 
L 332.22528 68.625374 
L 334.01088 64.644425 
L 335.79648 61.315049 
L 337.22496 59.080297 
L 338.65344 57.305309 
L 339.7248 56.231728 
L 340.79616 55.431115 
L 341.86752 54.869523 
L 342.93888 54.539409 
L 344.01024 54.481941 
L 345.0816 54.657007 
L 346.15296 55.086468 
L 347.22432 55.769123 
L 348.29568 56.689638 
L 349.36704 57.866408 
L 350.79552 59.805804 
L 352.224 62.154245 
L 353.65248 64.935898 
L 355.43808 68.988323 
L 357.22368 73.623843 
L 359.3664 79.927834 
L 361.50912 87.032158 
L 363.65184 94.860315 
L 366.15168 104.774286 
L 369.00864 117.020978 
L 372.22272 131.75891 
L 377.2224 155.968821 
L 386.86464 203.205019 
L 390.43584 219.530498 
L 393.64992 233.13916 
L 396.50688 244.190987 
L 399.00672 252.845529 
L 401.14944 259.454741 
L 402.93504 264.365677 
L 404.72064 268.642318 
L 406.50624 272.313631 
L 408.29184 275.357598 
L 409.72032 277.293564 
L 411.1488 278.821652 
L 412.22016 279.665336 
L 413.29152 280.275061 
L 414.36288 280.636059 
L 414.72 280.697538 
L 414.72 280.697538 
" clip-path="url(#p041b88c919)" style="fill: none; stroke: #1f77b4; stroke-width: 1.5; stroke-linecap: square"/>
   </g>
   <g id="line2d_16">
    <path d="M 57.95712 167.480034 
L 58.31424 167.893619 
L 58.67136 169.246164 
L 59.74272 175.946409 
L 60.09984 176.746801 
L 60.45696 177.207041 
L 60.81408 178.322775 
L 61.88544 184.851398 
L 62.24256 185.251449 
L 63.31392 183.273337 
L 64.02816 183.889759 
L 64.38528 183.640923 
L 65.45664 181.209482 
L 66.17088 180.706138 
L 66.528 180.13101 
L 67.24224 178.608822 
L 67.59936 178.306884 
L 67.95648 178.208949 
L 68.3136 177.826199 
L 68.67072 176.808077 
L 70.0992 171.030669 
L 70.45632 169.79609 
L 71.17056 166.131306 
L 71.8848 162.18581 
L 72.95616 157.433698 
L 77.2416 133.496843 
L 78.67008 124.627856 
L 80.09856 116.33901 
L 81.88416 106.566041 
L 83.31264 98.999627 
L 85.81248 87.097326 
L 87.24096 81.037322 
L 89.7408 72.22479 
L 91.5264 67.002202 
L 93.312 62.777286 
L 94.38336 60.754773 
L 95.81184 58.380962 
L 97.24032 56.574565 
L 98.31168 55.500828 
L 99.74016 54.452471 
L 100.81152 53.967206 
L 102.24 53.591342 
L 103.31136 53.585 
L 104.38272 53.725739 
L 105.45408 54.092414 
L 106.52544 54.609794 
L 107.95392 55.610944 
L 109.02528 56.552428 
L 110.45376 58.105406 
L 111.88224 59.988523 
L 113.31072 62.194877 
L 115.09632 65.447022 
L 116.88192 69.246592 
L 118.66752 73.621643 
L 120.45312 78.551533 
L 122.59584 85.21267 
L 124.73856 92.66263 
L 127.2384 102.268228 
L 129.73824 112.746133 
L 132.5952 125.582305 
L 136.1664 142.610236 
L 150.4512 211.975804 
L 153.30816 224.454526 
L 155.808 234.637646 
L 158.30784 244.009182 
L 160.45056 251.318232 
L 162.59328 257.873351 
L 164.736 263.63263 
L 166.5216 267.753327 
L 168.3072 271.280935 
L 169.73568 273.641143 
L 171.16416 275.571671 
L 172.59264 277.087185 
L 173.664 277.943491 
L 174.73536 278.550722 
L 175.80672 278.903074 
L 176.87808 279.019124 
L 177.94944 278.880634 
L 179.0208 278.496632 
L 180.09216 277.867413 
L 181.16352 276.989065 
L 182.23488 275.868689 
L 183.66336 273.995699 
L 185.09184 271.709701 
L 186.52032 269.004096 
L 187.9488 265.891804 
L 189.7344 261.47122 
L 191.52 256.474627 
L 193.3056 250.922036 
L 195.44832 243.588576 
L 197.94816 234.190637 
L 200.80512 222.479254 
L 204.0192 208.279289 
L 207.94752 189.831891 
L 212.23296 168.899474 
L 220.0896 131.054664 
L 222.94656 118.131935 
L 225.4464 107.443843 
L 227.94624 97.461641 
L 230.44608 88.28483 
L 232.5888 81.238615 
L 234.73152 74.890434 
L 236.51712 70.229401 
L 238.30272 66.192987 
L 239.7312 63.423188 
L 241.5168 60.487512 
L 242.94528 58.636602 
L 244.37376 57.197606 
L 245.44512 56.409483 
L 246.51648 55.874381 
L 247.58784 55.566063 
L 248.6592 55.519057 
L 249.73056 55.716502 
L 250.80192 56.155741 
L 251.87328 56.850164 
L 252.94464 57.782518 
L 254.016 58.963675 
L 255.44448 60.910314 
L 256.87296 63.262167 
L 258.30144 66.046701 
L 260.08704 70.091994 
L 261.87264 74.722942 
L 264.01536 80.993845 
L 266.15808 88.096069 
L 268.3008 95.883226 
L 271.15776 107.201712 
L 274.37184 121.109241 
L 277.94304 137.657607 
L 282.94272 161.954146 
L 290.44224 198.523939 
L 294.72768 218.181441 
L 297.58464 230.355714 
L 300.08448 240.210905 
L 302.58432 249.225749 
L 304.72704 256.129508 
L 306.86976 262.307906 
L 308.65536 266.778226 
L 310.44096 270.647702 
L 312.22656 273.876131 
L 313.65504 276.014729 
L 315.08352 277.701855 
L 316.15488 278.706014 
L 317.22624 279.436987 
L 318.2976 279.934625 
L 319.36896 280.192933 
L 320.44032 280.18562 
L 321.51168 279.943489 
L 322.58304 279.446473 
L 323.6544 278.6991 
L 324.72576 277.711119 
L 326.15424 276.005162 
L 327.58272 273.884727 
L 329.0112 271.343353 
L 330.43968 268.374405 
L 332.22528 264.116685 
L 334.01088 259.271925 
L 336.1536 252.736308 
L 338.65344 244.136174 
L 341.15328 234.613508 
L 343.65312 224.278877 
L 346.51008 211.640594 
L 350.08128 194.849956 
L 355.08096 170.310576 
L 362.9376 131.95492 
L 366.5088 115.645717 
L 369.72288 102.027877 
L 372.57984 90.966436 
L 374.72256 83.473035 
L 376.86528 76.721625 
L 379.008 70.736361 
L 380.7936 66.44159 
L 382.5792 62.753281 
L 384.00768 60.256294 
L 385.43616 58.175181 
L 386.86464 56.537755 
L 387.936 55.582971 
L 389.00736 54.887388 
L 390.07872 54.429076 
L 391.15008 54.222953 
L 392.22144 54.268095 
L 393.2928 54.560315 
L 394.36416 55.104541 
L 395.43552 55.896288 
L 396.50688 56.938311 
L 397.93536 58.70541 
L 399.36384 60.891925 
L 400.79232 63.505243 
L 402.2208 66.531207 
L 404.0064 70.871576 
L 405.792 75.794113 
L 407.93472 82.438911 
L 410.43456 91.13668 
L 412.9344 100.741452 
L 414.72 108.101087 
L 414.72 108.101087 
" clip-path="url(#p041b88c919)" style="fill: none; stroke: #ff7f0e; stroke-width: 1.5; stroke-linecap: square"/>
   </g>
   <g id="line2d_17">
    <path d="M 57.95712 167.48181 
L 58.31424 167.921055 
L 58.67136 169.385048 
L 60.09984 179.269698 
L 60.45696 180.784047 
L 60.81408 183.166156 
L 62.24256 198.00927 
L 63.31392 202.925075 
L 64.38528 211.019718 
L 65.45664 216.945049 
L 67.59936 233.503989 
L 68.67072 242.404354 
L 69.74208 249.385785 
L 70.81344 257.172817 
L 72.24192 264.554224 
L 72.95616 268.940892 
L 75.456 281.082948 
L 77.2416 287.754812 
L 79.38432 292.69456 
L 80.09856 293.505353 
L 80.8128 294.353396 
L 81.52704 295.225341 
L 81.88416 295.400682 
L 83.31264 295.488 
L 83.66976 295.408183 
L 84.384 294.822213 
L 85.81248 293.277694 
L 86.88384 291.345263 
L 87.9552 289.368844 
L 89.38368 285.823694 
L 90.45504 282.971346 
L 92.95488 274.932449 
L 96.52608 261.767574 
L 99.38304 250.182256 
L 104.73984 227.132425 
L 109.3824 206.164066 
L 115.09632 179.132025 
L 128.30976 115.843691 
L 131.16672 103.554328 
L 133.66656 93.657229 
L 135.80928 85.913588 
L 137.952 78.931828 
L 140.09472 72.79873 
L 141.88032 68.358211 
L 143.66592 64.556905 
L 145.0944 61.983563 
L 146.52288 59.832117 
L 147.95136 58.102847 
L 149.02272 57.093044 
L 150.09408 56.332675 
L 151.16544 55.811818 
L 152.2368 55.543892 
L 153.30816 55.518769 
L 154.37952 55.737346 
L 155.45088 56.206646 
L 156.52224 56.916579 
L 157.5936 57.869005 
L 159.02208 59.515881 
L 160.45056 61.580941 
L 161.87904 64.064438 
L 163.30752 66.946602 
L 165.09312 71.120258 
L 166.87872 75.855933 
L 169.02144 82.293519 
L 171.52128 90.728473 
L 174.02112 100.127039 
L 176.87808 111.830648 
L 180.09216 126.029968 
L 183.66336 142.779311 
L 188.30592 165.402721 
L 195.0912 198.256375 
L 198.6624 214.641949 
L 202.2336 229.850852 
L 204.73344 239.629517 
L 207.23328 248.565643 
L 209.73312 256.481472 
L 211.87584 262.445402 
L 213.66144 266.733663 
L 215.44704 270.432934 
L 217.23264 273.504363 
L 218.66112 275.486756 
L 220.0896 277.051998 
L 221.16096 277.944529 
L 222.23232 278.571468 
L 223.30368 278.983649 
L 224.37504 279.129577 
L 225.4464 279.030404 
L 226.51776 278.695286 
L 227.58912 278.101215 
L 228.66048 277.268147 
L 229.73184 276.191972 
L 231.16032 274.371292 
L 232.5888 272.154057 
L 234.01728 269.499204 
L 235.44576 266.438889 
L 237.23136 262.079657 
L 239.01696 257.14121 
L 240.80256 251.664917 
L 243.3024 243.099966 
L 245.80224 233.615387 
L 248.30208 223.347876 
L 251.15904 210.796995 
L 254.73024 194.122251 
L 259.72992 169.767626 
L 267.58656 131.754192 
L 270.80064 117.149988 
L 273.6576 104.979956 
L 276.15744 95.121789 
L 278.65728 86.100765 
L 280.8 79.186092 
L 282.94272 72.992985 
L 284.72832 68.508644 
L 286.51392 64.621012 
L 288.29952 61.379344 
L 289.728 59.216423 
L 291.15648 57.516402 
L 292.22784 56.497213 
L 293.2992 55.748018 
L 294.37056 55.240284 
L 295.44192 54.965525 
L 296.51328 54.954864 
L 297.58464 55.183309 
L 298.656 55.660553 
L 299.72736 56.392489 
L 300.79872 57.361998 
L 301.87008 58.583887 
L 303.29856 60.579717 
L 304.72704 62.985559 
L 306.15552 65.827225 
L 307.94112 69.937379 
L 309.72672 74.635923 
L 311.86944 80.992316 
L 314.01216 88.169951 
L 316.15488 96.045288 
L 319.01184 107.473016 
L 322.22592 121.467838 
L 325.79712 138.115451 
L 330.43968 160.768069 
L 337.9392 197.523931 
L 342.58176 218.945915 
L 345.43872 231.113625 
L 348.29568 242.293623 
L 350.4384 249.929508 
L 352.58112 256.811176 
L 354.72384 262.965094 
L 356.50944 267.403631 
L 358.29504 271.238517 
L 360.08064 274.441534 
L 361.50912 276.529291 
L 362.9376 278.203783 
L 364.00896 279.158554 
L 365.08032 279.871407 
L 366.15168 280.34826 
L 367.22304 280.562786 
L 368.2944 280.53537 
L 369.36576 280.259145 
L 370.43712 279.725885 
L 371.50848 278.953613 
L 372.57984 277.925237 
L 374.00832 276.178742 
L 375.4368 274.012867 
L 376.86528 271.420244 
L 378.29376 268.412629 
L 380.07936 264.097508 
L 381.86496 259.197836 
L 384.00768 252.591542 
L 386.1504 245.211996 
L 388.65024 235.762515 
L 391.5072 223.949575 
L 394.72128 209.59706 
L 398.6496 190.92143 
L 404.36352 162.704684 
L 410.79168 131.401273 
L 414.36288 115.106082 
L 414.72 113.546251 
L 414.72 113.546251 
" clip-path="url(#p041b88c919)" style="fill: none; stroke: #2ca02c; stroke-width: 1.5; stroke-linecap: square"/>
   </g>
   <g id="patch_3">
    <path d="M 57.6 307.584 
L 57.6 41.472 
" style="fill: none; stroke: #000000; stroke-width: 0.8; stroke-linejoin: miter; stroke-linecap: square"/>
   </g>
   <g id="patch_4">
    <path d="M 414.72 307.584 
L 414.72 41.472 
" style="fill: none; stroke: #000000; stroke-width: 0.8; stroke-linejoin: miter; stroke-linecap: square"/>
   </g>
   <g id="patch_5">
    <path d="M 57.6 307.584 
L 414.72 307.584 
" style="fill: none; stroke: #000000; stroke-width: 0.8; stroke-linejoin: miter; stroke-linecap: square"/>
   </g>
   <g id="patch_6">
    <path d="M 57.6 41.472 
L 414.72 41.472 
" style="fill: none; stroke: #000000; stroke-width: 0.8; stroke-linejoin: miter; stroke-linecap: square"/>
   </g>
   <g id="legend_1">
    <g id="patch_7">
     <path d="M 293.135625 198.045187 
L 407.72 198.045187 
Q 409.72 198.045187 409.72 196.045187 
L 409.72 153.010812 
Q 409.72 151.010812 407.72 151.010812 
L 293.135625 151.010812 
Q 291.135625 151.010812 291.135625 153.010812 
L 291.135625 196.045187 
Q 291.135625 198.045187 293.135625 198.045187 
z
" style="fill: #ffffff; opacity: 0.8; stroke: #cccccc; stroke-linejoin: miter"/>
    </g>
    <g id="line2d_18">
     <path d="M 295.135625 159.10925 
L 305.135625 159.10925 
L 315.135625 159.10925 
" style="fill: none; stroke: #1f77b4; stroke-width: 1.5; stroke-linecap: square"/>
    </g>
    <g id="text_15">
     <!-- lcl1.capacitor1.v -->
     <g transform="translate(323.135625 162.60925) scale(0.1 -0.1)">
      <defs>
       <path id="DejaVuSans-6c" d="M 603 4863 
L 1178 4863 
L 1178 0 
L 603 0 
L 603 4863 
z
" transform="scale(0.015625)"/>
       <path id="DejaVuSans-63" d="M 3122 3366 
L 3122 2828 
Q 2878 2963 2633 3030 
Q 2388 3097 2138 3097 
Q 1578 3097 1268 2742 
Q 959 2388 959 1747 
Q 959 1106 1268 751 
Q 1578 397 2138 397 
Q 2388 397 2633 464 
Q 2878 531 3122 666 
L 3122 134 
Q 2881 22 2623 -34 
Q 2366 -91 2075 -91 
Q 1284 -91 818 406 
Q 353 903 353 1747 
Q 353 2603 823 3093 
Q 1294 3584 2113 3584 
Q 2378 3584 2631 3529 
Q 2884 3475 3122 3366 
z
" transform="scale(0.015625)"/>
       <path id="DejaVuSans-61" d="M 2194 1759 
Q 1497 1759 1228 1600 
Q 959 1441 959 1056 
Q 959 750 1161 570 
Q 1363 391 1709 391 
Q 2188 391 2477 730 
Q 2766 1069 2766 1631 
L 2766 1759 
L 2194 1759 
z
M 3341 1997 
L 3341 0 
L 2766 0 
L 2766 531 
Q 2569 213 2275 61 
Q 1981 -91 1556 -91 
Q 1019 -91 701 211 
Q 384 513 384 1019 
Q 384 1609 779 1909 
Q 1175 2209 1959 2209 
L 2766 2209 
L 2766 2266 
Q 2766 2663 2505 2880 
Q 2244 3097 1772 3097 
Q 1472 3097 1187 3025 
Q 903 2953 641 2809 
L 641 3341 
Q 956 3463 1253 3523 
Q 1550 3584 1831 3584 
Q 2591 3584 2966 3190 
Q 3341 2797 3341 1997 
z
" transform="scale(0.015625)"/>
       <path id="DejaVuSans-70" d="M 1159 525 
L 1159 -1331 
L 581 -1331 
L 581 3500 
L 1159 3500 
L 1159 2969 
Q 1341 3281 1617 3432 
Q 1894 3584 2278 3584 
Q 2916 3584 3314 3078 
Q 3713 2572 3713 1747 
Q 3713 922 3314 415 
Q 2916 -91 2278 -91 
Q 1894 -91 1617 61 
Q 1341 213 1159 525 
z
M 3116 1747 
Q 3116 2381 2855 2742 
Q 2594 3103 2138 3103 
Q 1681 3103 1420 2742 
Q 1159 2381 1159 1747 
Q 1159 1113 1420 752 
Q 1681 391 2138 391 
Q 2594 391 2855 752 
Q 3116 1113 3116 1747 
z
" transform="scale(0.015625)"/>
       <path id="DejaVuSans-69" d="M 603 3500 
L 1178 3500 
L 1178 0 
L 603 0 
L 603 3500 
z
M 603 4863 
L 1178 4863 
L 1178 4134 
L 603 4134 
L 603 4863 
z
" transform="scale(0.015625)"/>
       <path id="DejaVuSans-74" d="M 1172 4494 
L 1172 3500 
L 2356 3500 
L 2356 3053 
L 1172 3053 
L 1172 1153 
Q 1172 725 1289 603 
Q 1406 481 1766 481 
L 2356 481 
L 2356 0 
L 1766 0 
Q 1100 0 847 248 
Q 594 497 594 1153 
L 594 3053 
L 172 3053 
L 172 3500 
L 594 3500 
L 594 4494 
L 1172 4494 
z
" transform="scale(0.015625)"/>
       <path id="DejaVuSans-6f" d="M 1959 3097 
Q 1497 3097 1228 2736 
Q 959 2375 959 1747 
Q 959 1119 1226 758 
Q 1494 397 1959 397 
Q 2419 397 2687 759 
Q 2956 1122 2956 1747 
Q 2956 2369 2687 2733 
Q 2419 3097 1959 3097 
z
M 1959 3584 
Q 2709 3584 3137 3096 
Q 3566 2609 3566 1747 
Q 3566 888 3137 398 
Q 2709 -91 1959 -91 
Q 1206 -91 779 398 
Q 353 888 353 1747 
Q 353 2609 779 3096 
Q 1206 3584 1959 3584 
z
" transform="scale(0.015625)"/>
       <path id="DejaVuSans-72" d="M 2631 2963 
Q 2534 3019 2420 3045 
Q 2306 3072 2169 3072 
Q 1681 3072 1420 2755 
Q 1159 2438 1159 1844 
L 1159 0 
L 581 0 
L 581 3500 
L 1159 3500 
L 1159 2956 
Q 1341 3275 1631 3429 
Q 1922 3584 2338 3584 
Q 2397 3584 2469 3576 
Q 2541 3569 2628 3553 
L 2631 2963 
z
" transform="scale(0.015625)"/>
       <path id="DejaVuSans-76" d="M 191 3500 
L 800 3500 
L 1894 563 
L 2988 3500 
L 3597 3500 
L 2284 0 
L 1503 0 
L 191 3500 
z
" transform="scale(0.015625)"/>
      </defs>
      <use xlink:href="#DejaVuSans-6c"/>
      <use xlink:href="#DejaVuSans-63" transform="translate(27.783203 0)"/>
      <use xlink:href="#DejaVuSans-6c" transform="translate(82.763672 0)"/>
      <use xlink:href="#DejaVuSans-31" transform="translate(110.546875 0)"/>
      <use xlink:href="#DejaVuSans-2e" transform="translate(174.169922 0)"/>
      <use xlink:href="#DejaVuSans-63" transform="translate(205.957031 0)"/>
      <use xlink:href="#DejaVuSans-61" transform="translate(260.9375 0)"/>
      <use xlink:href="#DejaVuSans-70" transform="translate(322.216797 0)"/>
      <use xlink:href="#DejaVuSans-61" transform="translate(385.693359 0)"/>
      <use xlink:href="#DejaVuSans-63" transform="translate(446.972656 0)"/>
      <use xlink:href="#DejaVuSans-69" transform="translate(501.953125 0)"/>
      <use xlink:href="#DejaVuSans-74" transform="translate(529.736328 0)"/>
      <use xlink:href="#DejaVuSans-6f" transform="translate(568.945312 0)"/>
      <use xlink:href="#DejaVuSans-72" transform="translate(630.126953 0)"/>
      <use xlink:href="#DejaVuSans-31" transform="translate(671.240234 0)"/>
      <use xlink:href="#DejaVuSans-2e" transform="translate(734.863281 0)"/>
      <use xlink:href="#DejaVuSans-76" transform="translate(766.650391 0)"/>
     </g>
    </g>
    <g id="line2d_19">
     <path d="M 295.135625 173.787375 
L 305.135625 173.787375 
L 315.135625 173.787375 
" style="fill: none; stroke: #ff7f0e; stroke-width: 1.5; stroke-linecap: square"/>
    </g>
    <g id="text_16">
     <!-- lcl1.capacitor2.v -->
     <g transform="translate(323.135625 177.287375) scale(0.1 -0.1)">
      <use xlink:href="#DejaVuSans-6c"/>
      <use xlink:href="#DejaVuSans-63" transform="translate(27.783203 0)"/>
      <use xlink:href="#DejaVuSans-6c" transform="translate(82.763672 0)"/>
      <use xlink:href="#DejaVuSans-31" transform="translate(110.546875 0)"/>
      <use xlink:href="#DejaVuSans-2e" transform="translate(174.169922 0)"/>
      <use xlink:href="#DejaVuSans-63" transform="translate(205.957031 0)"/>
      <use xlink:href="#DejaVuSans-61" transform="translate(260.9375 0)"/>
      <use xlink:href="#DejaVuSans-70" transform="translate(322.216797 0)"/>
      <use xlink:href="#DejaVuSans-61" transform="translate(385.693359 0)"/>
      <use xlink:href="#DejaVuSans-63" transform="translate(446.972656 0)"/>
      <use xlink:href="#DejaVuSans-69" transform="translate(501.953125 0)"/>
      <use xlink:href="#DejaVuSans-74" transform="translate(529.736328 0)"/>
      <use xlink:href="#DejaVuSans-6f" transform="translate(568.945312 0)"/>
      <use xlink:href="#DejaVuSans-72" transform="translate(630.126953 0)"/>
      <use xlink:href="#DejaVuSans-32" transform="translate(671.240234 0)"/>
      <use xlink:href="#DejaVuSans-2e" transform="translate(734.863281 0)"/>
      <use xlink:href="#DejaVuSans-76" transform="translate(766.650391 0)"/>
     </g>
    </g>
    <g id="line2d_20">
     <path d="M 295.135625 188.4655 
L 305.135625 188.4655 
L 315.135625 188.4655 
" style="fill: none; stroke: #2ca02c; stroke-width: 1.5; stroke-linecap: square"/>
    </g>
    <g id="text_17">
     <!-- lcl1.capacitor3.v -->
     <g transform="translate(323.135625 191.9655) scale(0.1 -0.1)">
      <use xlink:href="#DejaVuSans-6c"/>
      <use xlink:href="#DejaVuSans-63" transform="translate(27.783203 0)"/>
      <use xlink:href="#DejaVuSans-6c" transform="translate(82.763672 0)"/>
      <use xlink:href="#DejaVuSans-31" transform="translate(110.546875 0)"/>
      <use xlink:href="#DejaVuSans-2e" transform="translate(174.169922 0)"/>
      <use xlink:href="#DejaVuSans-63" transform="translate(205.957031 0)"/>
      <use xlink:href="#DejaVuSans-61" transform="translate(260.9375 0)"/>
      <use xlink:href="#DejaVuSans-70" transform="translate(322.216797 0)"/>
      <use xlink:href="#DejaVuSans-61" transform="translate(385.693359 0)"/>
      <use xlink:href="#DejaVuSans-63" transform="translate(446.972656 0)"/>
      <use xlink:href="#DejaVuSans-69" transform="translate(501.953125 0)"/>
      <use xlink:href="#DejaVuSans-74" transform="translate(529.736328 0)"/>
      <use xlink:href="#DejaVuSans-6f" transform="translate(568.945312 0)"/>
      <use xlink:href="#DejaVuSans-72" transform="translate(630.126953 0)"/>
      <use xlink:href="#DejaVuSans-33" transform="translate(671.240234 0)"/>
      <use xlink:href="#DejaVuSans-2e" transform="translate(734.863281 0)"/>
      <use xlink:href="#DejaVuSans-76" transform="translate(766.650391 0)"/>
     </g>
    </g>
   </g>
  </g>
 </g>
 <defs>
  <clipPath id="p041b88c919">
   <rect x="57.6" y="41.472" width="357.12" height="266.112"/>
  </clipPath>
 </defs>
</svg>
