<?xml version="1.0" encoding="utf-8" standalone="no"?>
<!DOCTYPE svg PUBLIC "-//W3C//DTD SVG 1.1//EN"
  "http://www.w3.org/Graphics/SVG/1.1/DTD/svg11.dtd">
<svg xmlns:xlink="http://www.w3.org/1999/xlink" width="646.923437pt" height="395.19625pt" viewBox="0 0 646.923437 395.19625" xmlns="http://www.w3.org/2000/svg" version="1.1">
 <metadata>
  <rdf:RDF xmlns:dc="http://purl.org/dc/elements/1.1/" xmlns:cc="http://creativecommons.org/ns#" xmlns:rdf="http://www.w3.org/1999/02/22-rdf-syntax-ns#">
   <cc:Work>
    <dc:type rdf:resource="http://purl.org/dc/dcmitype/StillImage"/>
    <dc:date>2026-05-11T20:32:22.505155</dc:date>
    <dc:format>image/svg+xml</dc:format>
    <dc:creator>
     <cc:Agent>
      <dc:title>Matplotlib v3.10.9, https://matplotlib.org/</dc:title>
     </cc:Agent>
    </dc:creator>
   </cc:Work>
  </rdf:RDF>
 </metadata>
 <defs>
  <style type="text/css">*{stroke-linejoin: round; stroke-linecap: butt}</style>
 </defs>
 <g id="figure_1">
  <g id="patch_1">
   <path d="M 0 395.19625 
L 646.923437 395.19625 
L 646.923437 0 
L 0 0 
z
" style="fill: #ffffff"/>
  </g>
  <g id="axes_1">
   <g id="patch_2">
    <path d="M 58.523438 175.27 
L 639.723437 175.27 
L 639.723437 7.2 
L 58.523438 7.2 
z
" style="fill: #ffffff"/>
   </g>
   <g id="matplotlib.axis_1">
    <g id="xtick_1">
     <g id="line2d_1">
      <path d="M 84.185734 175.27 
L 84.185734 7.2 
" clip-path="url(#pd8aade6968)" style="fill: none; stroke: #b0b0b0; stroke-opacity: 0.25; stroke-width: 0.8; stroke-linecap: square"/>
     </g>
     <g id="line2d_2">
      <defs>
       <path id="me2a6fe44c7" d="M 0 0 
L 0 3.5 
" style="stroke: #000000; stroke-width: 0.8"/>
      </defs>
      <g>
       <use xlink:href="#me2a6fe44c7" x="84.185734" y="175.27" style="stroke: #000000; stroke-width: 0.8"/>
      </g>
     </g>
    </g>
    <g id="xtick_2">
     <g id="line2d_3">
      <path d="M 159.774237 175.27 
L 159.774237 7.2 
" clip-path="url(#pd8aade6968)" style="fill: none; stroke: #b0b0b0; stroke-opacity: 0.25; stroke-width: 0.8; stroke-linecap: square"/>
     </g>
     <g id="line2d_4">
      <g>
       <use xlink:href="#me2a6fe44c7" x="159.774237" y="175.27" style="stroke: #000000; stroke-width: 0.8"/>
      </g>
     </g>
    </g>
    <g id="xtick_3">
     <g id="line2d_5">
      <path d="M 235.36274 175.27 
L 235.36274 7.2 
" clip-path="url(#pd8aade6968)" style="fill: none; stroke: #b0b0b0; stroke-opacity: 0.25; stroke-width: 0.8; stroke-linecap: square"/>
     </g>
     <g id="line2d_6">
      <g>
       <use xlink:href="#me2a6fe44c7" x="235.36274" y="175.27" style="stroke: #000000; stroke-width: 0.8"/>
      </g>
     </g>
    </g>
    <g id="xtick_4">
     <g id="line2d_7">
      <path d="M 310.951243 175.27 
L 310.951243 7.2 
" clip-path="url(#pd8aade6968)" style="fill: none; stroke: #b0b0b0; stroke-opacity: 0.25; stroke-width: 0.8; stroke-linecap: square"/>
     </g>
     <g id="line2d_8">
      <g>
       <use xlink:href="#me2a6fe44c7" x="310.951243" y="175.27" style="stroke: #000000; stroke-width: 0.8"/>
      </g>
     </g>
    </g>
    <g id="xtick_5">
     <g id="line2d_9">
      <path d="M 386.539747 175.27 
L 386.539747 7.2 
" clip-path="url(#pd8aade6968)" style="fill: none; stroke: #b0b0b0; stroke-opacity: 0.25; stroke-width: 0.8; stroke-linecap: square"/>
     </g>
     <g id="line2d_10">
      <g>
       <use xlink:href="#me2a6fe44c7" x="386.539747" y="175.27" style="stroke: #000000; stroke-width: 0.8"/>
      </g>
     </g>
    </g>
    <g id="xtick_6">
     <g id="line2d_11">
      <path d="M 462.12825 175.27 
L 462.12825 7.2 
" clip-path="url(#pd8aade6968)" style="fill: none; stroke: #b0b0b0; stroke-opacity: 0.25; stroke-width: 0.8; stroke-linecap: square"/>
     </g>
     <g id="line2d_12">
      <g>
       <use xlink:href="#me2a6fe44c7" x="462.12825" y="175.27" style="stroke: #000000; stroke-width: 0.8"/>
      </g>
     </g>
    </g>
    <g id="xtick_7">
     <g id="line2d_13">
      <path d="M 537.716753 175.27 
L 537.716753 7.2 
" clip-path="url(#pd8aade6968)" style="fill: none; stroke: #b0b0b0; stroke-opacity: 0.25; stroke-width: 0.8; stroke-linecap: square"/>
     </g>
     <g id="line2d_14">
      <g>
       <use xlink:href="#me2a6fe44c7" x="537.716753" y="175.27" style="stroke: #000000; stroke-width: 0.8"/>
      </g>
     </g>
    </g>
    <g id="xtick_8">
     <g id="line2d_15">
      <path d="M 613.305256 175.27 
L 613.305256 7.2 
" clip-path="url(#pd8aade6968)" style="fill: none; stroke: #b0b0b0; stroke-opacity: 0.25; stroke-width: 0.8; stroke-linecap: square"/>
     </g>
     <g id="line2d_16">
      <g>
       <use xlink:href="#me2a6fe44c7" x="613.305256" y="175.27" style="stroke: #000000; stroke-width: 0.8"/>
      </g>
     </g>
    </g>
   </g>
   <g id="matplotlib.axis_2">
    <g id="ytick_1">
     <g id="line2d_17">
      <path d="M 58.523438 170.014869 
L 639.723437 170.014869 
" clip-path="url(#pd8aade6968)" style="fill: none; stroke: #b0b0b0; stroke-opacity: 0.25; stroke-width: 0.8; stroke-linecap: square"/>
     </g>
     <g id="line2d_18">
      <defs>
       <path id="mbcb8e1018d" d="M 0 0 
L -3.5 0 
" style="stroke: #000000; stroke-width: 0.8"/>
      </defs>
      <g>
       <use xlink:href="#mbcb8e1018d" x="58.523438" y="170.014869" style="stroke: #000000; stroke-width: 0.8"/>
      </g>
     </g>
     <g id="text_1">
      <!-- −0.75 -->
      <g transform="translate(20.878125 173.814088) scale(0.1 -0.1)">
       <defs>
        <path id="DejaVuSans-2212" d="M 678 2272 
L 4684 2272 
L 4684 1741 
L 678 1741 
L 678 2272 
z
" transform="scale(0.015625)"/>
        <path id="DejaVuSans-30" d="M 2034 4250 
Q 1547 4250 1301 3770 
Q 1056 3291 1056 2328 
Q 1056 1369 1301 889 
Q 1547 409 2034 409 
Q 2525 409 2770 889 
Q 3016 1369 3016 2328 
Q 3016 3291 2770 3770 
Q 2525 4250 2034 4250 
z
M 2034 4750 
Q 2819 4750 3233 4129 
Q 3647 3509 3647 2328 
Q 3647 1150 3233 529 
Q 2819 -91 2034 -91 
Q 1250 -91 836 529 
Q 422 1150 422 2328 
Q 422 3509 836 4129 
Q 1250 4750 2034 4750 
z
" transform="scale(0.015625)"/>
        <path id="DejaVuSans-2e" d="M 684 794 
L 1344 794 
L 1344 0 
L 684 0 
L 684 794 
z
" transform="scale(0.015625)"/>
        <path id="DejaVuSans-37" d="M 525 4666 
L 3525 4666 
L 3525 4397 
L 1831 0 
L 1172 0 
L 2766 4134 
L 525 4134 
L 525 4666 
z
" transform="scale(0.015625)"/>
        <path id="DejaVuSans-35" d="M 691 4666 
L 3169 4666 
L 3169 4134 
L 1269 4134 
L 1269 2991 
Q 1406 3038 1543 3061 
Q 1681 3084 1819 3084 
Q 2600 3084 3056 2656 
Q 3513 2228 3513 1497 
Q 3513 744 3044 326 
Q 2575 -91 1722 -91 
Q 1428 -91 1123 -41 
Q 819 9 494 109 
L 494 744 
Q 775 591 1075 516 
Q 1375 441 1709 441 
Q 2250 441 2565 725 
Q 2881 1009 2881 1497 
Q 2881 1984 2565 2268 
Q 2250 2553 1709 2553 
Q 1456 2553 1204 2497 
Q 953 2441 691 2322 
L 691 4666 
z
" transform="scale(0.015625)"/>
       </defs>
       <use xlink:href="#DejaVuSans-2212"/>
       <use xlink:href="#DejaVuSans-30" transform="translate(83.789062 0)"/>
       <use xlink:href="#DejaVuSans-2e" transform="translate(147.412109 0)"/>
       <use xlink:href="#DejaVuSans-37" transform="translate(179.199219 0)"/>
       <use xlink:href="#DejaVuSans-35" transform="translate(242.822266 0)"/>
      </g>
     </g>
    </g>
    <g id="ytick_2">
     <g id="line2d_19">
      <path d="M 58.523438 147.846951 
L 639.723437 147.846951 
" clip-path="url(#pd8aade6968)" style="fill: none; stroke: #b0b0b0; stroke-opacity: 0.25; stroke-width: 0.8; stroke-linecap: square"/>
     </g>
     <g id="line2d_20">
      <g>
       <use xlink:href="#mbcb8e1018d" x="58.523438" y="147.846951" style="stroke: #000000; stroke-width: 0.8"/>
      </g>
     </g>
     <g id="text_2">
      <!-- −0.50 -->
      <g transform="translate(20.878125 151.64617) scale(0.1 -0.1)">
       <use xlink:href="#DejaVuSans-2212"/>
       <use xlink:href="#DejaVuSans-30" transform="translate(83.789062 0)"/>
       <use xlink:href="#DejaVuSans-2e" transform="translate(147.412109 0)"/>
       <use xlink:href="#DejaVuSans-35" transform="translate(179.199219 0)"/>
       <use xlink:href="#DejaVuSans-30" transform="translate(242.822266 0)"/>
      </g>
     </g>
    </g>
    <g id="ytick_3">
     <g id="line2d_21">
      <path d="M 58.523438 125.679033 
L 639.723437 125.679033 
" clip-path="url(#pd8aade6968)" style="fill: none; stroke: #b0b0b0; stroke-opacity: 0.25; stroke-width: 0.8; stroke-linecap: square"/>
     </g>
     <g id="line2d_22">
      <g>
       <use xlink:href="#mbcb8e1018d" x="58.523438" y="125.679033" style="stroke: #000000; stroke-width: 0.8"/>
      </g>
     </g>
     <g id="text_3">
      <!-- −0.25 -->
      <g transform="translate(20.878125 129.478251) scale(0.1 -0.1)">
       <defs>
        <path id="DejaVuSans-32" d="M 1228 531 
L 3431 531 
L 3431 0 
L 469 0 
L 469 531 
Q 828 903 1448 1529 
Q 2069 2156 2228 2338 
Q 2531 2678 2651 2914 
Q 2772 3150 2772 3378 
Q 2772 3750 2511 3984 
Q 2250 4219 1831 4219 
Q 1534 4219 1204 4116 
Q 875 4013 500 3803 
L 500 4441 
Q 881 4594 1212 4672 
Q 1544 4750 1819 4750 
Q 2544 4750 2975 4387 
Q 3406 4025 3406 3419 
Q 3406 3131 3298 2873 
Q 3191 2616 2906 2266 
Q 2828 2175 2409 1742 
Q 1991 1309 1228 531 
z
" transform="scale(0.015625)"/>
       </defs>
       <use xlink:href="#DejaVuSans-2212"/>
       <use xlink:href="#DejaVuSans-30" transform="translate(83.789062 0)"/>
       <use xlink:href="#DejaVuSans-2e" transform="translate(147.412109 0)"/>
       <use xlink:href="#DejaVuSans-32" transform="translate(179.199219 0)"/>
       <use xlink:href="#DejaVuSans-35" transform="translate(242.822266 0)"/>
      </g>
     </g>
    </g>
    <g id="ytick_4">
     <g id="line2d_23">
      <path d="M 58.523438 103.511115 
L 639.723437 103.511115 
" clip-path="url(#pd8aade6968)" style="fill: none; stroke: #b0b0b0; stroke-opacity: 0.25; stroke-width: 0.8; stroke-linecap: square"/>
     </g>
     <g id="line2d_24">
      <g>
       <use xlink:href="#mbcb8e1018d" x="58.523438" y="103.511115" style="stroke: #000000; stroke-width: 0.8"/>
      </g>
     </g>
     <g id="text_4">
      <!-- 0.00 -->
      <g transform="translate(29.257813 107.310333) scale(0.1 -0.1)">
       <use xlink:href="#DejaVuSans-30"/>
       <use xlink:href="#DejaVuSans-2e" transform="translate(63.623047 0)"/>
       <use xlink:href="#DejaVuSans-30" transform="translate(95.410156 0)"/>
       <use xlink:href="#DejaVuSans-30" transform="translate(159.033203 0)"/>
      </g>
     </g>
    </g>
    <g id="ytick_5">
     <g id="line2d_25">
      <path d="M 58.523438 81.343197 
L 639.723437 81.343197 
" clip-path="url(#pd8aade6968)" style="fill: none; stroke: #b0b0b0; stroke-opacity: 0.25; stroke-width: 0.8; stroke-linecap: square"/>
     </g>
     <g id="line2d_26">
      <g>
       <use xlink:href="#mbcb8e1018d" x="58.523438" y="81.343197" style="stroke: #000000; stroke-width: 0.8"/>
      </g>
     </g>
     <g id="text_5">
      <!-- 0.25 -->
      <g transform="translate(29.257813 85.142415) scale(0.1 -0.1)">
       <use xlink:href="#DejaVuSans-30"/>
       <use xlink:href="#DejaVuSans-2e" transform="translate(63.623047 0)"/>
       <use xlink:href="#DejaVuSans-32" transform="translate(95.410156 0)"/>
       <use xlink:href="#DejaVuSans-35" transform="translate(159.033203 0)"/>
      </g>
     </g>
    </g>
    <g id="ytick_6">
     <g id="line2d_27">
      <path d="M 58.523438 59.175278 
L 639.723437 59.175278 
" clip-path="url(#pd8aade6968)" style="fill: none; stroke: #b0b0b0; stroke-opacity: 0.25; stroke-width: 0.8; stroke-linecap: square"/>
     </g>
     <g id="line2d_28">
      <g>
       <use xlink:href="#mbcb8e1018d" x="58.523438" y="59.175278" style="stroke: #000000; stroke-width: 0.8"/>
      </g>
     </g>
     <g id="text_6">
      <!-- 0.50 -->
      <g transform="translate(29.257813 62.974497) scale(0.1 -0.1)">
       <use xlink:href="#DejaVuSans-30"/>
       <use xlink:href="#DejaVuSans-2e" transform="translate(63.623047 0)"/>
       <use xlink:href="#DejaVuSans-35" transform="translate(95.410156 0)"/>
       <use xlink:href="#DejaVuSans-30" transform="translate(159.033203 0)"/>
      </g>
     </g>
    </g>
    <g id="ytick_7">
     <g id="line2d_29">
      <path d="M 58.523438 37.00736 
L 639.723437 37.00736 
" clip-path="url(#pd8aade6968)" style="fill: none; stroke: #b0b0b0; stroke-opacity: 0.25; stroke-width: 0.8; stroke-linecap: square"/>
     </g>
     <g id="line2d_30">
      <g>
       <use xlink:href="#mbcb8e1018d" x="58.523438" y="37.00736" style="stroke: #000000; stroke-width: 0.8"/>
      </g>
     </g>
     <g id="text_7">
      <!-- 0.75 -->
      <g transform="translate(29.257813 40.806579) scale(0.1 -0.1)">
       <use xlink:href="#DejaVuSans-30"/>
       <use xlink:href="#DejaVuSans-2e" transform="translate(63.623047 0)"/>
       <use xlink:href="#DejaVuSans-37" transform="translate(95.410156 0)"/>
       <use xlink:href="#DejaVuSans-35" transform="translate(159.033203 0)"/>
      </g>
     </g>
    </g>
    <g id="ytick_8">
     <g id="line2d_31">
      <path d="M 58.523438 14.839442 
L 639.723437 14.839442 
" clip-path="url(#pd8aade6968)" style="fill: none; stroke: #b0b0b0; stroke-opacity: 0.25; stroke-width: 0.8; stroke-linecap: square"/>
     </g>
     <g id="line2d_32">
      <g>
       <use xlink:href="#mbcb8e1018d" x="58.523438" y="14.839442" style="stroke: #000000; stroke-width: 0.8"/>
      </g>
     </g>
     <g id="text_8">
      <!-- 1.00 -->
      <g transform="translate(29.257813 18.638661) scale(0.1 -0.1)">
       <defs>
        <path id="DejaVuSans-31" d="M 794 531 
L 1825 531 
L 1825 4091 
L 703 3866 
L 703 4441 
L 1819 4666 
L 2450 4666 
L 2450 531 
L 3481 531 
L 3481 0 
L 794 0 
L 794 531 
z
" transform="scale(0.015625)"/>
       </defs>
       <use xlink:href="#DejaVuSans-31"/>
       <use xlink:href="#DejaVuSans-2e" transform="translate(63.623047 0)"/>
       <use xlink:href="#DejaVuSans-30" transform="translate(95.410156 0)"/>
       <use xlink:href="#DejaVuSans-30" transform="translate(159.033203 0)"/>
      </g>
     </g>
    </g>
    <g id="text_9">
     <!-- observer output -->
     <g transform="translate(14.798438 131.377188) rotate(-90) scale(0.1 -0.1)">
      <defs>
       <path id="DejaVuSans-6f" d="M 1959 3097 
Q 1497 3097 1228 2736 
Q 959 2375 959 1747 
Q 959 1119 1226 758 
Q 1494 397 1959 397 
Q 2419 397 2687 759 
Q 2956 1122 2956 1747 
Q 2956 2369 2687 2733 
Q 2419 3097 1959 3097 
z
M 1959 3584 
Q 2709 3584 3137 3096 
Q 3566 2609 3566 1747 
Q 3566 888 3137 398 
Q 2709 -91 1959 -91 
Q 1206 -91 779 398 
Q 353 888 353 1747 
Q 353 2609 779 3096 
Q 1206 3584 1959 3584 
z
" transform="scale(0.015625)"/>
       <path id="DejaVuSans-62" d="M 3116 1747 
Q 3116 2381 2855 2742 
Q 2594 3103 2138 3103 
Q 1681 3103 1420 2742 
Q 1159 2381 1159 1747 
Q 1159 1113 1420 752 
Q 1681 391 2138 391 
Q 2594 391 2855 752 
Q 3116 1113 3116 1747 
z
M 1159 2969 
Q 1341 3281 1617 3432 
Q 1894 3584 2278 3584 
Q 2916 3584 3314 3078 
Q 3713 2572 3713 1747 
Q 3713 922 3314 415 
Q 2916 -91 2278 -91 
Q 1894 -91 1617 61 
Q 1341 213 1159 525 
L 1159 0 
L 581 0 
L 581 4863 
L 1159 4863 
L 1159 2969 
z
" transform="scale(0.015625)"/>
       <path id="DejaVuSans-73" d="M 2834 3397 
L 2834 2853 
Q 2591 2978 2328 3040 
Q 2066 3103 1784 3103 
Q 1356 3103 1142 2972 
Q 928 2841 928 2578 
Q 928 2378 1081 2264 
Q 1234 2150 1697 2047 
L 1894 2003 
Q 2506 1872 2764 1633 
Q 3022 1394 3022 966 
Q 3022 478 2636 193 
Q 2250 -91 1575 -91 
Q 1294 -91 989 -36 
Q 684 19 347 128 
L 347 722 
Q 666 556 975 473 
Q 1284 391 1588 391 
Q 1994 391 2212 530 
Q 2431 669 2431 922 
Q 2431 1156 2273 1281 
Q 2116 1406 1581 1522 
L 1381 1569 
Q 847 1681 609 1914 
Q 372 2147 372 2553 
Q 372 3047 722 3315 
Q 1072 3584 1716 3584 
Q 2034 3584 2315 3537 
Q 2597 3491 2834 3397 
z
" transform="scale(0.015625)"/>
       <path id="DejaVuSans-65" d="M 3597 1894 
L 3597 1613 
L 953 1613 
Q 991 1019 1311 708 
Q 1631 397 2203 397 
Q 2534 397 2845 478 
Q 3156 559 3463 722 
L 3463 178 
Q 3153 47 2828 -22 
Q 2503 -91 2169 -91 
Q 1331 -91 842 396 
Q 353 884 353 1716 
Q 353 2575 817 3079 
Q 1281 3584 2069 3584 
Q 2775 3584 3186 3129 
Q 3597 2675 3597 1894 
z
M 3022 2063 
Q 3016 2534 2758 2815 
Q 2500 3097 2075 3097 
Q 1594 3097 1305 2825 
Q 1016 2553 972 2059 
L 3022 2063 
z
" transform="scale(0.015625)"/>
       <path id="DejaVuSans-72" d="M 2631 2963 
Q 2534 3019 2420 3045 
Q 2306 3072 2169 3072 
Q 1681 3072 1420 2755 
Q 1159 2438 1159 1844 
L 1159 0 
L 581 0 
L 581 3500 
L 1159 3500 
L 1159 2956 
Q 1341 3275 1631 3429 
Q 1922 3584 2338 3584 
Q 2397 3584 2469 3576 
Q 2541 3569 2628 3553 
L 2631 2963 
z
" transform="scale(0.015625)"/>
       <path id="DejaVuSans-76" d="M 191 3500 
L 800 3500 
L 1894 563 
L 2988 3500 
L 3597 3500 
L 2284 0 
L 1503 0 
L 191 3500 
z
" transform="scale(0.015625)"/>
       <path id="DejaVuSans-20" transform="scale(0.015625)"/>
       <path id="DejaVuSans-75" d="M 544 1381 
L 544 3500 
L 1119 3500 
L 1119 1403 
Q 1119 906 1312 657 
Q 1506 409 1894 409 
Q 2359 409 2629 706 
Q 2900 1003 2900 1516 
L 2900 3500 
L 3475 3500 
L 3475 0 
L 2900 0 
L 2900 538 
Q 2691 219 2414 64 
Q 2138 -91 1772 -91 
Q 1169 -91 856 284 
Q 544 659 544 1381 
z
M 1991 3584 
L 1991 3584 
z
" transform="scale(0.015625)"/>
       <path id="DejaVuSans-74" d="M 1172 4494 
L 1172 3500 
L 2356 3500 
L 2356 3053 
L 1172 3053 
L 1172 1153 
Q 1172 725 1289 603 
Q 1406 481 1766 481 
L 2356 481 
L 2356 0 
L 1766 0 
Q 1100 0 847 248 
Q 594 497 594 1153 
L 594 3053 
L 172 3053 
L 172 3500 
L 594 3500 
L 594 4494 
L 1172 4494 
z
" transform="scale(0.015625)"/>
       <path id="DejaVuSans-70" d="M 1159 525 
L 1159 -1331 
L 581 -1331 
L 581 3500 
L 1159 3500 
L 1159 2969 
Q 1341 3281 1617 3432 
Q 1894 3584 2278 3584 
Q 2916 3584 3314 3078 
Q 3713 2572 3713 1747 
Q 3713 922 3314 415 
Q 2916 -91 2278 -91 
Q 1894 -91 1617 61 
Q 1341 213 1159 525 
z
M 3116 1747 
Q 3116 2381 2855 2742 
Q 2594 3103 2138 3103 
Q 1681 3103 1420 2742 
Q 1159 2381 1159 1747 
Q 1159 1113 1420 752 
Q 1681 391 2138 391 
Q 2594 391 2855 752 
Q 3116 1113 3116 1747 
z
" transform="scale(0.015625)"/>
      </defs>
      <use xlink:href="#DejaVuSans-6f"/>
      <use xlink:href="#DejaVuSans-62" transform="translate(61.181641 0)"/>
      <use xlink:href="#DejaVuSans-73" transform="translate(124.658203 0)"/>
      <use xlink:href="#DejaVuSans-65" transform="translate(176.757812 0)"/>
      <use xlink:href="#DejaVuSans-72" transform="translate(238.28125 0)"/>
      <use xlink:href="#DejaVuSans-76" transform="translate(279.394531 0)"/>
      <use xlink:href="#DejaVuSans-65" transform="translate(338.574219 0)"/>
      <use xlink:href="#DejaVuSans-72" transform="translate(400.097656 0)"/>
      <use xlink:href="#DejaVuSans-20" transform="translate(441.210938 0)"/>
      <use xlink:href="#DejaVuSans-6f" transform="translate(472.998047 0)"/>
      <use xlink:href="#DejaVuSans-75" transform="translate(534.179688 0)"/>
      <use xlink:href="#DejaVuSans-74" transform="translate(597.558594 0)"/>
      <use xlink:href="#DejaVuSans-70" transform="translate(636.767578 0)"/>
      <use xlink:href="#DejaVuSans-75" transform="translate(700.244141 0)"/>
      <use xlink:href="#DejaVuSans-74" transform="translate(763.623047 0)"/>
     </g>
    </g>
   </g>
   <g id="line2d_33">
    <path d="M 84.941619 36.926171 
L 86.453389 37.185534 
L 87.965159 37.707267 
L 89.47693 38.49702 
L 90.9887 39.562787 
L 92.50047 40.914416 
L 94.01224 42.562959 
L 95.52401 44.519864 
L 97.03578 46.796044 
L 98.54755 49.400828 
L 100.05932 52.340835 
L 102.326975 57.374173 
L 104.59463 63.138127 
L 106.862285 69.586305 
L 109.12994 76.643206 
L 112.15348 86.820183 
L 116.688791 103.052606 
L 121.979986 121.840239 
L 125.003526 131.720707 
L 127.271181 138.466712 
L 129.538836 144.534961 
L 131.806491 149.877583 
L 134.074146 154.46891 
L 135.585916 157.120755 
L 137.097686 159.45044 
L 138.609456 161.465026 
L 140.121227 163.179615 
L 141.632997 164.604116 
L 143.144767 165.746861 
L 144.656537 166.615471 
L 146.168307 167.216266 
L 147.680077 167.553788 
L 149.191847 167.630455 
L 150.703617 167.44634 
L 152.215387 166.999126 
L 153.727157 166.284179 
L 155.238927 165.294824 
L 156.750697 164.02273 
L 158.262467 162.458461 
L 159.774237 160.592159 
L 161.286007 158.41628 
L 162.797777 155.930222 
L 164.309548 153.128667 
L 166.577203 148.332143 
L 168.844858 142.855393 
L 171.112513 136.73539 
L 173.380168 130.043174 
L 176.403708 120.395162 
L 180.939018 104.97628 
L 186.230213 87.022656 
L 189.253754 77.50566 
L 191.521409 70.966702 
L 193.789064 65.049838 
L 196.056719 59.807759 
L 198.324374 55.275665 
L 199.836144 52.642351 
L 201.347914 50.316747 
L 202.859684 48.295877 
L 204.371454 46.567731 
L 205.883224 45.123246 
L 207.394994 43.956267 
L 208.906764 43.060922 
L 210.418534 42.432199 
L 211.930304 42.0664 
L 213.442075 41.961489 
L 214.953845 42.117315 
L 216.465615 42.535671 
L 217.977385 43.220248 
L 219.489155 44.176397 
L 221.000925 45.410791 
L 222.512695 46.93095 
L 224.024465 48.744632 
L 225.536235 50.857377 
L 227.048005 53.267602 
L 228.559775 55.978501 
L 230.82743 60.607975 
L 233.095085 65.875876 
L 235.36274 71.743505 
L 238.386281 80.378723 
L 241.409821 89.738531 
L 247.456901 109.453433 
L 251.236326 121.459894 
L 254.259866 130.357396 
L 256.527521 136.436081 
L 258.795176 141.915096 
L 261.062831 146.747645 
L 263.330487 150.908515 
L 264.842257 153.316016 
L 266.354027 155.429985 
L 267.865797 157.25488 
L 269.377567 158.801895 
L 270.889337 160.075439 
L 272.401107 161.079921 
L 273.912877 161.819406 
L 275.424647 162.29715 
L 276.936417 162.515244 
L 278.448187 162.474355 
L 279.959957 162.173616 
L 281.471727 161.610607 
L 282.983497 160.781517 
L 284.495267 159.681403 
L 286.007037 158.304564 
L 287.518808 156.645039 
L 289.030578 154.697204 
L 290.542348 152.463277 
L 292.054118 149.943465 
L 294.321773 145.626922 
L 296.589428 140.69915 
L 298.857083 135.201476 
L 301.124738 129.191051 
L 304.148278 120.524839 
L 308.683588 106.62662 
L 314.730669 88.021179 
L 317.754209 79.39853 
L 320.021864 73.456668 
L 322.289519 68.060891 
L 324.557174 63.261685 
L 326.824829 59.095994 
L 329.092484 55.55834 
L 330.604254 53.550952 
L 332.116024 51.819818 
L 333.627794 50.356881 
L 335.139564 49.159403 
L 336.651334 48.224388 
L 338.163105 47.549053 
L 339.674875 47.13123 
L 341.186645 46.969658 
L 342.698415 47.064206 
L 344.210185 47.415933 
L 345.721955 48.027088 
L 347.233725 48.900934 
L 348.745495 50.041493 
L 350.257265 51.453187 
L 351.769035 53.140373 
L 353.280805 55.105992 
L 354.792575 57.345253 
L 357.06023 61.21542 
L 359.327885 65.684939 
L 361.595541 70.706405 
L 363.863196 76.236531 
L 366.886736 84.275337 
L 370.666161 95.099452 
L 379.736781 121.550448 
L 382.760321 129.504085 
L 385.027976 134.925458 
L 387.295632 139.808956 
L 389.563287 144.107961 
L 391.830942 147.808212 
L 393.342712 149.941705 
L 394.854482 151.805733 
L 396.366252 153.407331 
L 397.878022 154.750087 
L 399.389792 155.8356 
L 400.901562 156.665721 
L 402.413332 157.242148 
L 403.925102 157.566108 
L 405.436872 157.638116 
L 406.948642 157.457814 
L 408.460412 157.023952 
L 409.972182 156.334433 
L 411.483953 155.386503 
L 412.995723 154.177009 
L 414.507493 152.702759 
L 416.019263 150.960949 
L 417.531033 148.952314 
L 419.798688 145.451299 
L 422.066343 141.371249 
L 424.333998 136.75419 
L 426.601653 131.642392 
L 429.625193 124.161649 
L 433.404618 114.005816 
L 443.987009 84.728704 
L 447.010549 77.282967 
L 449.278204 72.230534 
L 451.545859 67.695267 
L 453.813514 63.720684 
L 456.081169 60.313085 
L 457.592939 58.361287 
L 459.104709 56.666363 
L 460.61648 55.221864 
L 462.12825 54.027317 
L 463.64002 53.081986 
L 465.15179 52.384928 
L 466.66356 51.935313 
L 468.17533 51.732674 
L 469.6871 51.777097 
L 471.19887 52.069288 
L 472.71064 52.610594 
L 474.22241 53.402869 
L 475.73418 54.448287 
L 477.24595 55.749073 
L 478.75772 57.307151 
L 480.26949 59.123711 
L 481.78126 61.191832 
L 484.048915 64.757864 
L 486.316571 68.863341 
L 488.584226 73.458775 
L 490.851881 78.50179 
L 493.875421 85.807163 
L 497.654846 95.614742 
L 506.725466 119.60357 
L 509.749006 126.868707 
L 512.016662 131.846652 
L 514.284317 136.352987 
L 516.551972 140.341225 
L 518.819627 143.791402 
L 521.087282 146.695389 
L 522.599052 148.323685 
L 524.110822 149.711144 
L 525.622592 150.857055 
L 527.134362 151.761312 
L 528.646132 152.424124 
L 530.157902 152.845733 
L 531.669672 153.0262 
L 533.181442 152.965237 
L 534.693213 152.662164 
L 536.204983 152.115889 
L 537.716753 151.325038 
L 539.228523 150.288124 
L 540.740293 149.003797 
L 542.252063 147.471149 
L 543.763833 145.690488 
L 546.031488 142.570601 
L 548.299143 138.9247 
L 550.566798 134.787098 
L 552.834453 130.204766 
L 555.857993 123.491083 
L 558.881533 116.236791 
L 564.172729 102.82536 
L 569.463924 89.55682 
L 572.487464 82.518545 
L 574.755119 77.658117 
L 577.022774 73.229666 
L 579.290429 69.278602 
L 581.558084 65.837321 
L 583.825739 62.911829 
L 585.33751 61.256149 
L 586.84928 59.832869 
L 588.36105 58.642227 
L 589.87282 57.685254 
L 591.38459 56.962471 
L 592.89636 56.47415 
L 594.40813 56.220523 
L 595.9199 56.201937 
L 597.43167 56.418945 
L 598.94344 56.872314 
L 600.45521 57.562962 
L 601.96698 58.491812 
L 603.47875 59.659598 
L 604.99052 61.066612 
L 606.50229 62.712395 
L 608.769945 65.614996 
L 611.037601 69.020704 
L 613.305256 72.901484 
L 613.305256 72.901484 
" clip-path="url(#pd8aade6968)" style="fill: none; stroke: #2f6fed; stroke-width: 2; stroke-linecap: square"/>
   </g>
   <g id="line2d_34">
    <path d="M 84.941619 44.952505 
L 86.453389 44.658903 
L 87.965159 44.076115 
L 89.47693 43.213246 
L 90.9887 42.084111 
L 92.50047 40.707302 
L 94.768125 38.230253 
L 97.03578 35.349056 
L 100.05932 31.093796 
L 105.350515 23.53572 
L 107.61817 20.674871 
L 109.12994 19.007973 
L 110.64171 17.579743 
L 112.15348 16.424501 
L 113.66525 15.570391 
L 115.177021 15.038242 
L 116.688791 14.840628 
L 118.200561 14.981265 
L 119.712331 15.454666 
L 121.224101 16.246291 
L 122.735871 17.332951 
L 124.247641 18.683609 
L 126.515296 21.120343 
L 128.782951 23.915654 
L 137.853571 35.574728 
L 140.121227 37.918924 
L 141.632997 39.243621 
L 143.144767 40.349597 
L 144.656537 41.21741 
L 146.168307 41.831952 
L 147.680077 42.182479 
L 149.191847 42.262639 
L 150.703617 42.070473 
L 152.215387 41.608466 
L 153.727157 40.883582 
L 155.238927 39.907351 
L 156.750697 38.695917 
L 159.018352 36.48451 
L 161.286007 33.8829 
L 164.309548 30.021224 
L 169.600743 23.100288 
L 171.868398 20.45453 
L 174.136053 18.202746 
L 175.647823 16.979016 
L 177.159593 16.011783 
L 178.671363 15.324304 
L 180.183133 14.933028 
L 181.694903 14.846823 
L 183.206673 15.066516 
L 184.718443 15.584701 
L 186.230213 16.385939 
L 187.741983 17.447194 
L 189.253754 18.738585 
L 191.521409 21.027621 
L 194.544949 24.519245 
L 200.592029 31.737925 
L 202.859684 34.128531 
L 205.127339 36.181368 
L 206.639109 37.322015 
L 208.150879 38.255249 
L 209.662649 38.964113 
L 211.174419 39.435781 
L 212.686189 39.661618 
L 214.19796 39.637192 
L 215.70973 39.362322 
L 217.2215 38.841081 
L 218.73327 38.081866 
L 220.24504 37.097419 
L 221.75681 35.904841 
L 224.024465 33.773765 
L 226.29212 31.317931 
L 230.071545 26.825665 
L 233.85097 22.362731 
L 236.118625 19.957483 
L 238.386281 17.909959 
L 239.898051 16.796567 
L 241.409821 15.915559 
L 242.921591 15.287871 
L 244.433361 14.928342 
L 245.945131 14.845023 
L 247.456901 15.038778 
L 248.968671 15.5031 
L 250.480441 16.224281 
L 251.992211 17.181773 
L 253.503981 18.348833 
L 255.771636 20.42088 
L 258.795176 23.587403 
L 264.842257 30.148064 
L 267.109912 32.322543 
L 269.377567 34.188715 
L 270.889337 35.223907 
L 272.401107 36.068561 
L 273.912877 36.706859 
L 275.424647 37.126873 
L 276.936417 37.320646 
L 278.448187 37.284218 
L 279.959957 37.017683 
L 281.471727 36.525187 
L 282.983497 35.814982 
L 284.495267 34.899423 
L 286.762922 33.178111 
L 289.030578 31.104971 
L 292.054118 27.968396 
L 298.857083 20.695739 
L 301.124738 18.639409 
L 303.392393 16.951956 
L 304.904163 16.075545 
L 306.415933 15.422611 
L 307.927703 15.008496 
L 309.439473 14.842642 
L 310.951243 14.928158 
L 312.463014 15.261568 
L 313.974784 15.832874 
L 315.486554 16.625788 
L 316.998324 17.618201 
L 319.265979 19.420034 
L 322.289519 22.234137 
L 329.848369 29.60246 
L 332.116024 31.464773 
L 334.383679 33.014766 
L 335.895449 33.840886 
L 337.40722 34.482156 
L 338.91899 34.926265 
L 340.43076 35.164613 
L 341.94253 35.192375 
L 343.4543 35.008538 
L 344.96607 34.615935 
L 346.47784 34.021263 
L 347.98961 33.235082 
L 350.257265 31.729239 
L 352.52492 29.889995 
L 355.54846 27.073475 
L 363.107311 19.774942 
L 365.374966 17.966459 
L 367.642621 16.509336 
L 369.154391 15.770824 
L 370.666161 15.239322 
L 372.177931 14.927141 
L 373.689701 14.841161 
L 375.201471 14.982507 
L 376.713241 15.346387 
L 378.225011 15.922202 
L 379.736781 16.69379 
L 382.004436 18.170493 
L 384.272091 19.948863 
L 388.051517 23.299013 
L 392.586827 27.34198 
L 394.854482 29.14516 
L 397.122137 30.694087 
L 399.389792 31.923311 
L 400.901562 32.537505 
L 402.413332 32.972887 
L 403.925102 33.220837 
L 405.436872 33.276271 
L 406.948642 33.137688 
L 408.460412 32.807213 
L 409.972182 32.290594 
L 411.483953 31.597211 
L 413.751608 30.254998 
L 416.019263 28.603314 
L 419.042803 26.058971 
L 426.601653 19.420112 
L 428.869308 17.763539 
L 431.136963 16.421658 
L 432.648733 15.736293 
L 434.160503 15.237315 
L 435.672273 14.936192 
L 437.184044 14.839545 
L 438.695814 14.948856 
L 440.207584 15.260298 
L 441.719354 15.764817 
L 443.231124 16.448325 
L 445.498779 17.767065 
L 447.766434 19.365416 
L 451.545859 22.39459 
L 456.837054 26.644493 
L 459.104709 28.223435 
L 461.372365 29.553552 
L 463.64002 30.575743 
L 465.15179 31.06266 
L 466.66356 31.382049 
L 468.17533 31.527377 
L 469.6871 31.495443 
L 471.19887 31.286437 
L 472.71064 30.903935 
L 474.22241 30.354918 
L 476.490065 29.242702 
L 478.75772 27.828493 
L 481.78126 25.58972 
L 490.851881 18.439385 
L 493.119536 17.029279 
L 495.387191 15.928029 
L 496.898961 15.393866 
L 498.410731 15.034523 
L 499.922501 14.858066 
L 501.434271 14.868049 
L 502.946041 15.063306 
L 504.457811 15.437932 
L 505.969581 15.981388 
L 508.237236 17.079404 
L 510.504892 18.456238 
L 513.528432 20.583324 
L 520.331397 25.567281 
L 522.599052 26.996416 
L 524.866707 28.197594 
L 527.134362 29.11633 
L 529.402017 29.710341 
L 530.913787 29.911738 
L 532.425557 29.951966 
L 533.937327 29.829845 
L 535.449098 29.547377 
L 537.716753 28.835187 
L 539.984408 27.805234 
L 542.252063 26.503447 
L 545.275603 24.454452 
L 554.346223 17.986707 
L 556.613878 16.729519 
L 558.881533 15.757353 
L 560.393304 15.292585 
L 561.905074 14.987305 
L 563.416844 14.848271 
L 564.928614 14.878153 
L 566.440384 15.075371 
L 567.952154 15.434089 
L 570.219809 16.252058 
L 572.487464 17.360215 
L 575.511004 19.172228 
L 586.093395 25.960844 
L 588.36105 27.029428 
L 590.628705 27.836176 
L 592.89636 28.343373 
L 595.164015 28.527095 
L 597.43167 28.377946 
L 599.699325 27.901413 
L 601.96698 27.11787 
L 604.234635 26.062203 
L 606.50229 24.782912 
L 610.281716 22.334992 
L 613.305256 20.290228 
L 613.305256 20.290228 
" clip-path="url(#pd8aade6968)" style="fill: none; stroke: #d97706; stroke-width: 2; stroke-linecap: square"/>
   </g>
   <g id="patch_3">
    <path d="M 58.523438 175.27 
L 58.523438 7.2 
" style="fill: none; stroke: #000000; stroke-width: 0.8; stroke-linejoin: miter; stroke-linecap: square"/>
   </g>
   <g id="patch_4">
    <path d="M 639.723437 175.27 
L 639.723437 7.2 
" style="fill: none; stroke: #000000; stroke-width: 0.8; stroke-linejoin: miter; stroke-linecap: square"/>
   </g>
   <g id="patch_5">
    <path d="M 58.523438 175.27 
L 639.723437 175.27 
" style="fill: none; stroke: #000000; stroke-width: 0.8; stroke-linejoin: miter; stroke-linecap: square"/>
   </g>
   <g id="patch_6">
    <path d="M 58.523438 7.2 
L 639.723437 7.2 
" style="fill: none; stroke: #000000; stroke-width: 0.8; stroke-linejoin: miter; stroke-linecap: square"/>
   </g>
   <g id="legend_1">
    <g id="patch_7">
     <path d="M 576.123437 44.55625 
L 632.723437 44.55625 
Q 634.723437 44.55625 634.723437 42.55625 
L 634.723437 14.2 
Q 634.723437 12.2 632.723437 12.2 
L 576.123437 12.2 
Q 574.123437 12.2 574.123437 14.2 
L 574.123437 42.55625 
Q 574.123437 44.55625 576.123437 44.55625 
z
" style="fill: #ffffff; opacity: 0.8; stroke: #cccccc; stroke-linejoin: miter"/>
    </g>
    <g id="line2d_35">
     <path d="M 578.123437 20.298437 
L 588.123437 20.298437 
L 598.123437 20.298437 
" style="fill: none; stroke: #2f6fed; stroke-width: 2; stroke-linecap: square"/>
    </g>
    <g id="text_10">
     <!-- $\sin\theta$ -->
     <g transform="translate(606.123437 23.798437) scale(0.1 -0.1)">
      <defs>
       <path id="DejaVuSans-69" d="M 603 3500 
L 1178 3500 
L 1178 0 
L 603 0 
L 603 3500 
z
M 603 4863 
L 1178 4863 
L 1178 4134 
L 603 4134 
L 603 4863 
z
" transform="scale(0.015625)"/>
       <path id="DejaVuSans-6e" d="M 3513 2113 
L 3513 0 
L 2938 0 
L 2938 2094 
Q 2938 2591 2744 2837 
Q 2550 3084 2163 3084 
Q 1697 3084 1428 2787 
Q 1159 2491 1159 1978 
L 1159 0 
L 581 0 
L 581 3500 
L 1159 3500 
L 1159 2956 
Q 1366 3272 1645 3428 
Q 1925 3584 2291 3584 
Q 2894 3584 3203 3211 
Q 3513 2838 3513 2113 
z
" transform="scale(0.015625)"/>
       <path id="DejaVuSans-Oblique-3b8" d="M 2913 2219 
L 925 2219 
Q 791 1284 928 888 
Q 1100 400 1566 400 
Q 2034 400 2391 891 
Q 2703 1322 2913 2219 
z
M 3009 2750 
Q 3094 3638 2984 3950 
Q 2813 4444 2353 4444 
Q 1875 4444 1525 3956 
Q 1250 3563 1034 2750 
L 3009 2750 
z
M 2444 4913 
Q 3194 4913 3494 4250 
Q 3794 3591 3566 2422 
Q 3341 1256 2781 594 
Q 2225 -72 1475 -72 
Q 722 -72 425 594 
Q 128 1256 353 2422 
Q 581 3591 1134 4250 
Q 1691 4913 2444 4913 
z
" transform="scale(0.015625)"/>
      </defs>
      <use xlink:href="#DejaVuSans-73" transform="translate(0 0.234375)"/>
      <use xlink:href="#DejaVuSans-69" transform="translate(52.099609 0.234375)"/>
      <use xlink:href="#DejaVuSans-6e" transform="translate(79.882812 0.234375)"/>
      <use xlink:href="#DejaVuSans-Oblique-3b8" transform="translate(159.497395 0.234375)"/>
     </g>
    </g>
    <g id="line2d_36">
     <path d="M 578.123437 34.976562 
L 588.123437 34.976562 
L 598.123437 34.976562 
" style="fill: none; stroke: #d97706; stroke-width: 2; stroke-linecap: square"/>
    </g>
    <g id="text_11">
     <!-- $\cos\theta$ -->
     <g transform="translate(606.123437 38.476562) scale(0.1 -0.1)">
      <defs>
       <path id="DejaVuSans-63" d="M 3122 3366 
L 3122 2828 
Q 2878 2963 2633 3030 
Q 2388 3097 2138 3097 
Q 1578 3097 1268 2742 
Q 959 2388 959 1747 
Q 959 1106 1268 751 
Q 1578 397 2138 397 
Q 2388 397 2633 464 
Q 2878 531 3122 666 
L 3122 134 
Q 2881 22 2623 -34 
Q 2366 -91 2075 -91 
Q 1284 -91 818 406 
Q 353 903 353 1747 
Q 353 2603 823 3093 
Q 1294 3584 2113 3584 
Q 2378 3584 2631 3529 
Q 2884 3475 3122 3366 
z
" transform="scale(0.015625)"/>
      </defs>
      <use xlink:href="#DejaVuSans-63" transform="translate(0 0.234375)"/>
      <use xlink:href="#DejaVuSans-6f" transform="translate(54.980469 0.234375)"/>
      <use xlink:href="#DejaVuSans-73" transform="translate(116.162109 0.234375)"/>
      <use xlink:href="#DejaVuSans-Oblique-3b8" transform="translate(184.497395 0.234375)"/>
     </g>
    </g>
   </g>
  </g>
  <g id="axes_2">
   <g id="patch_8">
    <path d="M 58.523438 357.64 
L 639.723437 357.64 
L 639.723437 189.57 
L 58.523438 189.57 
z
" style="fill: #ffffff"/>
   </g>
   <g id="matplotlib.axis_3">
    <g id="xtick_9">
     <g id="line2d_37">
      <path d="M 84.185734 357.64 
L 84.185734 189.57 
" clip-path="url(#pf84ba5514b)" style="fill: none; stroke: #b0b0b0; stroke-opacity: 0.25; stroke-width: 0.8; stroke-linecap: square"/>
     </g>
     <g id="line2d_38">
      <g>
       <use xlink:href="#me2a6fe44c7" x="84.185734" y="357.64" style="stroke: #000000; stroke-width: 0.8"/>
      </g>
     </g>
     <g id="text_12">
      <!-- 0 -->
      <g transform="translate(81.004484 372.238438) scale(0.1 -0.1)">
       <use xlink:href="#DejaVuSans-30"/>
      </g>
     </g>
    </g>
    <g id="xtick_10">
     <g id="line2d_39">
      <path d="M 159.774237 357.64 
L 159.774237 189.57 
" clip-path="url(#pf84ba5514b)" style="fill: none; stroke: #b0b0b0; stroke-opacity: 0.25; stroke-width: 0.8; stroke-linecap: square"/>
     </g>
     <g id="line2d_40">
      <g>
       <use xlink:href="#me2a6fe44c7" x="159.774237" y="357.64" style="stroke: #000000; stroke-width: 0.8"/>
      </g>
     </g>
     <g id="text_13">
      <!-- 1 -->
      <g transform="translate(156.592987 372.238438) scale(0.1 -0.1)">
       <use xlink:href="#DejaVuSans-31"/>
      </g>
     </g>
    </g>
    <g id="xtick_11">
     <g id="line2d_41">
      <path d="M 235.36274 357.64 
L 235.36274 189.57 
" clip-path="url(#pf84ba5514b)" style="fill: none; stroke: #b0b0b0; stroke-opacity: 0.25; stroke-width: 0.8; stroke-linecap: square"/>
     </g>
     <g id="line2d_42">
      <g>
       <use xlink:href="#me2a6fe44c7" x="235.36274" y="357.64" style="stroke: #000000; stroke-width: 0.8"/>
      </g>
     </g>
     <g id="text_14">
      <!-- 2 -->
      <g transform="translate(232.18149 372.238438) scale(0.1 -0.1)">
       <use xlink:href="#DejaVuSans-32"/>
      </g>
     </g>
    </g>
    <g id="xtick_12">
     <g id="line2d_43">
      <path d="M 310.951243 357.64 
L 310.951243 189.57 
" clip-path="url(#pf84ba5514b)" style="fill: none; stroke: #b0b0b0; stroke-opacity: 0.25; stroke-width: 0.8; stroke-linecap: square"/>
     </g>
     <g id="line2d_44">
      <g>
       <use xlink:href="#me2a6fe44c7" x="310.951243" y="357.64" style="stroke: #000000; stroke-width: 0.8"/>
      </g>
     </g>
     <g id="text_15">
      <!-- 3 -->
      <g transform="translate(307.769993 372.238438) scale(0.1 -0.1)">
       <defs>
        <path id="DejaVuSans-33" d="M 2597 2516 
Q 3050 2419 3304 2112 
Q 3559 1806 3559 1356 
Q 3559 666 3084 287 
Q 2609 -91 1734 -91 
Q 1441 -91 1130 -33 
Q 819 25 488 141 
L 488 750 
Q 750 597 1062 519 
Q 1375 441 1716 441 
Q 2309 441 2620 675 
Q 2931 909 2931 1356 
Q 2931 1769 2642 2001 
Q 2353 2234 1838 2234 
L 1294 2234 
L 1294 2753 
L 1863 2753 
Q 2328 2753 2575 2939 
Q 2822 3125 2822 3475 
Q 2822 3834 2567 4026 
Q 2313 4219 1838 4219 
Q 1578 4219 1281 4162 
Q 984 4106 628 3988 
L 628 4550 
Q 988 4650 1302 4700 
Q 1616 4750 1894 4750 
Q 2613 4750 3031 4423 
Q 3450 4097 3450 3541 
Q 3450 3153 3228 2886 
Q 3006 2619 2597 2516 
z
" transform="scale(0.015625)"/>
       </defs>
       <use xlink:href="#DejaVuSans-33"/>
      </g>
     </g>
    </g>
    <g id="xtick_13">
     <g id="line2d_45">
      <path d="M 386.539747 357.64 
L 386.539747 189.57 
" clip-path="url(#pf84ba5514b)" style="fill: none; stroke: #b0b0b0; stroke-opacity: 0.25; stroke-width: 0.8; stroke-linecap: square"/>
     </g>
     <g id="line2d_46">
      <g>
       <use xlink:href="#me2a6fe44c7" x="386.539747" y="357.64" style="stroke: #000000; stroke-width: 0.8"/>
      </g>
     </g>
     <g id="text_16">
      <!-- 4 -->
      <g transform="translate(383.358497 372.238438) scale(0.1 -0.1)">
       <defs>
        <path id="DejaVuSans-34" d="M 2419 4116 
L 825 1625 
L 2419 1625 
L 2419 4116 
z
M 2253 4666 
L 3047 4666 
L 3047 1625 
L 3713 1625 
L 3713 1100 
L 3047 1100 
L 3047 0 
L 2419 0 
L 2419 1100 
L 313 1100 
L 313 1709 
L 2253 4666 
z
" transform="scale(0.015625)"/>
       </defs>
       <use xlink:href="#DejaVuSans-34"/>
      </g>
     </g>
    </g>
    <g id="xtick_14">
     <g id="line2d_47">
      <path d="M 462.12825 357.64 
L 462.12825 189.57 
" clip-path="url(#pf84ba5514b)" style="fill: none; stroke: #b0b0b0; stroke-opacity: 0.25; stroke-width: 0.8; stroke-linecap: square"/>
     </g>
     <g id="line2d_48">
      <g>
       <use xlink:href="#me2a6fe44c7" x="462.12825" y="357.64" style="stroke: #000000; stroke-width: 0.8"/>
      </g>
     </g>
     <g id="text_17">
      <!-- 5 -->
      <g transform="translate(458.947 372.238438) scale(0.1 -0.1)">
       <use xlink:href="#DejaVuSans-35"/>
      </g>
     </g>
    </g>
    <g id="xtick_15">
     <g id="line2d_49">
      <path d="M 537.716753 357.64 
L 537.716753 189.57 
" clip-path="url(#pf84ba5514b)" style="fill: none; stroke: #b0b0b0; stroke-opacity: 0.25; stroke-width: 0.8; stroke-linecap: square"/>
     </g>
     <g id="line2d_50">
      <g>
       <use xlink:href="#me2a6fe44c7" x="537.716753" y="357.64" style="stroke: #000000; stroke-width: 0.8"/>
      </g>
     </g>
     <g id="text_18">
      <!-- 6 -->
      <g transform="translate(534.535503 372.238438) scale(0.1 -0.1)">
       <defs>
        <path id="DejaVuSans-36" d="M 2113 2584 
Q 1688 2584 1439 2293 
Q 1191 2003 1191 1497 
Q 1191 994 1439 701 
Q 1688 409 2113 409 
Q 2538 409 2786 701 
Q 3034 994 3034 1497 
Q 3034 2003 2786 2293 
Q 2538 2584 2113 2584 
z
M 3366 4563 
L 3366 3988 
Q 3128 4100 2886 4159 
Q 2644 4219 2406 4219 
Q 1781 4219 1451 3797 
Q 1122 3375 1075 2522 
Q 1259 2794 1537 2939 
Q 1816 3084 2150 3084 
Q 2853 3084 3261 2657 
Q 3669 2231 3669 1497 
Q 3669 778 3244 343 
Q 2819 -91 2113 -91 
Q 1303 -91 875 529 
Q 447 1150 447 2328 
Q 447 3434 972 4092 
Q 1497 4750 2381 4750 
Q 2619 4750 2861 4703 
Q 3103 4656 3366 4563 
z
" transform="scale(0.015625)"/>
       </defs>
       <use xlink:href="#DejaVuSans-36"/>
      </g>
     </g>
    </g>
    <g id="xtick_16">
     <g id="line2d_51">
      <path d="M 613.305256 357.64 
L 613.305256 189.57 
" clip-path="url(#pf84ba5514b)" style="fill: none; stroke: #b0b0b0; stroke-opacity: 0.25; stroke-width: 0.8; stroke-linecap: square"/>
     </g>
     <g id="line2d_52">
      <g>
       <use xlink:href="#me2a6fe44c7" x="613.305256" y="357.64" style="stroke: #000000; stroke-width: 0.8"/>
      </g>
     </g>
     <g id="text_19">
      <!-- 7 -->
      <g transform="translate(610.124006 372.238438) scale(0.1 -0.1)">
       <use xlink:href="#DejaVuSans-37"/>
      </g>
     </g>
    </g>
    <g id="text_20">
     <!-- time [s] -->
     <g transform="translate(329.732031 385.916562) scale(0.1 -0.1)">
      <defs>
       <path id="DejaVuSans-6d" d="M 3328 2828 
Q 3544 3216 3844 3400 
Q 4144 3584 4550 3584 
Q 5097 3584 5394 3201 
Q 5691 2819 5691 2113 
L 5691 0 
L 5113 0 
L 5113 2094 
Q 5113 2597 4934 2840 
Q 4756 3084 4391 3084 
Q 3944 3084 3684 2787 
Q 3425 2491 3425 1978 
L 3425 0 
L 2847 0 
L 2847 2094 
Q 2847 2600 2669 2842 
Q 2491 3084 2119 3084 
Q 1678 3084 1418 2786 
Q 1159 2488 1159 1978 
L 1159 0 
L 581 0 
L 581 3500 
L 1159 3500 
L 1159 2956 
Q 1356 3278 1631 3431 
Q 1906 3584 2284 3584 
Q 2666 3584 2933 3390 
Q 3200 3197 3328 2828 
z
" transform="scale(0.015625)"/>
       <path id="DejaVuSans-5b" d="M 550 4863 
L 1875 4863 
L 1875 4416 
L 1125 4416 
L 1125 -397 
L 1875 -397 
L 1875 -844 
L 550 -844 
L 550 4863 
z
" transform="scale(0.015625)"/>
       <path id="DejaVuSans-5d" d="M 1947 4863 
L 1947 -844 
L 622 -844 
L 622 -397 
L 1369 -397 
L 1369 4416 
L 622 4416 
L 622 4863 
L 1947 4863 
z
" transform="scale(0.015625)"/>
      </defs>
      <use xlink:href="#DejaVuSans-74"/>
      <use xlink:href="#DejaVuSans-69" transform="translate(39.208984 0)"/>
      <use xlink:href="#DejaVuSans-6d" transform="translate(66.992188 0)"/>
      <use xlink:href="#DejaVuSans-65" transform="translate(164.404297 0)"/>
      <use xlink:href="#DejaVuSans-20" transform="translate(225.927734 0)"/>
      <use xlink:href="#DejaVuSans-5b" transform="translate(257.714844 0)"/>
      <use xlink:href="#DejaVuSans-73" transform="translate(296.728516 0)"/>
      <use xlink:href="#DejaVuSans-5d" transform="translate(348.828125 0)"/>
     </g>
    </g>
   </g>
   <g id="matplotlib.axis_4">
    <g id="ytick_9">
     <g id="line2d_53">
      <path d="M 58.523438 347.679487 
L 639.723437 347.679487 
" clip-path="url(#pf84ba5514b)" style="fill: none; stroke: #b0b0b0; stroke-opacity: 0.25; stroke-width: 0.8; stroke-linecap: square"/>
     </g>
     <g id="line2d_54">
      <g>
       <use xlink:href="#mbcb8e1018d" x="58.523438" y="347.679487" style="stroke: #000000; stroke-width: 0.8"/>
      </g>
     </g>
     <g id="text_21">
      <!-- −3 -->
      <g transform="translate(36.78125 351.478706) scale(0.1 -0.1)">
       <use xlink:href="#DejaVuSans-2212"/>
       <use xlink:href="#DejaVuSans-33" transform="translate(83.789062 0)"/>
      </g>
     </g>
    </g>
    <g id="ytick_10">
     <g id="line2d_55">
      <path d="M 58.523438 322.362178 
L 639.723437 322.362178 
" clip-path="url(#pf84ba5514b)" style="fill: none; stroke: #b0b0b0; stroke-opacity: 0.25; stroke-width: 0.8; stroke-linecap: square"/>
     </g>
     <g id="line2d_56">
      <g>
       <use xlink:href="#mbcb8e1018d" x="58.523438" y="322.362178" style="stroke: #000000; stroke-width: 0.8"/>
      </g>
     </g>
     <g id="text_22">
      <!-- −2 -->
      <g transform="translate(36.78125 326.161397) scale(0.1 -0.1)">
       <use xlink:href="#DejaVuSans-2212"/>
       <use xlink:href="#DejaVuSans-32" transform="translate(83.789062 0)"/>
      </g>
     </g>
    </g>
    <g id="ytick_11">
     <g id="line2d_57">
      <path d="M 58.523438 297.044869 
L 639.723437 297.044869 
" clip-path="url(#pf84ba5514b)" style="fill: none; stroke: #b0b0b0; stroke-opacity: 0.25; stroke-width: 0.8; stroke-linecap: square"/>
     </g>
     <g id="line2d_58">
      <g>
       <use xlink:href="#mbcb8e1018d" x="58.523438" y="297.044869" style="stroke: #000000; stroke-width: 0.8"/>
      </g>
     </g>
     <g id="text_23">
      <!-- −1 -->
      <g transform="translate(36.78125 300.844088) scale(0.1 -0.1)">
       <use xlink:href="#DejaVuSans-2212"/>
       <use xlink:href="#DejaVuSans-31" transform="translate(83.789062 0)"/>
      </g>
     </g>
    </g>
    <g id="ytick_12">
     <g id="line2d_59">
      <path d="M 58.523438 271.72756 
L 639.723437 271.72756 
" clip-path="url(#pf84ba5514b)" style="fill: none; stroke: #b0b0b0; stroke-opacity: 0.25; stroke-width: 0.8; stroke-linecap: square"/>
     </g>
     <g id="line2d_60">
      <g>
       <use xlink:href="#mbcb8e1018d" x="58.523438" y="271.72756" style="stroke: #000000; stroke-width: 0.8"/>
      </g>
     </g>
     <g id="text_24">
      <!-- 0 -->
      <g transform="translate(45.160938 275.526779) scale(0.1 -0.1)">
       <use xlink:href="#DejaVuSans-30"/>
      </g>
     </g>
    </g>
    <g id="ytick_13">
     <g id="line2d_61">
      <path d="M 58.523438 246.410251 
L 639.723437 246.410251 
" clip-path="url(#pf84ba5514b)" style="fill: none; stroke: #b0b0b0; stroke-opacity: 0.25; stroke-width: 0.8; stroke-linecap: square"/>
     </g>
     <g id="line2d_62">
      <g>
       <use xlink:href="#mbcb8e1018d" x="58.523438" y="246.410251" style="stroke: #000000; stroke-width: 0.8"/>
      </g>
     </g>
     <g id="text_25">
      <!-- 1 -->
      <g transform="translate(45.160938 250.20947) scale(0.1 -0.1)">
       <use xlink:href="#DejaVuSans-31"/>
      </g>
     </g>
    </g>
    <g id="ytick_14">
     <g id="line2d_63">
      <path d="M 58.523438 221.092942 
L 639.723437 221.092942 
" clip-path="url(#pf84ba5514b)" style="fill: none; stroke: #b0b0b0; stroke-opacity: 0.25; stroke-width: 0.8; stroke-linecap: square"/>
     </g>
     <g id="line2d_64">
      <g>
       <use xlink:href="#mbcb8e1018d" x="58.523438" y="221.092942" style="stroke: #000000; stroke-width: 0.8"/>
      </g>
     </g>
     <g id="text_26">
      <!-- 2 -->
      <g transform="translate(45.160938 224.892161) scale(0.1 -0.1)">
       <use xlink:href="#DejaVuSans-32"/>
      </g>
     </g>
    </g>
    <g id="ytick_15">
     <g id="line2d_65">
      <path d="M 58.523438 195.775633 
L 639.723437 195.775633 
" clip-path="url(#pf84ba5514b)" style="fill: none; stroke: #b0b0b0; stroke-opacity: 0.25; stroke-width: 0.8; stroke-linecap: square"/>
     </g>
     <g id="line2d_66">
      <g>
       <use xlink:href="#mbcb8e1018d" x="58.523438" y="195.775633" style="stroke: #000000; stroke-width: 0.8"/>
      </g>
     </g>
     <g id="text_27">
      <!-- 3 -->
      <g transform="translate(45.160938 199.574852) scale(0.1 -0.1)">
       <use xlink:href="#DejaVuSans-33"/>
      </g>
     </g>
    </g>
    <g id="text_28">
     <!-- angular velocity [rad/s] -->
     <g transform="translate(30.701563 331.894063) rotate(-90) scale(0.1 -0.1)">
      <defs>
       <path id="DejaVuSans-61" d="M 2194 1759 
Q 1497 1759 1228 1600 
Q 959 1441 959 1056 
Q 959 750 1161 570 
Q 1363 391 1709 391 
Q 2188 391 2477 730 
Q 2766 1069 2766 1631 
L 2766 1759 
L 2194 1759 
z
M 3341 1997 
L 3341 0 
L 2766 0 
L 2766 531 
Q 2569 213 2275 61 
Q 1981 -91 1556 -91 
Q 1019 -91 701 211 
Q 384 513 384 1019 
Q 384 1609 779 1909 
Q 1175 2209 1959 2209 
L 2766 2209 
L 2766 2266 
Q 2766 2663 2505 2880 
Q 2244 3097 1772 3097 
Q 1472 3097 1187 3025 
Q 903 2953 641 2809 
L 641 3341 
Q 956 3463 1253 3523 
Q 1550 3584 1831 3584 
Q 2591 3584 2966 3190 
Q 3341 2797 3341 1997 
z
" transform="scale(0.015625)"/>
       <path id="DejaVuSans-67" d="M 2906 1791 
Q 2906 2416 2648 2759 
Q 2391 3103 1925 3103 
Q 1463 3103 1205 2759 
Q 947 2416 947 1791 
Q 947 1169 1205 825 
Q 1463 481 1925 481 
Q 2391 481 2648 825 
Q 2906 1169 2906 1791 
z
M 3481 434 
Q 3481 -459 3084 -895 
Q 2688 -1331 1869 -1331 
Q 1566 -1331 1297 -1286 
Q 1028 -1241 775 -1147 
L 775 -588 
Q 1028 -725 1275 -790 
Q 1522 -856 1778 -856 
Q 2344 -856 2625 -561 
Q 2906 -266 2906 331 
L 2906 616 
Q 2728 306 2450 153 
Q 2172 0 1784 0 
Q 1141 0 747 490 
Q 353 981 353 1791 
Q 353 2603 747 3093 
Q 1141 3584 1784 3584 
Q 2172 3584 2450 3431 
Q 2728 3278 2906 2969 
L 2906 3500 
L 3481 3500 
L 3481 434 
z
" transform="scale(0.015625)"/>
       <path id="DejaVuSans-6c" d="M 603 4863 
L 1178 4863 
L 1178 0 
L 603 0 
L 603 4863 
z
" transform="scale(0.015625)"/>
       <path id="DejaVuSans-79" d="M 2059 -325 
Q 1816 -950 1584 -1140 
Q 1353 -1331 966 -1331 
L 506 -1331 
L 506 -850 
L 844 -850 
Q 1081 -850 1212 -737 
Q 1344 -625 1503 -206 
L 1606 56 
L 191 3500 
L 800 3500 
L 1894 763 
L 2988 3500 
L 3597 3500 
L 2059 -325 
z
" transform="scale(0.015625)"/>
       <path id="DejaVuSans-64" d="M 2906 2969 
L 2906 4863 
L 3481 4863 
L 3481 0 
L 2906 0 
L 2906 525 
Q 2725 213 2448 61 
Q 2172 -91 1784 -91 
Q 1150 -91 751 415 
Q 353 922 353 1747 
Q 353 2572 751 3078 
Q 1150 3584 1784 3584 
Q 2172 3584 2448 3432 
Q 2725 3281 2906 2969 
z
M 947 1747 
Q 947 1113 1208 752 
Q 1469 391 1925 391 
Q 2381 391 2643 752 
Q 2906 1113 2906 1747 
Q 2906 2381 2643 2742 
Q 2381 3103 1925 3103 
Q 1469 3103 1208 2742 
Q 947 2381 947 1747 
z
" transform="scale(0.015625)"/>
       <path id="DejaVuSans-2f" d="M 1625 4666 
L 2156 4666 
L 531 -594 
L 0 -594 
L 1625 4666 
z
" transform="scale(0.015625)"/>
      </defs>
      <use xlink:href="#DejaVuSans-61"/>
      <use xlink:href="#DejaVuSans-6e" transform="translate(61.279297 0)"/>
      <use xlink:href="#DejaVuSans-67" transform="translate(124.658203 0)"/>
      <use xlink:href="#DejaVuSans-75" transform="translate(188.134766 0)"/>
      <use xlink:href="#DejaVuSans-6c" transform="translate(251.513672 0)"/>
      <use xlink:href="#DejaVuSans-61" transform="translate(279.296875 0)"/>
      <use xlink:href="#DejaVuSans-72" transform="translate(340.576172 0)"/>
      <use xlink:href="#DejaVuSans-20" transform="translate(381.689453 0)"/>
      <use xlink:href="#DejaVuSans-76" transform="translate(413.476562 0)"/>
      <use xlink:href="#DejaVuSans-65" transform="translate(472.65625 0)"/>
      <use xlink:href="#DejaVuSans-6c" transform="translate(534.179688 0)"/>
      <use xlink:href="#DejaVuSans-6f" transform="translate(561.962891 0)"/>
      <use xlink:href="#DejaVuSans-63" transform="translate(623.144531 0)"/>
      <use xlink:href="#DejaVuSans-69" transform="translate(678.125 0)"/>
      <use xlink:href="#DejaVuSans-74" transform="translate(705.908203 0)"/>
      <use xlink:href="#DejaVuSans-79" transform="translate(745.117188 0)"/>
      <use xlink:href="#DejaVuSans-20" transform="translate(804.296875 0)"/>
      <use xlink:href="#DejaVuSans-5b" transform="translate(836.083984 0)"/>
      <use xlink:href="#DejaVuSans-72" transform="translate(875.097656 0)"/>
      <use xlink:href="#DejaVuSans-61" transform="translate(916.210938 0)"/>
      <use xlink:href="#DejaVuSans-64" transform="translate(977.490234 0)"/>
      <use xlink:href="#DejaVuSans-2f" transform="translate(1040.966797 0)"/>
      <use xlink:href="#DejaVuSans-73" transform="translate(1074.658203 0)"/>
      <use xlink:href="#DejaVuSans-5d" transform="translate(1126.757812 0)"/>
     </g>
    </g>
   </g>
   <g id="line2d_67">
    <path d="M 84.941619 274.524814 
L 90.9887 296.489866 
L 94.768125 309.404283 
L 97.791665 318.959732 
L 100.05932 325.524514 
L 102.326975 331.473589 
L 104.59463 336.721196 
L 106.1064 339.790756 
L 107.61817 342.494571 
L 109.12994 344.811643 
L 110.64171 346.722417 
L 112.15348 348.209478 
L 113.66525 349.258252 
L 115.177021 349.857629 
L 115.932906 349.986395 
L 116.688791 350.000455 
L 117.444676 349.89956 
L 118.956446 349.353409 
L 120.468216 348.35163 
L 121.979986 346.902309 
L 123.491756 345.017789 
L 125.003526 342.714331 
L 126.515296 340.011693 
L 128.027066 336.932635 
L 130.294721 331.675704 
L 132.562376 325.744907 
L 134.830031 319.240543 
L 137.853571 309.851857 
L 141.632997 297.260998 
L 146.924192 278.70196 
L 155.238927 249.421386 
L 159.018352 236.937652 
L 162.041892 227.701981 
L 164.309548 221.346161 
L 166.577203 215.584557 
L 168.844858 210.481987 
L 170.356628 207.48684 
L 171.868398 204.843492 
L 173.380168 202.563358 
L 174.891938 200.666006 
L 176.403708 199.169074 
L 177.915478 198.087182 
L 179.427248 197.431525 
L 180.939018 197.209545 
L 182.450788 197.424776 
L 183.962558 198.076664 
L 185.474328 199.160658 
L 186.986098 200.668182 
L 188.497869 202.586876 
L 190.009639 204.900905 
L 191.521409 207.591356 
L 193.033179 210.63588 
L 195.300834 215.795617 
L 197.568489 221.590782 
L 200.592029 230.126358 
L 203.615569 239.391829 
L 207.394994 251.694625 
L 214.19796 274.813483 
L 220.24504 295.053213 
L 224.024465 306.8651 
L 227.048005 315.528987 
L 229.31566 321.43896 
L 231.583315 326.749608 
L 233.85097 331.40403 
L 235.36274 334.101804 
L 236.87451 336.457658 
L 238.386281 338.457316 
L 239.898051 340.083066 
L 241.409821 341.319853 
L 242.921591 342.155642 
L 244.433361 342.581737 
L 245.945131 342.593005 
L 247.456901 342.187965 
L 248.968671 341.368893 
L 250.480441 340.141748 
L 251.992211 338.516109 
L 253.503981 336.504925 
L 255.015751 334.124202 
L 256.527521 331.392636 
L 258.795176 326.695742 
L 261.062831 321.360037 
L 263.330487 315.473493 
L 266.354027 306.9368 
L 270.133452 295.427004 
L 275.424647 278.382821 
L 283.739382 251.443428 
L 287.518808 239.995156 
L 290.542348 231.560532 
L 292.810003 225.78002 
L 295.077658 220.562751 
L 297.345313 215.961522 
L 298.857083 213.272431 
L 300.368853 210.90851 
L 301.880623 208.878686 
L 303.392393 207.200131 
L 304.904163 205.887738 
L 306.415933 204.953687 
L 307.927703 204.407151 
L 309.439473 204.254066 
L 310.951243 204.497046 
L 312.463014 205.135225 
L 313.974784 206.16436 
L 315.486554 207.576808 
L 316.998324 209.361722 
L 318.510094 211.505299 
L 320.021864 213.991086 
L 322.289519 218.313351 
L 324.557174 223.267941 
L 326.824829 228.776666 
L 329.848369 236.816517 
L 332.871909 245.484098 
L 337.40722 259.264856 
L 348.745495 294.346725 
L 351.769035 302.981013 
L 354.792575 310.949544 
L 357.06023 316.380935 
L 359.327885 321.25728 
L 361.595541 325.530246 
L 363.107311 328.008352 
L 364.619081 330.173431 
L 366.130851 332.014479 
L 367.642621 333.516021 
L 369.154391 334.664915 
L 370.666161 335.45064 
L 372.177931 335.865533 
L 373.689701 335.904969 
L 375.201471 335.567426 
L 376.713241 334.854563 
L 378.225011 333.771184 
L 379.736781 332.325197 
L 381.248551 330.527425 
L 382.760321 328.391373 
L 384.272091 325.932955 
L 386.539747 321.690669 
L 388.807402 316.855313 
L 391.075057 311.504452 
L 394.098597 303.721913 
L 397.878022 293.197673 
L 403.169217 277.574798 
L 411.483953 252.892695 
L 415.263378 242.45277 
L 418.286918 234.798287 
L 420.554573 229.577636 
L 422.822228 224.888129 
L 425.089883 220.774417 
L 426.601653 218.384641 
L 428.113423 216.293878 
L 429.625193 214.51121 
L 431.136963 213.051242 
L 432.648733 211.926403 
L 434.160503 211.14669 
L 435.672273 210.719456 
L 437.184044 210.649247 
L 438.695814 210.937747 
L 440.207584 211.5837 
L 441.719354 212.582937 
L 443.231124 213.928403 
L 444.742894 215.610313 
L 446.254664 217.616353 
L 447.766434 219.931919 
L 450.034089 223.940577 
L 452.301744 228.522041 
L 454.569399 233.60424 
L 457.592939 241.011909 
L 461.372365 251.051049 
L 465.907675 263.81446 
L 474.978295 289.598211 
L 478.75772 299.579788 
L 481.78126 306.889848 
L 484.048915 311.869982 
L 486.316571 316.338576 
L 488.584226 320.253881 
L 490.095996 322.525849 
L 491.607766 324.511816 
L 493.119536 326.203249 
L 494.631306 327.586562 
L 496.143076 328.650228 
L 497.654846 329.385004 
L 499.166616 329.784118 
L 500.678386 329.843407 
L 502.190156 329.56136 
L 503.701926 328.939192 
L 505.213696 327.980818 
L 506.725466 326.692831 
L 508.237236 325.084364 
L 509.749006 323.166912 
L 511.260777 320.954123 
L 513.528432 317.12382 
L 515.796087 312.745584 
L 518.063742 307.887908 
L 521.087282 300.804995 
L 524.866707 291.202673 
L 529.402017 278.992811 
L 538.472638 254.35805 
L 542.252063 244.851096 
L 545.275603 237.907478 
L 547.543258 233.189914 
L 549.810913 228.967635 
L 552.078568 225.280062 
L 553.590338 223.148066 
L 555.102108 221.289836 
L 556.613878 219.714433 
L 558.125648 218.434325 
L 559.637419 217.460007 
L 561.149189 216.799813 
L 562.660959 216.459748 
L 564.172729 216.443382 
L 565.684499 216.751817 
L 567.196269 217.383624 
L 568.708039 218.334862 
L 570.219809 219.599113 
L 571.731579 221.167606 
L 573.243349 223.029376 
L 574.755119 225.171453 
L 577.022774 228.867738 
L 579.290429 233.084237 
L 581.558084 237.75407 
L 584.581625 244.554506 
L 588.36105 253.761433 
L 593.652245 267.436297 
L 601.211095 287.070192 
L 604.99052 296.239309 
L 608.01406 302.963749 
L 610.281716 307.550588 
L 612.549371 311.671874 
L 613.305256 312.936034 
L 613.305256 312.936034 
" clip-path="url(#pf84ba5514b)" style="fill: none; stroke: #15803d; stroke-width: 2; stroke-linecap: square"/>
   </g>
   <g id="patch_9">
    <path d="M 58.523438 357.64 
L 58.523438 189.57 
" style="fill: none; stroke: #000000; stroke-width: 0.8; stroke-linejoin: miter; stroke-linecap: square"/>
   </g>
   <g id="patch_10">
    <path d="M 639.723437 357.64 
L 639.723437 189.57 
" style="fill: none; stroke: #000000; stroke-width: 0.8; stroke-linejoin: miter; stroke-linecap: square"/>
   </g>
   <g id="patch_11">
    <path d="M 58.523438 357.64 
L 639.723437 357.64 
" style="fill: none; stroke: #000000; stroke-width: 0.8; stroke-linejoin: miter; stroke-linecap: square"/>
   </g>
   <g id="patch_12">
    <path d="M 58.523438 189.57 
L 639.723437 189.57 
" style="fill: none; stroke: #000000; stroke-width: 0.8; stroke-linejoin: miter; stroke-linecap: square"/>
   </g>
   <g id="legend_2">
    <g id="patch_13">
     <path d="M 592.323437 212.248125 
L 632.723437 212.248125 
Q 634.723437 212.248125 634.723437 210.248125 
L 634.723437 196.57 
Q 634.723437 194.57 632.723437 194.57 
L 592.323437 194.57 
Q 590.323437 194.57 590.323437 196.57 
L 590.323437 210.248125 
Q 590.323437 212.248125 592.323437 212.248125 
z
" style="fill: #ffffff; opacity: 0.8; stroke: #cccccc; stroke-linejoin: miter"/>
    </g>
    <g id="line2d_68">
     <path d="M 594.323437 202.668437 
L 604.323437 202.668437 
L 614.323437 202.668437 
" style="fill: none; stroke: #15803d; stroke-width: 2; stroke-linecap: square"/>
    </g>
    <g id="text_29">
     <!-- $\omega$ -->
     <g transform="translate(622.323437 206.168437) scale(0.1 -0.1)">
      <defs>
       <path id="DejaVuSans-Oblique-3c9" d="M 1369 -91 
Q 72 -91 434 1766 
Q 575 2500 1256 3500 
L 1875 3500 
Q 1231 2500 1088 1750 
Q 819 397 1519 397 
Q 2166 397 2478 2078 
L 3009 2078 
Q 2669 388 3316 397 
Q 4013 403 4275 1750 
Q 4419 2500 4169 3500 
L 4788 3500 
Q 5075 2500 4934 1766 
Q 4578 -94 3278 -91 
Q 2428 -88 2503 844 
Q 2194 -91 1369 -91 
z
" transform="scale(0.015625)"/>
      </defs>
      <use xlink:href="#DejaVuSans-Oblique-3c9" transform="translate(0 0.3125)"/>
     </g>
    </g>
   </g>
  </g>
 </g>
 <defs>
  <clipPath id="pd8aade6968">
   <rect x="58.523438" y="7.2" width="581.2" height="168.07"/>
  </clipPath>
  <clipPath id="pf84ba5514b">
   <rect x="58.523438" y="189.57" width="581.2" height="168.07"/>
  </clipPath>
 </defs>
</svg>
