<?xml version="1.0" encoding="utf-8" standalone="no"?>
<!DOCTYPE svg PUBLIC "-//W3C//DTD SVG 1.1//EN"
  "http://www.w3.org/Graphics/SVG/1.1/DTD/svg11.dtd">
<svg xmlns:xlink="http://www.w3.org/1999/xlink" width="576pt" height="345.6pt" viewBox="0 0 576 345.6" xmlns="http://www.w3.org/2000/svg" version="1.1">
 <metadata>
  <rdf:RDF xmlns:dc="http://purl.org/dc/elements/1.1/" xmlns:cc="http://creativecommons.org/ns#" xmlns:rdf="http://www.w3.org/1999/02/22-rdf-syntax-ns#">
   <cc:Work>
    <dc:type rdf:resource="http://purl.org/dc/dcmitype/StillImage"/>
    <dc:date>2026-05-16T20:38:23.958582</dc:date>
    <dc:format>image/svg+xml</dc:format>
    <dc:creator>
     <cc:Agent>
      <dc:title>Matplotlib v3.10.9, https://matplotlib.org/</dc:title>
     </cc:Agent>
    </dc:creator>
   </cc:Work>
  </rdf:RDF>
 </metadata>
 <defs>
  <style type="text/css">*{stroke-linejoin: round; stroke-linecap: butt}</style>
 </defs>
 <g id="figure_1">
  <g id="patch_1">
   <path d="M 0 345.6 
L 576 345.6 
L 576 0 
L 0 0 
z
" style="fill: #ffffff"/>
  </g>
  <g id="axes_1">
   <g id="patch_2">
    <path d="M 59.24 303.64 
L 522.07 303.64 
L 522.07 10.8 
L 59.24 10.8 
z
" style="fill: #ffffff"/>
   </g>
   <g id="matplotlib.axis_1">
    <g id="xtick_1">
     <g id="line2d_1">
      <defs>
       <path id="m2a345ac41f" d="M 0 0 
L 0 3.5 
" style="stroke: #000000; stroke-width: 0.8"/>
      </defs>
      <g>
       <use xlink:href="#m2a345ac41f" x="151.620775" y="303.64" style="stroke: #000000; stroke-width: 0.8"/>
      </g>
     </g>
     <g id="text_1">
      <!-- 0.02 -->
      <g transform="translate(140.487963 318.238437) scale(0.1 -0.1)">
       <defs>
        <path id="DejaVuSans-30" d="M 2034 4250 
Q 1547 4250 1301 3770 
Q 1056 3291 1056 2328 
Q 1056 1369 1301 889 
Q 1547 409 2034 409 
Q 2525 409 2770 889 
Q 3016 1369 3016 2328 
Q 3016 3291 2770 3770 
Q 2525 4250 2034 4250 
z
M 2034 4750 
Q 2819 4750 3233 4129 
Q 3647 3509 3647 2328 
Q 3647 1150 3233 529 
Q 2819 -91 2034 -91 
Q 1250 -91 836 529 
Q 422 1150 422 2328 
Q 422 3509 836 4129 
Q 1250 4750 2034 4750 
z
" transform="scale(0.015625)"/>
        <path id="DejaVuSans-2e" d="M 684 794 
L 1344 794 
L 1344 0 
L 684 0 
L 684 794 
z
" transform="scale(0.015625)"/>
        <path id="DejaVuSans-32" d="M 1228 531 
L 3431 531 
L 3431 0 
L 469 0 
L 469 531 
Q 828 903 1448 1529 
Q 2069 2156 2228 2338 
Q 2531 2678 2651 2914 
Q 2772 3150 2772 3378 
Q 2772 3750 2511 3984 
Q 2250 4219 1831 4219 
Q 1534 4219 1204 4116 
Q 875 4013 500 3803 
L 500 4441 
Q 881 4594 1212 4672 
Q 1544 4750 1819 4750 
Q 2544 4750 2975 4387 
Q 3406 4025 3406 3419 
Q 3406 3131 3298 2873 
Q 3191 2616 2906 2266 
Q 2828 2175 2409 1742 
Q 1991 1309 1228 531 
z
" transform="scale(0.015625)"/>
       </defs>
       <use xlink:href="#DejaVuSans-30"/>
       <use xlink:href="#DejaVuSans-2e" transform="translate(63.623047 0)"/>
       <use xlink:href="#DejaVuSans-30" transform="translate(95.410156 0)"/>
       <use xlink:href="#DejaVuSans-32" transform="translate(159.033203 0)"/>
      </g>
     </g>
    </g>
    <g id="xtick_2">
     <g id="line2d_2">
      <g>
       <use xlink:href="#m2a345ac41f" x="244.233082" y="303.64" style="stroke: #000000; stroke-width: 0.8"/>
      </g>
     </g>
     <g id="text_2">
      <!-- 0.04 -->
      <g transform="translate(233.100269 318.238437) scale(0.1 -0.1)">
       <defs>
        <path id="DejaVuSans-34" d="M 2419 4116 
L 825 1625 
L 2419 1625 
L 2419 4116 
z
M 2253 4666 
L 3047 4666 
L 3047 1625 
L 3713 1625 
L 3713 1100 
L 3047 1100 
L 3047 0 
L 2419 0 
L 2419 1100 
L 313 1100 
L 313 1709 
L 2253 4666 
z
" transform="scale(0.015625)"/>
       </defs>
       <use xlink:href="#DejaVuSans-30"/>
       <use xlink:href="#DejaVuSans-2e" transform="translate(63.623047 0)"/>
       <use xlink:href="#DejaVuSans-30" transform="translate(95.410156 0)"/>
       <use xlink:href="#DejaVuSans-34" transform="translate(159.033203 0)"/>
      </g>
     </g>
    </g>
    <g id="xtick_3">
     <g id="line2d_3">
      <g>
       <use xlink:href="#m2a345ac41f" x="336.845388" y="303.64" style="stroke: #000000; stroke-width: 0.8"/>
      </g>
     </g>
     <g id="text_3">
      <!-- 0.06 -->
      <g transform="translate(325.712575 318.238437) scale(0.1 -0.1)">
       <defs>
        <path id="DejaVuSans-36" d="M 2113 2584 
Q 1688 2584 1439 2293 
Q 1191 2003 1191 1497 
Q 1191 994 1439 701 
Q 1688 409 2113 409 
Q 2538 409 2786 701 
Q 3034 994 3034 1497 
Q 3034 2003 2786 2293 
Q 2538 2584 2113 2584 
z
M 3366 4563 
L 3366 3988 
Q 3128 4100 2886 4159 
Q 2644 4219 2406 4219 
Q 1781 4219 1451 3797 
Q 1122 3375 1075 2522 
Q 1259 2794 1537 2939 
Q 1816 3084 2150 3084 
Q 2853 3084 3261 2657 
Q 3669 2231 3669 1497 
Q 3669 778 3244 343 
Q 2819 -91 2113 -91 
Q 1303 -91 875 529 
Q 447 1150 447 2328 
Q 447 3434 972 4092 
Q 1497 4750 2381 4750 
Q 2619 4750 2861 4703 
Q 3103 4656 3366 4563 
z
" transform="scale(0.015625)"/>
       </defs>
       <use xlink:href="#DejaVuSans-30"/>
       <use xlink:href="#DejaVuSans-2e" transform="translate(63.623047 0)"/>
       <use xlink:href="#DejaVuSans-30" transform="translate(95.410156 0)"/>
       <use xlink:href="#DejaVuSans-36" transform="translate(159.033203 0)"/>
      </g>
     </g>
    </g>
    <g id="xtick_4">
     <g id="line2d_4">
      <g>
       <use xlink:href="#m2a345ac41f" x="429.457694" y="303.64" style="stroke: #000000; stroke-width: 0.8"/>
      </g>
     </g>
     <g id="text_4">
      <!-- 0.08 -->
      <g transform="translate(418.324881 318.238437) scale(0.1 -0.1)">
       <defs>
        <path id="DejaVuSans-38" d="M 2034 2216 
Q 1584 2216 1326 1975 
Q 1069 1734 1069 1313 
Q 1069 891 1326 650 
Q 1584 409 2034 409 
Q 2484 409 2743 651 
Q 3003 894 3003 1313 
Q 3003 1734 2745 1975 
Q 2488 2216 2034 2216 
z
M 1403 2484 
Q 997 2584 770 2862 
Q 544 3141 544 3541 
Q 544 4100 942 4425 
Q 1341 4750 2034 4750 
Q 2731 4750 3128 4425 
Q 3525 4100 3525 3541 
Q 3525 3141 3298 2862 
Q 3072 2584 2669 2484 
Q 3125 2378 3379 2068 
Q 3634 1759 3634 1313 
Q 3634 634 3220 271 
Q 2806 -91 2034 -91 
Q 1263 -91 848 271 
Q 434 634 434 1313 
Q 434 1759 690 2068 
Q 947 2378 1403 2484 
z
M 1172 3481 
Q 1172 3119 1398 2916 
Q 1625 2713 2034 2713 
Q 2441 2713 2670 2916 
Q 2900 3119 2900 3481 
Q 2900 3844 2670 4047 
Q 2441 4250 2034 4250 
Q 1625 4250 1398 4047 
Q 1172 3844 1172 3481 
z
" transform="scale(0.015625)"/>
       </defs>
       <use xlink:href="#DejaVuSans-30"/>
       <use xlink:href="#DejaVuSans-2e" transform="translate(63.623047 0)"/>
       <use xlink:href="#DejaVuSans-30" transform="translate(95.410156 0)"/>
       <use xlink:href="#DejaVuSans-38" transform="translate(159.033203 0)"/>
      </g>
     </g>
    </g>
    <g id="xtick_5">
     <g id="line2d_5">
      <g>
       <use xlink:href="#m2a345ac41f" x="522.07" y="303.64" style="stroke: #000000; stroke-width: 0.8"/>
      </g>
     </g>
     <g id="text_5">
      <!-- 0.10 -->
      <g transform="translate(510.937188 318.238437) scale(0.1 -0.1)">
       <defs>
        <path id="DejaVuSans-31" d="M 794 531 
L 1825 531 
L 1825 4091 
L 703 3866 
L 703 4441 
L 1819 4666 
L 2450 4666 
L 2450 531 
L 3481 531 
L 3481 0 
L 794 0 
L 794 531 
z
" transform="scale(0.015625)"/>
       </defs>
       <use xlink:href="#DejaVuSans-30"/>
       <use xlink:href="#DejaVuSans-2e" transform="translate(63.623047 0)"/>
       <use xlink:href="#DejaVuSans-31" transform="translate(95.410156 0)"/>
       <use xlink:href="#DejaVuSans-30" transform="translate(159.033203 0)"/>
      </g>
     </g>
    </g>
    <g id="text_6">
     <!-- time, s -->
     <g transform="translate(273.576094 331.916562) scale(0.1 -0.1)">
      <defs>
       <path id="DejaVuSans-74" d="M 1172 4494 
L 1172 3500 
L 2356 3500 
L 2356 3053 
L 1172 3053 
L 1172 1153 
Q 1172 725 1289 603 
Q 1406 481 1766 481 
L 2356 481 
L 2356 0 
L 1766 0 
Q 1100 0 847 248 
Q 594 497 594 1153 
L 594 3053 
L 172 3053 
L 172 3500 
L 594 3500 
L 594 4494 
L 1172 4494 
z
" transform="scale(0.015625)"/>
       <path id="DejaVuSans-69" d="M 603 3500 
L 1178 3500 
L 1178 0 
L 603 0 
L 603 3500 
z
M 603 4863 
L 1178 4863 
L 1178 4134 
L 603 4134 
L 603 4863 
z
" transform="scale(0.015625)"/>
       <path id="DejaVuSans-6d" d="M 3328 2828 
Q 3544 3216 3844 3400 
Q 4144 3584 4550 3584 
Q 5097 3584 5394 3201 
Q 5691 2819 5691 2113 
L 5691 0 
L 5113 0 
L 5113 2094 
Q 5113 2597 4934 2840 
Q 4756 3084 4391 3084 
Q 3944 3084 3684 2787 
Q 3425 2491 3425 1978 
L 3425 0 
L 2847 0 
L 2847 2094 
Q 2847 2600 2669 2842 
Q 2491 3084 2119 3084 
Q 1678 3084 1418 2786 
Q 1159 2488 1159 1978 
L 1159 0 
L 581 0 
L 581 3500 
L 1159 3500 
L 1159 2956 
Q 1356 3278 1631 3431 
Q 1906 3584 2284 3584 
Q 2666 3584 2933 3390 
Q 3200 3197 3328 2828 
z
" transform="scale(0.015625)"/>
       <path id="DejaVuSans-65" d="M 3597 1894 
L 3597 1613 
L 953 1613 
Q 991 1019 1311 708 
Q 1631 397 2203 397 
Q 2534 397 2845 478 
Q 3156 559 3463 722 
L 3463 178 
Q 3153 47 2828 -22 
Q 2503 -91 2169 -91 
Q 1331 -91 842 396 
Q 353 884 353 1716 
Q 353 2575 817 3079 
Q 1281 3584 2069 3584 
Q 2775 3584 3186 3129 
Q 3597 2675 3597 1894 
z
M 3022 2063 
Q 3016 2534 2758 2815 
Q 2500 3097 2075 3097 
Q 1594 3097 1305 2825 
Q 1016 2553 972 2059 
L 3022 2063 
z
" transform="scale(0.015625)"/>
       <path id="DejaVuSans-2c" d="M 750 794 
L 1409 794 
L 1409 256 
L 897 -744 
L 494 -744 
L 750 256 
L 750 794 
z
" transform="scale(0.015625)"/>
       <path id="DejaVuSans-20" transform="scale(0.015625)"/>
       <path id="DejaVuSans-73" d="M 2834 3397 
L 2834 2853 
Q 2591 2978 2328 3040 
Q 2066 3103 1784 3103 
Q 1356 3103 1142 2972 
Q 928 2841 928 2578 
Q 928 2378 1081 2264 
Q 1234 2150 1697 2047 
L 1894 2003 
Q 2506 1872 2764 1633 
Q 3022 1394 3022 966 
Q 3022 478 2636 193 
Q 2250 -91 1575 -91 
Q 1294 -91 989 -36 
Q 684 19 347 128 
L 347 722 
Q 666 556 975 473 
Q 1284 391 1588 391 
Q 1994 391 2212 530 
Q 2431 669 2431 922 
Q 2431 1156 2273 1281 
Q 2116 1406 1581 1522 
L 1381 1569 
Q 847 1681 609 1914 
Q 372 2147 372 2553 
Q 372 3047 722 3315 
Q 1072 3584 1716 3584 
Q 2034 3584 2315 3537 
Q 2597 3491 2834 3397 
z
" transform="scale(0.015625)"/>
      </defs>
      <use xlink:href="#DejaVuSans-74"/>
      <use xlink:href="#DejaVuSans-69" transform="translate(39.208984 0)"/>
      <use xlink:href="#DejaVuSans-6d" transform="translate(66.992188 0)"/>
      <use xlink:href="#DejaVuSans-65" transform="translate(164.404297 0)"/>
      <use xlink:href="#DejaVuSans-2c" transform="translate(225.927734 0)"/>
      <use xlink:href="#DejaVuSans-20" transform="translate(257.714844 0)"/>
      <use xlink:href="#DejaVuSans-73" transform="translate(289.501953 0)"/>
     </g>
    </g>
   </g>
   <g id="matplotlib.axis_2">
    <g id="ytick_1">
     <g id="line2d_6">
      <defs>
       <path id="m9c3d805b54" d="M 0 0 
L -3.5 0 
" style="stroke: #000000; stroke-width: 0.8"/>
      </defs>
      <g>
       <use xlink:href="#m9c3d805b54" x="59.24" y="301.497379" style="stroke: #000000; stroke-width: 0.8"/>
      </g>
     </g>
     <g id="text_7">
      <!-- −400 -->
      <g transform="translate(24.772813 305.296598) scale(0.1 -0.1)">
       <defs>
        <path id="DejaVuSans-2212" d="M 678 2272 
L 4684 2272 
L 4684 1741 
L 678 1741 
L 678 2272 
z
" transform="scale(0.015625)"/>
       </defs>
       <use xlink:href="#DejaVuSans-2212"/>
       <use xlink:href="#DejaVuSans-34" transform="translate(83.789062 0)"/>
       <use xlink:href="#DejaVuSans-30" transform="translate(147.412109 0)"/>
       <use xlink:href="#DejaVuSans-30" transform="translate(211.035156 0)"/>
      </g>
     </g>
    </g>
    <g id="ytick_2">
     <g id="line2d_7">
      <g>
       <use xlink:href="#m9c3d805b54" x="59.24" y="266.395374" style="stroke: #000000; stroke-width: 0.8"/>
      </g>
     </g>
     <g id="text_8">
      <!-- −300 -->
      <g transform="translate(24.772813 270.194592) scale(0.1 -0.1)">
       <defs>
        <path id="DejaVuSans-33" d="M 2597 2516 
Q 3050 2419 3304 2112 
Q 3559 1806 3559 1356 
Q 3559 666 3084 287 
Q 2609 -91 1734 -91 
Q 1441 -91 1130 -33 
Q 819 25 488 141 
L 488 750 
Q 750 597 1062 519 
Q 1375 441 1716 441 
Q 2309 441 2620 675 
Q 2931 909 2931 1356 
Q 2931 1769 2642 2001 
Q 2353 2234 1838 2234 
L 1294 2234 
L 1294 2753 
L 1863 2753 
Q 2328 2753 2575 2939 
Q 2822 3125 2822 3475 
Q 2822 3834 2567 4026 
Q 2313 4219 1838 4219 
Q 1578 4219 1281 4162 
Q 984 4106 628 3988 
L 628 4550 
Q 988 4650 1302 4700 
Q 1616 4750 1894 4750 
Q 2613 4750 3031 4423 
Q 3450 4097 3450 3541 
Q 3450 3153 3228 2886 
Q 3006 2619 2597 2516 
z
" transform="scale(0.015625)"/>
       </defs>
       <use xlink:href="#DejaVuSans-2212"/>
       <use xlink:href="#DejaVuSans-33" transform="translate(83.789062 0)"/>
       <use xlink:href="#DejaVuSans-30" transform="translate(147.412109 0)"/>
       <use xlink:href="#DejaVuSans-30" transform="translate(211.035156 0)"/>
      </g>
     </g>
    </g>
    <g id="ytick_3">
     <g id="line2d_8">
      <g>
       <use xlink:href="#m9c3d805b54" x="59.24" y="231.293368" style="stroke: #000000; stroke-width: 0.8"/>
      </g>
     </g>
     <g id="text_9">
      <!-- −200 -->
      <g transform="translate(24.772813 235.092587) scale(0.1 -0.1)">
       <use xlink:href="#DejaVuSans-2212"/>
       <use xlink:href="#DejaVuSans-32" transform="translate(83.789062 0)"/>
       <use xlink:href="#DejaVuSans-30" transform="translate(147.412109 0)"/>
       <use xlink:href="#DejaVuSans-30" transform="translate(211.035156 0)"/>
      </g>
     </g>
    </g>
    <g id="ytick_4">
     <g id="line2d_9">
      <g>
       <use xlink:href="#m9c3d805b54" x="59.24" y="196.191362" style="stroke: #000000; stroke-width: 0.8"/>
      </g>
     </g>
     <g id="text_10">
      <!-- −100 -->
      <g transform="translate(24.772813 199.990581) scale(0.1 -0.1)">
       <use xlink:href="#DejaVuSans-2212"/>
       <use xlink:href="#DejaVuSans-31" transform="translate(83.789062 0)"/>
       <use xlink:href="#DejaVuSans-30" transform="translate(147.412109 0)"/>
       <use xlink:href="#DejaVuSans-30" transform="translate(211.035156 0)"/>
      </g>
     </g>
    </g>
    <g id="ytick_5">
     <g id="line2d_10">
      <g>
       <use xlink:href="#m9c3d805b54" x="59.24" y="161.089357" style="stroke: #000000; stroke-width: 0.8"/>
      </g>
     </g>
     <g id="text_11">
      <!-- 0 -->
      <g transform="translate(45.8775 164.888575) scale(0.1 -0.1)">
       <use xlink:href="#DejaVuSans-30"/>
      </g>
     </g>
    </g>
    <g id="ytick_6">
     <g id="line2d_11">
      <g>
       <use xlink:href="#m9c3d805b54" x="59.24" y="125.987351" style="stroke: #000000; stroke-width: 0.8"/>
      </g>
     </g>
     <g id="text_12">
      <!-- 100 -->
      <g transform="translate(33.1525 129.78657) scale(0.1 -0.1)">
       <use xlink:href="#DejaVuSans-31"/>
       <use xlink:href="#DejaVuSans-30" transform="translate(63.623047 0)"/>
       <use xlink:href="#DejaVuSans-30" transform="translate(127.246094 0)"/>
      </g>
     </g>
    </g>
    <g id="ytick_7">
     <g id="line2d_12">
      <g>
       <use xlink:href="#m9c3d805b54" x="59.24" y="90.885345" style="stroke: #000000; stroke-width: 0.8"/>
      </g>
     </g>
     <g id="text_13">
      <!-- 200 -->
      <g transform="translate(33.1525 94.684564) scale(0.1 -0.1)">
       <use xlink:href="#DejaVuSans-32"/>
       <use xlink:href="#DejaVuSans-30" transform="translate(63.623047 0)"/>
       <use xlink:href="#DejaVuSans-30" transform="translate(127.246094 0)"/>
      </g>
     </g>
    </g>
    <g id="ytick_8">
     <g id="line2d_13">
      <g>
       <use xlink:href="#m9c3d805b54" x="59.24" y="55.78334" style="stroke: #000000; stroke-width: 0.8"/>
      </g>
     </g>
     <g id="text_14">
      <!-- 300 -->
      <g transform="translate(33.1525 59.582558) scale(0.1 -0.1)">
       <use xlink:href="#DejaVuSans-33"/>
       <use xlink:href="#DejaVuSans-30" transform="translate(63.623047 0)"/>
       <use xlink:href="#DejaVuSans-30" transform="translate(127.246094 0)"/>
      </g>
     </g>
    </g>
    <g id="ytick_9">
     <g id="line2d_14">
      <g>
       <use xlink:href="#m9c3d805b54" x="59.24" y="20.681334" style="stroke: #000000; stroke-width: 0.8"/>
      </g>
     </g>
     <g id="text_15">
      <!-- 400 -->
      <g transform="translate(33.1525 24.480553) scale(0.1 -0.1)">
       <use xlink:href="#DejaVuSans-34"/>
       <use xlink:href="#DejaVuSans-30" transform="translate(63.623047 0)"/>
       <use xlink:href="#DejaVuSans-30" transform="translate(127.246094 0)"/>
      </g>
     </g>
    </g>
    <g id="text_16">
     <!-- LCL capacitor voltage, V -->
     <g transform="translate(18.693125 218.0075) rotate(-90) scale(0.1 -0.1)">
      <defs>
       <path id="DejaVuSans-4c" d="M 628 4666 
L 1259 4666 
L 1259 531 
L 3531 531 
L 3531 0 
L 628 0 
L 628 4666 
z
" transform="scale(0.015625)"/>
       <path id="DejaVuSans-43" d="M 4122 4306 
L 4122 3641 
Q 3803 3938 3442 4084 
Q 3081 4231 2675 4231 
Q 1875 4231 1450 3742 
Q 1025 3253 1025 2328 
Q 1025 1406 1450 917 
Q 1875 428 2675 428 
Q 3081 428 3442 575 
Q 3803 722 4122 1019 
L 4122 359 
Q 3791 134 3420 21 
Q 3050 -91 2638 -91 
Q 1578 -91 968 557 
Q 359 1206 359 2328 
Q 359 3453 968 4101 
Q 1578 4750 2638 4750 
Q 3056 4750 3426 4639 
Q 3797 4528 4122 4306 
z
" transform="scale(0.015625)"/>
       <path id="DejaVuSans-63" d="M 3122 3366 
L 3122 2828 
Q 2878 2963 2633 3030 
Q 2388 3097 2138 3097 
Q 1578 3097 1268 2742 
Q 959 2388 959 1747 
Q 959 1106 1268 751 
Q 1578 397 2138 397 
Q 2388 397 2633 464 
Q 2878 531 3122 666 
L 3122 134 
Q 2881 22 2623 -34 
Q 2366 -91 2075 -91 
Q 1284 -91 818 406 
Q 353 903 353 1747 
Q 353 2603 823 3093 
Q 1294 3584 2113 3584 
Q 2378 3584 2631 3529 
Q 2884 3475 3122 3366 
z
" transform="scale(0.015625)"/>
       <path id="DejaVuSans-61" d="M 2194 1759 
Q 1497 1759 1228 1600 
Q 959 1441 959 1056 
Q 959 750 1161 570 
Q 1363 391 1709 391 
Q 2188 391 2477 730 
Q 2766 1069 2766 1631 
L 2766 1759 
L 2194 1759 
z
M 3341 1997 
L 3341 0 
L 2766 0 
L 2766 531 
Q 2569 213 2275 61 
Q 1981 -91 1556 -91 
Q 1019 -91 701 211 
Q 384 513 384 1019 
Q 384 1609 779 1909 
Q 1175 2209 1959 2209 
L 2766 2209 
L 2766 2266 
Q 2766 2663 2505 2880 
Q 2244 3097 1772 3097 
Q 1472 3097 1187 3025 
Q 903 2953 641 2809 
L 641 3341 
Q 956 3463 1253 3523 
Q 1550 3584 1831 3584 
Q 2591 3584 2966 3190 
Q 3341 2797 3341 1997 
z
" transform="scale(0.015625)"/>
       <path id="DejaVuSans-70" d="M 1159 525 
L 1159 -1331 
L 581 -1331 
L 581 3500 
L 1159 3500 
L 1159 2969 
Q 1341 3281 1617 3432 
Q 1894 3584 2278 3584 
Q 2916 3584 3314 3078 
Q 3713 2572 3713 1747 
Q 3713 922 3314 415 
Q 2916 -91 2278 -91 
Q 1894 -91 1617 61 
Q 1341 213 1159 525 
z
M 3116 1747 
Q 3116 2381 2855 2742 
Q 2594 3103 2138 3103 
Q 1681 3103 1420 2742 
Q 1159 2381 1159 1747 
Q 1159 1113 1420 752 
Q 1681 391 2138 391 
Q 2594 391 2855 752 
Q 3116 1113 3116 1747 
z
" transform="scale(0.015625)"/>
       <path id="DejaVuSans-6f" d="M 1959 3097 
Q 1497 3097 1228 2736 
Q 959 2375 959 1747 
Q 959 1119 1226 758 
Q 1494 397 1959 397 
Q 2419 397 2687 759 
Q 2956 1122 2956 1747 
Q 2956 2369 2687 2733 
Q 2419 3097 1959 3097 
z
M 1959 3584 
Q 2709 3584 3137 3096 
Q 3566 2609 3566 1747 
Q 3566 888 3137 398 
Q 2709 -91 1959 -91 
Q 1206 -91 779 398 
Q 353 888 353 1747 
Q 353 2609 779 3096 
Q 1206 3584 1959 3584 
z
" transform="scale(0.015625)"/>
       <path id="DejaVuSans-72" d="M 2631 2963 
Q 2534 3019 2420 3045 
Q 2306 3072 2169 3072 
Q 1681 3072 1420 2755 
Q 1159 2438 1159 1844 
L 1159 0 
L 581 0 
L 581 3500 
L 1159 3500 
L 1159 2956 
Q 1341 3275 1631 3429 
Q 1922 3584 2338 3584 
Q 2397 3584 2469 3576 
Q 2541 3569 2628 3553 
L 2631 2963 
z
" transform="scale(0.015625)"/>
       <path id="DejaVuSans-76" d="M 191 3500 
L 800 3500 
L 1894 563 
L 2988 3500 
L 3597 3500 
L 2284 0 
L 1503 0 
L 191 3500 
z
" transform="scale(0.015625)"/>
       <path id="DejaVuSans-6c" d="M 603 4863 
L 1178 4863 
L 1178 0 
L 603 0 
L 603 4863 
z
" transform="scale(0.015625)"/>
       <path id="DejaVuSans-67" d="M 2906 1791 
Q 2906 2416 2648 2759 
Q 2391 3103 1925 3103 
Q 1463 3103 1205 2759 
Q 947 2416 947 1791 
Q 947 1169 1205 825 
Q 1463 481 1925 481 
Q 2391 481 2648 825 
Q 2906 1169 2906 1791 
z
M 3481 434 
Q 3481 -459 3084 -895 
Q 2688 -1331 1869 -1331 
Q 1566 -1331 1297 -1286 
Q 1028 -1241 775 -1147 
L 775 -588 
Q 1028 -725 1275 -790 
Q 1522 -856 1778 -856 
Q 2344 -856 2625 -561 
Q 2906 -266 2906 331 
L 2906 616 
Q 2728 306 2450 153 
Q 2172 0 1784 0 
Q 1141 0 747 490 
Q 353 981 353 1791 
Q 353 2603 747 3093 
Q 1141 3584 1784 3584 
Q 2172 3584 2450 3431 
Q 2728 3278 2906 2969 
L 2906 3500 
L 3481 3500 
L 3481 434 
z
" transform="scale(0.015625)"/>
       <path id="DejaVuSans-56" d="M 1831 0 
L 50 4666 
L 709 4666 
L 2188 738 
L 3669 4666 
L 4325 4666 
L 2547 0 
L 1831 0 
z
" transform="scale(0.015625)"/>
      </defs>
      <use xlink:href="#DejaVuSans-4c"/>
      <use xlink:href="#DejaVuSans-43" transform="translate(55.712891 0)"/>
      <use xlink:href="#DejaVuSans-4c" transform="translate(125.537109 0)"/>
      <use xlink:href="#DejaVuSans-20" transform="translate(181.25 0)"/>
      <use xlink:href="#DejaVuSans-63" transform="translate(213.037109 0)"/>
      <use xlink:href="#DejaVuSans-61" transform="translate(268.017578 0)"/>
      <use xlink:href="#DejaVuSans-70" transform="translate(329.296875 0)"/>
      <use xlink:href="#DejaVuSans-61" transform="translate(392.773438 0)"/>
      <use xlink:href="#DejaVuSans-63" transform="translate(454.052734 0)"/>
      <use xlink:href="#DejaVuSans-69" transform="translate(509.033203 0)"/>
      <use xlink:href="#DejaVuSans-74" transform="translate(536.816406 0)"/>
      <use xlink:href="#DejaVuSans-6f" transform="translate(576.025391 0)"/>
      <use xlink:href="#DejaVuSans-72" transform="translate(637.207031 0)"/>
      <use xlink:href="#DejaVuSans-20" transform="translate(678.320312 0)"/>
      <use xlink:href="#DejaVuSans-76" transform="translate(710.107422 0)"/>
      <use xlink:href="#DejaVuSans-6f" transform="translate(769.287109 0)"/>
      <use xlink:href="#DejaVuSans-6c" transform="translate(830.46875 0)"/>
      <use xlink:href="#DejaVuSans-74" transform="translate(858.251953 0)"/>
      <use xlink:href="#DejaVuSans-61" transform="translate(897.460938 0)"/>
      <use xlink:href="#DejaVuSans-67" transform="translate(958.740234 0)"/>
      <use xlink:href="#DejaVuSans-65" transform="translate(1022.216797 0)"/>
      <use xlink:href="#DejaVuSans-2c" transform="translate(1083.740234 0)"/>
      <use xlink:href="#DejaVuSans-20" transform="translate(1115.527344 0)"/>
      <use xlink:href="#DejaVuSans-56" transform="translate(1147.314453 0)"/>
     </g>
    </g>
   </g>
   <g id="line2d_15">
    <path d="M 59.24 161.02349 
L 59.471531 160.162826 
L 59.703062 157.319542 
L 60.629185 139.767058 
L 60.860715 137.814212 
L 61.092246 134.287039 
L 62.018369 112.260287 
L 62.481431 111.115214 
L 62.712961 109.347009 
L 63.407554 100.73181 
L 63.870615 98.92515 
L 64.102146 97.279957 
L 65.028269 88.291677 
L 65.491331 83.466804 
L 65.954392 77.514899 
L 66.185923 75.998077 
L 66.648984 74.861036 
L 67.112046 71.845689 
L 67.343577 70.344083 
L 67.575108 69.812649 
L 68.038169 70.697154 
L 68.2697 70.637645 
L 68.964292 68.751161 
L 69.195823 69.006767 
L 69.427354 69.428186 
L 69.658884 69.54116 
L 70.121946 69.105601 
L 70.353477 69.381793 
L 71.2796 72.259452 
L 71.511131 72.85778 
L 71.974192 75.470801 
L 72.437254 78.460518 
L 73.131846 81.871542 
L 74.2895 89.953138 
L 74.752561 93.435516 
L 84.939915 182.574742 
L 87.486753 201.496178 
L 89.338999 214.042296 
L 92.117369 230.981918 
L 94.664207 244.605743 
L 96.516453 253.25707 
L 98.368699 260.687845 
L 99.757884 265.358597 
L 100.915538 268.590315 
L 102.073192 271.176866 
L 102.999315 272.74907 
L 103.925438 273.860384 
L 104.62003 274.403629 
L 105.314622 274.665166 
L 106.009215 274.675342 
L 106.703807 274.403722 
L 107.398399 273.877698 
L 108.092991 273.074147 
L 109.019115 271.605606 
L 109.945238 269.672629 
L 111.102891 266.628005 
L 112.260545 262.913182 
L 113.64973 257.613765 
L 115.038914 251.453735 
L 116.65963 243.267938 
L 118.511876 232.733423 
L 120.595653 219.584181 
L 123.142491 202.021216 
L 126.615453 176.293825 
L 134.487499 117.28607 
L 137.034337 100.089406 
L 139.118114 87.357677 
L 140.97036 77.274593 
L 142.591076 69.534948 
L 144.211791 62.903329 
L 145.600975 58.16109 
L 146.758629 54.905486 
L 147.916283 52.304005 
L 148.842406 50.704471 
L 149.768529 49.53991 
L 150.463122 48.95468 
L 151.157714 48.617955 
L 151.852306 48.530446 
L 152.546898 48.692361 
L 153.241491 49.103322 
L 153.936083 49.762449 
L 154.862206 51.024722 
L 155.788329 52.720604 
L 156.714452 54.843492 
L 157.872106 58.08477 
L 159.02976 61.96035 
L 160.418944 67.414696 
L 162.03966 74.824611 
L 163.660375 83.276381 
L 165.512621 94.080544 
L 167.827929 109.052547 
L 170.606298 128.68136 
L 174.542321 158.297121 
L 180.09906 199.998504 
L 182.877429 219.174089 
L 185.192736 233.625177 
L 187.044982 243.926887 
L 188.665698 251.882456 
L 190.286413 258.748941 
L 191.675598 263.704287 
L 192.833252 267.143591 
L 193.990905 269.932525 
L 194.917029 271.683613 
L 195.843152 273.000284 
L 196.769275 273.877248 
L 197.463867 274.244205 
L 198.158459 274.360926 
L 198.853052 274.227105 
L 199.547644 273.842988 
L 200.242236 273.209378 
L 201.168359 271.97888 
L 202.094482 270.312032 
L 203.020605 268.215277 
L 204.178259 265.00233 
L 205.335913 261.150016 
L 206.725098 255.716586 
L 208.345813 248.320988 
L 209.966528 239.872278 
L 211.818774 229.057478 
L 214.134082 215.416554 
L 214.365613 215.68133 
L 214.597144 216.331963 
L 214.828674 216.417793 
L 215.060205 215.158344 
L 215.754797 207.654502 
L 215.986328 206.732892 
L 216.217859 206.343507 
L 216.44939 205.355175 
L 216.912451 199.715125 
L 217.375513 193.52787 
L 218.764697 182.324723 
L 220.385413 166.316284 
L 221.080005 158.584679 
L 221.543067 154.354257 
L 222.237659 149.802692 
L 223.163782 141.152644 
L 224.089905 134.219803 
L 225.247559 126.15444 
L 225.942151 122.40039 
L 226.405213 119.86978 
L 227.099805 115.594267 
L 228.025928 111.045229 
L 228.72052 107.281969 
L 229.878174 101.799535 
L 231.498889 93.887323 
L 232.425013 88.966273 
L 237.287159 62.900973 
L 238.907874 55.41123 
L 240.065528 50.949862 
L 241.223182 47.479156 
L 242.149305 45.518249 
L 242.843897 44.509354 
L 243.538489 43.894834 
L 244.001551 43.687105 
L 244.464612 43.699074 
L 245.159205 43.958952 
L 245.622266 44.357804 
L 246.548389 45.584649 
L 247.242981 46.889119 
L 248.169105 49.022113 
L 249.326758 52.328242 
L 250.715943 57.049692 
L 252.336658 63.409336 
L 254.188904 71.647123 
L 256.272681 82.060941 
L 258.124927 92.405844 
L 260.208704 105.35583 
L 262.292481 119.654115 
L 265.07085 140.437734 
L 273.637489 206.122347 
L 275.952796 221.695945 
L 278.036573 234.383265 
L 279.888819 244.484447 
L 281.741066 253.367312 
L 283.361781 260.043168 
L 284.750965 264.876372 
L 285.908619 268.231252 
L 287.066273 270.939332 
L 287.992396 272.62035 
L 288.918519 273.856303 
L 289.613112 274.485593 
L 290.307704 274.856054 
L 291.002296 274.966226 
L 291.696888 274.814905 
L 292.391481 274.402643 
L 293.086073 273.730338 
L 294.012196 272.433678 
L 294.938319 270.686421 
L 295.864442 268.498643 
L 297.022096 265.163139 
L 298.17975 261.185744 
L 299.568934 255.60871 
L 301.18965 248.065975 
L 303.041896 238.197994 
L 305.125673 225.688999 
L 307.44098 210.317232 
L 310.21935 190.308524 
L 314.849965 154.97694 
L 319.24905 121.895434 
L 322.027419 102.639294 
L 324.342726 88.165289 
L 326.194972 77.869034 
L 327.815688 69.930726 
L 329.436403 63.089383 
L 330.825588 58.159858 
L 331.983242 54.74436 
L 333.140895 51.981134 
L 334.067019 50.252035 
L 334.993142 48.958754 
L 335.687734 48.278137 
L 336.382326 47.847427 
L 337.076918 47.667724 
L 337.771511 47.739559 
L 338.466103 48.062886 
L 339.160695 48.63708 
L 339.855288 49.460932 
L 340.781411 50.944582 
L 341.707534 52.862986 
L 342.865188 55.860578 
L 344.022841 59.506701 
L 345.412026 64.705683 
L 346.801211 70.758637 
L 348.421926 78.826834 
L 350.274172 89.25353 
L 352.357949 102.32278 
L 354.904787 119.852845 
L 358.146218 143.859267 
L 366.712856 208.142533 
L 368.333572 218.951494 
L 368.565103 219.826567 
L 368.796633 219.966989 
L 369.491226 218.155327 
L 369.722756 218.247406 
L 370.185818 219.215242 
L 370.417349 219.416076 
L 370.648879 219.459513 
L 370.88041 219.725174 
L 371.111941 220.519834 
L 372.269595 227.755018 
L 372.964187 231.49785 
L 373.427249 232.772431 
L 373.89031 234.216014 
L 375.511026 242.79302 
L 376.668679 250.353888 
L 377.594802 255.113843 
L 380.373172 266.719589 
L 381.530825 269.786339 
L 382.225418 270.927845 
L 382.92001 271.787101 
L 383.846133 272.258848 
L 384.309195 272.396156 
L 384.772256 272.182572 
L 385.698379 271.479284 
L 386.392971 270.455512 
L 387.319095 268.757478 
L 388.476748 266.00628 
L 389.865933 261.857911 
L 391.486648 255.97933 
L 393.107364 249.146692 
L 394.95961 240.22491 
L 396.811856 230.18246 
L 398.895633 217.553404 
L 401.21094 202.061857 
L 404.22084 180.158996 
L 413.713602 109.49035 
L 416.028909 94.428337 
L 418.112686 82.255033 
L 419.964932 72.726201 
L 421.585648 65.503492 
L 422.974832 60.211262 
L 424.364017 55.799681 
L 425.521671 52.826392 
L 426.679325 50.51343 
L 427.605448 49.149363 
L 428.531571 48.224878 
L 429.226163 47.822009 
L 429.920755 47.670109 
L 430.615348 47.769017 
L 431.30994 48.119318 
L 432.004532 48.71973 
L 432.930655 49.907817 
L 433.856778 51.534176 
L 434.782901 53.592243 
L 435.940555 56.759741 
L 437.098209 60.569592 
L 438.487394 65.955701 
L 440.108109 73.300928 
L 441.728824 81.704492 
L 443.581071 92.474417 
L 445.664847 105.873984 
L 448.211686 123.720511 
L 451.684647 149.750441 
L 458.862101 203.93583 
L 461.408939 221.404319 
L 463.724247 235.752764 
L 465.576493 245.933459 
L 467.197209 253.756584 
L 468.817924 260.467737 
L 470.207109 265.273332 
L 471.364762 268.577271 
L 472.522416 271.22223 
L 473.448539 272.852607 
L 474.374662 274.04423 
L 475.069255 274.6471 
L 475.763847 274.999117 
L 476.458439 275.099479 
L 477.153032 274.947945 
L 477.847624 274.544828 
L 478.542216 273.891002 
L 479.468339 272.631786 
L 480.394462 270.934375 
L 481.320585 268.8054 
L 482.478239 265.550152 
L 483.635893 261.653659 
L 485.025078 256.16531 
L 486.645793 248.703918 
L 488.266508 240.188646 
L 490.118754 229.298271 
L 492.434062 214.200207 
L 495.212431 194.397684 
L 499.148454 164.506143 
L 504.705193 122.391952 
L 507.483562 103.014958 
L 509.798869 88.404553 
L 511.651116 77.983082 
L 513.271831 69.929419 
L 514.892546 62.971819 
L 516.281731 57.944359 
L 517.439385 54.449394 
L 518.597039 51.608966 
L 519.523162 49.819746 
L 520.449285 48.467694 
L 521.375408 47.558121 
L 522.07 47.16853 
L 522.07 47.16853 
" clip-path="url(#p71adc32484)" style="fill: none; stroke: #1f77b4; stroke-linecap: square"/>
   </g>
   <g id="line2d_16">
    <path d="M 59.24 161.121394 
L 59.471531 161.538781 
L 59.703062 162.904184 
L 60.397654 169.675549 
L 61.092246 172.043309 
L 61.786838 178.704449 
L 62.018369 179.065412 
L 62.712961 177.046798 
L 63.176023 177.733735 
L 63.407554 177.449284 
L 64.102146 174.963354 
L 64.565208 174.499142 
L 65.028269 173.028864 
L 65.2598 172.327453 
L 65.491331 172.04846 
L 65.722861 171.976657 
L 65.954392 171.590742 
L 66.185923 170.533217 
L 67.112046 164.735708 
L 67.575108 161.811342 
L 68.501231 154.235527 
L 68.964292 150.985996 
L 73.131846 113.896077 
L 74.521031 101.679376 
L 75.910215 90.228784 
L 77.067869 81.578512 
L 78.688584 71.261798 
L 79.846238 65.004297 
L 81.235423 58.843262 
L 82.624607 54.079029 
L 83.782261 51.019248 
L 85.171446 48.426137 
L 86.3291 47.04548 
L 87.023692 46.577865 
L 87.949815 46.183484 
L 88.875938 46.197957 
L 89.57053 46.427079 
L 90.728184 47.20461 
L 91.885838 48.503812 
L 92.811961 49.923908 
L 93.738084 51.639028 
L 94.895738 54.261295 
L 96.284922 58.133065 
L 97.674107 62.809264 
L 99.063292 68.308911 
L 100.684007 75.76926 
L 102.304722 84.316257 
L 104.156968 95.311041 
L 106.240745 109.038437 
L 109.019115 129.050379 
L 113.64973 164.565608 
L 118.048814 197.768205 
L 120.827184 217.113387 
L 123.142491 231.70714 
L 124.994737 242.138667 
L 126.846983 251.2922 
L 128.467699 258.141995 
L 129.856883 263.084974 
L 131.014537 266.514968 
L 132.172191 269.29505 
L 133.098314 271.039038 
L 134.024437 272.348457 
L 134.95056 273.218219 
L 135.645153 273.579577 
L 136.339745 273.690826 
L 137.034337 273.551487 
L 137.728929 273.162143 
L 138.423522 272.523495 
L 139.349645 271.287072 
L 140.275768 269.615437 
L 141.201891 267.51533 
L 142.359545 264.300935 
L 143.517199 260.450814 
L 144.906383 255.025612 
L 146.527099 247.648346 
L 148.147814 239.228142 
L 150.00006 228.458732 
L 152.315368 213.527464 
L 155.093737 193.941768 
L 159.02976 164.372173 
L 164.586498 122.70015 
L 167.364867 103.522476 
L 169.680175 89.060748 
L 171.532421 78.744515 
L 173.153137 70.77177 
L 174.773852 63.883911 
L 176.163037 58.906929 
L 177.32069 55.447305 
L 178.478344 52.636034 
L 179.404467 50.86568 
L 180.33059 49.528557 
L 181.256713 48.630016 
L 181.951306 48.246178 
L 182.645898 48.112015 
L 183.34049 48.227866 
L 184.035083 48.593521 
L 184.729675 49.208218 
L 185.655798 50.412861 
L 186.581921 52.05322 
L 187.508044 54.122955 
L 188.665698 57.301548 
L 189.823352 61.119064 
L 191.212536 66.510464 
L 192.833252 73.857139 
L 194.453967 82.257635 
L 196.306213 93.018972 
L 198.38999 106.402698 
L 200.936828 124.220637 
L 204.40979 150.195139 
L 211.587244 204.215318 
L 214.134082 222.819962 
L 214.828674 234.238781 
L 215.291736 240.728841 
L 216.912451 256.5833 
L 217.375513 258.717281 
L 218.533167 266.737524 
L 219.45929 274.289563 
L 220.385413 278.639865 
L 220.848474 279.959168 
L 221.774597 280.677163 
L 222.237659 281.299052 
L 222.932251 281.71108 
L 223.395313 282.217018 
L 223.626843 282.285733 
L 224.089905 281.951089 
L 225.016028 281.016091 
L 226.405213 278.211856 
L 227.331336 276.371692 
L 228.025928 275.184925 
L 228.952051 273.454751 
L 231.267359 269.467293 
L 233.582666 266.345952 
L 235.434912 263.068892 
L 236.361036 260.987609 
L 237.518689 257.601 
L 238.676343 253.324712 
L 239.833997 248.128527 
L 240.991651 242.027127 
L 242.612366 232.125596 
L 244.464612 219.324063 
L 247.474512 196.683882 
L 253.262781 153.046938 
L 258.587989 114.897317 
L 261.82942 93.053568 
L 263.913197 80.334158 
L 265.765443 70.379884 
L 267.386158 62.965107 
L 268.775343 57.688927 
L 269.932996 54.095372 
L 271.09065 51.246644 
L 272.016773 49.503774 
L 272.942896 48.231189 
L 273.637489 47.580667 
L 274.332081 47.185904 
L 275.026673 47.0423 
L 275.721266 47.145193 
L 276.415858 47.490129 
L 277.11045 48.072809 
L 278.036573 49.213079 
L 278.962696 50.761663 
L 279.888819 52.711777 
L 281.046473 55.706319 
L 282.204127 59.311019 
L 283.593312 64.42828 
L 284.982496 70.388538 
L 286.603212 78.365257 
L 288.455458 88.739927 
L 290.539235 101.832026 
L 293.086073 119.479034 
L 296.327504 143.662875 
L 304.19955 203.12974 
L 306.977919 222.084658 
L 309.293227 236.292419 
L 311.145473 246.36389 
L 312.766188 254.088348 
L 314.386903 260.691704 
L 315.776088 265.39373 
L 316.933742 268.602013 
L 318.091396 271.142616 
L 319.017519 272.683699 
L 319.943642 273.781629 
L 320.638234 274.311922 
L 321.332826 274.589919 
L 322.027419 274.615342 
L 322.722011 274.388499 
L 323.416603 273.91025 
L 324.111196 273.182002 
L 325.037319 271.825524 
L 325.963442 270.034062 
L 327.121096 267.194644 
L 328.278749 263.705407 
L 329.667934 258.691142 
L 331.057119 252.816192 
L 332.677834 244.942627 
L 334.53008 234.71472 
L 336.613857 221.831382 
L 338.929165 206.107094 
L 341.939065 184.069883 
L 351.894887 109.652259 
L 354.210195 94.499945 
L 356.293972 82.252742 
L 358.146218 72.677081 
L 359.766933 65.434974 
L 361.156118 60.142182 
L 362.545303 55.743801 
L 363.702956 52.790227 
L 364.86061 50.503404 
L 365.786733 49.163651 
L 366.712856 48.265042 
L 367.407449 47.882779 
L 367.87051 47.768387 
L 368.102041 47.804325 
L 368.333572 48.218506 
L 368.565103 49.617101 
L 369.028164 56.384147 
L 369.491226 62.532678 
L 369.722756 63.040724 
L 369.954287 62.675343 
L 370.185818 63.006774 
L 370.417349 64.915004 
L 370.88041 70.210579 
L 371.111941 70.752618 
L 371.806533 66.521172 
L 372.038064 66.889831 
L 372.501126 69.435219 
L 372.732656 70.061284 
L 373.427249 70.359146 
L 374.353372 71.557947 
L 374.816433 73.074907 
L 375.047964 73.39256 
L 375.279495 73.033948 
L 375.511026 72.340117 
L 375.742556 72.013035 
L 375.974087 72.54649 
L 376.668679 75.758572 
L 376.90021 75.740655 
L 377.131741 75.525313 
L 377.363272 75.742004 
L 377.826333 77.901543 
L 378.289395 79.825522 
L 378.752456 80.899096 
L 379.447049 83.685892 
L 380.141641 86.806366 
L 380.836233 90.676273 
L 381.530825 94.008124 
L 382.456948 100.029115 
L 382.92001 102.441692 
L 386.161441 125.155768 
L 395.422671 192.225748 
L 398.895633 216.12187 
L 401.442471 232.183459 
L 403.294717 242.724264 
L 405.146963 251.982186 
L 406.767679 258.905598 
L 408.156863 263.873217 
L 409.314517 267.295208 
L 410.472171 270.042928 
L 411.398294 271.742891 
L 412.324417 272.995302 
L 413.01901 273.649358 
L 413.713602 274.042884 
L 414.408194 274.193733 
L 415.102786 274.086815 
L 415.797379 273.737162 
L 416.491971 273.133709 
L 417.418094 271.952917 
L 418.344217 270.336929 
L 419.27034 268.295378 
L 420.427994 265.159243 
L 421.585648 261.388224 
L 422.974832 256.054872 
L 424.595548 248.77531 
L 426.216263 240.436875 
L 428.068509 229.735901 
L 430.152286 216.402413 
L 432.699125 198.620166 
L 436.172086 172.655697 
L 443.34954 118.551302 
L 446.127909 99.583172 
L 448.211686 86.736805 
L 450.063932 76.543705 
L 451.684647 68.70408 
L 453.305363 61.971671 
L 454.694547 57.144508 
L 455.852201 53.820531 
L 457.009855 51.153902 
L 457.935978 49.50516 
L 458.862101 48.294366 
L 459.556693 47.676664 
L 460.251286 47.309463 
L 460.945878 47.193622 
L 461.64047 47.329412 
L 462.335063 47.716574 
L 463.029655 48.354269 
L 463.955778 49.591788 
L 464.881901 51.267378 
L 465.808024 53.374512 
L 466.965678 56.602603 
L 468.123332 60.472297 
L 469.512516 65.929264 
L 471.133232 73.35558 
L 472.753947 81.837973 
L 474.606193 92.694137 
L 476.921501 107.755488 
L 479.69987 127.524237 
L 483.635893 157.3893 
L 489.424162 201.188486 
L 492.202531 220.443184 
L 494.517839 234.91863 
L 496.370085 245.212751 
L 497.9908 253.1425 
L 499.611516 259.966059 
L 501.0007 264.871763 
L 502.158354 268.261227 
L 503.316008 270.993158 
L 504.242131 272.693859 
L 505.168254 273.956226 
L 505.862846 274.612289 
L 506.557439 275.017505 
L 507.252031 275.170976 
L 507.946623 275.072358 
L 508.641216 274.721868 
L 509.335808 274.120278 
L 510.0304 273.268916 
L 510.956523 271.74856 
L 511.882646 269.793542 
L 513.0403 266.750383 
L 514.197954 263.058863 
L 515.587139 257.805386 
L 516.976323 251.697543 
L 518.597039 243.56434 
L 520.449285 233.061731 
L 522.07 222.939471 
L 522.07 222.939471 
" clip-path="url(#p71adc32484)" style="fill: none; stroke: #ff7f0e; stroke-linecap: square"/>
   </g>
   <g id="line2d_17">
    <path d="M 59.24 161.123186 
L 59.471531 161.566463 
L 59.703062 163.044345 
L 60.629185 173.02519 
L 60.860715 174.533778 
L 61.092246 176.937722 
L 62.018369 191.94237 
L 62.712961 196.874263 
L 63.639085 206.967473 
L 64.102146 211.024759 
L 67.575108 251.644079 
L 68.501231 259.114394 
L 69.195823 265.284245 
L 70.121946 272.555493 
L 70.816538 277.107593 
L 71.742661 282.512455 
L 73.363377 287.943565 
L 73.826438 288.665083 
L 74.521031 290.056422 
L 74.752561 290.203453 
L 75.910215 290.235874 
L 76.373277 289.606578 
L 77.2994 288.083116 
L 78.688584 284.141152 
L 80.077769 278.719492 
L 81.698484 270.815089 
L 84.245323 256.284551 
L 87.255223 237.003688 
L 91.885838 205.112233 
L 96.053392 174.627158 
L 105.314622 105.822992 
L 107.62993 90.783743 
L 109.482176 80.05032 
L 111.102891 71.767031 
L 112.723607 64.625555 
L 114.112791 59.472978 
L 115.270445 55.890804 
L 116.428099 52.972398 
L 117.354222 51.123637 
L 118.280345 49.712633 
L 119.206468 48.74155 
L 119.901061 48.302884 
L 120.595653 48.113413 
L 121.290245 48.172242 
L 121.984837 48.479474 
L 122.67943 49.033577 
L 123.374022 49.833674 
L 124.300145 51.279304 
L 125.226268 53.153312 
L 126.383922 56.087007 
L 127.541576 59.661666 
L 128.93076 64.767984 
L 130.319945 70.724166 
L 131.94066 78.678622 
L 133.792906 88.978878 
L 135.876683 101.91443 
L 138.423522 119.29529 
L 141.664952 143.133285 
L 150.231591 207.111522 
L 152.778429 224.09224 
L 154.862206 236.615041 
L 156.714452 246.492586 
L 158.335168 254.039062 
L 159.724352 259.619903 
L 161.113537 264.328896 
L 162.271191 267.556677 
L 163.428844 270.129932 
L 164.354967 271.706458 
L 165.281091 272.84759 
L 165.975683 273.41492 
L 166.670275 273.733482 
L 167.364867 273.80255 
L 168.05946 273.621952 
L 168.754052 273.192066 
L 169.448644 272.513818 
L 170.374767 271.225783 
L 171.30089 269.503911 
L 172.227014 267.354913 
L 173.384667 264.080945 
L 174.542321 260.17278 
L 175.931506 254.679702 
L 177.552221 247.225414 
L 179.172936 238.730464 
L 181.025183 227.878787 
L 183.34049 212.850753 
L 186.118859 193.160755 
L 190.286413 161.699239 
L 195.611621 121.707994 
L 198.38999 102.521216 
L 200.705298 88.072254 
L 202.557544 77.779864 
L 204.178259 69.83794 
L 205.798974 62.990073 
L 207.188159 58.054473 
L 208.345813 54.634157 
L 209.503467 51.866379 
L 210.42959 50.133682 
L 211.355713 48.836618 
L 212.050305 48.152901 
L 212.744897 47.718746 
L 213.671021 47.444485 
L 213.902551 46.868805 
L 214.134082 45.031554 
L 214.597144 36.832441 
L 215.060205 30.250107 
L 215.291736 29.919776 
L 215.523267 30.369751 
L 215.754797 29.96606 
L 216.44939 24.110909 
L 216.68092 24.706463 
L 217.375513 31.02292 
L 217.607044 31.280018 
L 217.838574 30.93804 
L 218.070105 30.817927 
L 218.533167 31.791284 
L 219.227759 33.190341 
L 220.616943 39.699897 
L 221.543067 48.56432 
L 222.006128 50.583483 
L 222.46919 54.346842 
L 222.932251 58.633926 
L 223.858374 65.002925 
L 225.247559 76.609619 
L 225.942151 81.864177 
L 226.636743 87.206 
L 227.331336 92.351969 
L 228.025928 97.037916 
L 228.72052 102.153156 
L 229.646643 108.265672 
L 231.498889 120.215153 
L 232.425013 126.342308 
L 236.129505 152.72489 
L 239.139405 177.447564 
L 242.380835 204.52047 
L 244.464612 220.244933 
L 246.316858 232.504731 
L 247.706043 240.460946 
L 249.095228 247.385981 
L 250.484412 253.350457 
L 251.873597 258.456906 
L 253.262781 262.809117 
L 254.651966 266.477857 
L 255.80962 269.033248 
L 256.967274 271.127244 
L 258.124927 272.722298 
L 259.051051 273.601358 
L 259.745643 274.015142 
L 260.440235 274.201582 
L 261.134827 274.149827 
L 261.82942 273.846295 
L 262.524012 273.283578 
L 263.218604 272.451023 
L 264.144727 270.914873 
L 265.07085 268.888936 
L 266.228504 265.664939 
L 267.386158 261.697206 
L 268.775343 256.011942 
L 270.164527 249.404578 
L 271.785243 240.674346 
L 273.86902 228.103039 
L 276.415858 211.148333 
L 279.425758 189.512498 
L 284.056373 154.378655 
L 288.918519 117.884358 
L 291.465358 100.307981 
L 293.549135 87.289188 
L 295.401381 76.999145 
L 297.022096 69.120354 
L 298.642811 62.38173 
L 300.031996 57.563807 
L 301.18965 54.249602 
L 302.347304 51.588626 
L 303.273427 49.93846 
L 304.19955 48.719286 
L 304.894142 48.09024 
L 305.588734 47.70729 
L 306.283327 47.571428 
L 306.977919 47.683283 
L 307.672511 48.043076 
L 308.367104 48.650594 
L 309.293227 49.844701 
L 310.21935 51.474864 
L 311.145473 53.536255 
L 312.303127 56.709047 
L 313.46078 60.527715 
L 314.849965 65.931118 
L 316.47068 73.306291 
L 318.091396 81.748002 
L 319.943642 92.565434 
L 322.027419 106.013434 
L 324.574257 123.897817 
L 328.278749 151.702295 
L 334.993142 202.339324 
L 337.771511 221.395679 
L 339.855288 234.322964 
L 341.707534 244.59421 
L 343.328249 252.504979 
L 344.948964 259.310195 
L 346.338149 264.200965 
L 347.495803 267.57896 
L 348.653457 270.30076 
L 349.57958 271.994633 
L 350.505703 273.251552 
L 351.200295 273.904561 
L 351.894887 274.307689 
L 352.58948 274.460098 
L 353.284072 274.361493 
L 353.978664 274.01212 
L 354.673257 273.412768 
L 355.59938 272.227153 
L 356.525503 270.604203 
L 357.451626 268.550259 
L 358.60928 265.389119 
L 359.766933 261.586499 
L 361.156118 256.209607 
L 362.776833 248.87534 
L 364.397549 240.482726 
L 366.249795 229.725584 
L 368.102041 217.859708 
L 368.565103 213.824402 
L 369.491226 202.580065 
L 369.722756 201.97994 
L 369.954287 201.854221 
L 370.185818 201.046054 
L 370.648879 195.97244 
L 370.88041 193.332317 
L 371.111941 191.995618 
L 371.343472 191.96295 
L 371.575003 192.273266 
L 371.806533 191.775668 
L 372.269595 187.331525 
L 372.732656 182.779954 
L 373.195718 180.86049 
L 373.658779 179.252228 
L 374.121841 176.771958 
L 375.279495 168.955856 
L 375.511026 168.134933 
L 375.742556 166.79689 
L 376.205618 161.857665 
L 376.668679 157.15561 
L 377.594802 151.524098 
L 378.520925 143.555467 
L 379.447049 136.596211 
L 382.688479 110.561826 
L 383.383072 105.49425 
L 384.540725 97.500298 
L 385.92991 88.687835 
L 386.856033 83.618211 
L 388.93981 73.266424 
L 390.097464 68.431269 
L 391.255118 64.19229 
L 392.412771 60.448278 
L 394.033487 56.10271 
L 395.191141 53.617459 
L 396.580325 51.406937 
L 397.737979 50.179458 
L 398.664102 49.673062 
L 399.127164 49.554074 
L 399.821756 49.623464 
L 400.516348 49.877401 
L 401.21094 50.42614 
L 401.905533 51.179988 
L 402.831656 52.614842 
L 403.757779 54.493147 
L 404.915433 57.446368 
L 406.073087 61.08063 
L 407.462271 66.308058 
L 408.851456 72.418001 
L 410.472171 80.574229 
L 412.324417 91.104846 
L 414.408194 104.252655 
L 416.955033 121.828539 
L 420.427994 147.557525 
L 428.30004 206.535207 
L 430.846878 223.714075 
L 432.930655 236.421215 
L 434.782901 246.472789 
L 436.403617 254.175274 
L 438.024332 260.760273 
L 439.413517 265.45484 
L 440.571171 268.6652 
L 441.728824 271.216305 
L 442.654947 272.771822 
L 443.581071 273.889373 
L 444.275663 274.437305 
L 444.970255 274.73502 
L 445.664847 274.781875 
L 446.35944 274.577687 
L 447.054032 274.122886 
L 447.748624 273.41841 
L 448.674747 272.093433 
L 449.60087 270.33234 
L 450.758524 267.528321 
L 451.916178 264.070657 
L 453.305363 259.08844 
L 454.694547 253.23906 
L 456.315263 245.387771 
L 458.167509 235.17691 
L 460.251286 222.303977 
L 462.566593 206.581209 
L 465.576493 184.526919 
L 475.995378 106.655326 
L 478.310685 91.684891 
L 480.394462 79.65323 
L 482.246708 70.307465 
L 483.867424 63.293169 
L 485.256608 58.2131 
L 486.414262 54.671892 
L 487.571916 51.783394 
L 488.498039 49.954636 
L 489.424162 48.56228 
L 490.350285 47.611821 
L 491.044877 47.191295 
L 491.73947 47.022421 
L 492.434062 47.105579 
L 493.128654 47.440591 
L 493.823247 48.026724 
L 494.517839 48.862688 
L 495.443962 50.362668 
L 496.370085 52.29757 
L 497.527739 55.316083 
L 498.685393 58.983667 
L 500.074577 64.209597 
L 501.463762 70.291437 
L 503.084477 78.396618 
L 504.936723 88.870748 
L 507.0205 102.000288 
L 509.567339 119.612884 
L 512.808769 143.73391 
L 521.375408 208.334051 
L 522.07 213.160069 
L 522.07 213.160069 
" clip-path="url(#p71adc32484)" style="fill: none; stroke: #2ca02c; stroke-linecap: square"/>
   </g>
   <g id="patch_3">
    <path d="M 59.24 303.64 
L 59.24 10.8 
" style="fill: none; stroke: #000000; stroke-width: 0.8; stroke-linejoin: miter; stroke-linecap: square"/>
   </g>
   <g id="patch_4">
    <path d="M 522.07 303.64 
L 522.07 10.8 
" style="fill: none; stroke: #000000; stroke-width: 0.8; stroke-linejoin: miter; stroke-linecap: square"/>
   </g>
   <g id="patch_5">
    <path d="M 59.24 303.64 
L 522.07 303.64 
" style="fill: none; stroke: #000000; stroke-width: 0.8; stroke-linejoin: miter; stroke-linecap: square"/>
   </g>
   <g id="patch_6">
    <path d="M 59.24 10.8 
L 522.07 10.8 
" style="fill: none; stroke: #000000; stroke-width: 0.8; stroke-linejoin: miter; stroke-linecap: square"/>
   </g>
   <g id="legend_1">
    <g id="patch_7">
     <path d="M 390.860625 78.346875 
L 515.07 78.346875 
Q 517.07 78.346875 517.07 76.346875 
L 517.07 17.8 
Q 517.07 15.8 515.07 15.8 
L 390.860625 15.8 
Q 388.860625 15.8 388.860625 17.8 
L 388.860625 76.346875 
Q 388.860625 78.346875 390.860625 78.346875 
z
" style="fill: #ffffff; opacity: 0.8; stroke: #cccccc; stroke-linejoin: miter"/>
    </g>
    <g id="line2d_18">
     <path d="M 392.860625 23.898438 
L 402.860625 23.898438 
L 412.860625 23.898438 
" style="fill: none; stroke: #1f77b4; stroke-linecap: square"/>
    </g>
    <g id="text_17">
     <!-- lcl1.capacitor_v[0] -->
     <g transform="translate(420.860625 27.398438) scale(0.1 -0.1)">
      <defs>
       <path id="DejaVuSans-5f" d="M 3263 -1063 
L 3263 -1509 
L -63 -1509 
L -63 -1063 
L 3263 -1063 
z
" transform="scale(0.015625)"/>
       <path id="DejaVuSans-5b" d="M 550 4863 
L 1875 4863 
L 1875 4416 
L 1125 4416 
L 1125 -397 
L 1875 -397 
L 1875 -844 
L 550 -844 
L 550 4863 
z
" transform="scale(0.015625)"/>
       <path id="DejaVuSans-5d" d="M 1947 4863 
L 1947 -844 
L 622 -844 
L 622 -397 
L 1369 -397 
L 1369 4416 
L 622 4416 
L 622 4863 
L 1947 4863 
z
" transform="scale(0.015625)"/>
      </defs>
      <use xlink:href="#DejaVuSans-6c"/>
      <use xlink:href="#DejaVuSans-63" transform="translate(27.783203 0)"/>
      <use xlink:href="#DejaVuSans-6c" transform="translate(82.763672 0)"/>
      <use xlink:href="#DejaVuSans-31" transform="translate(110.546875 0)"/>
      <use xlink:href="#DejaVuSans-2e" transform="translate(174.169922 0)"/>
      <use xlink:href="#DejaVuSans-63" transform="translate(205.957031 0)"/>
      <use xlink:href="#DejaVuSans-61" transform="translate(260.9375 0)"/>
      <use xlink:href="#DejaVuSans-70" transform="translate(322.216797 0)"/>
      <use xlink:href="#DejaVuSans-61" transform="translate(385.693359 0)"/>
      <use xlink:href="#DejaVuSans-63" transform="translate(446.972656 0)"/>
      <use xlink:href="#DejaVuSans-69" transform="translate(501.953125 0)"/>
      <use xlink:href="#DejaVuSans-74" transform="translate(529.736328 0)"/>
      <use xlink:href="#DejaVuSans-6f" transform="translate(568.945312 0)"/>
      <use xlink:href="#DejaVuSans-72" transform="translate(630.126953 0)"/>
      <use xlink:href="#DejaVuSans-5f" transform="translate(671.240234 0)"/>
      <use xlink:href="#DejaVuSans-76" transform="translate(721.240234 0)"/>
      <use xlink:href="#DejaVuSans-5b" transform="translate(780.419922 0)"/>
      <use xlink:href="#DejaVuSans-30" transform="translate(819.433594 0)"/>
      <use xlink:href="#DejaVuSans-5d" transform="translate(883.056641 0)"/>
     </g>
    </g>
    <g id="line2d_19">
     <path d="M 392.860625 38.854688 
L 402.860625 38.854688 
L 412.860625 38.854688 
" style="fill: none; stroke: #ff7f0e; stroke-linecap: square"/>
    </g>
    <g id="text_18">
     <!-- lcl1.capacitor_v[1] -->
     <g transform="translate(420.860625 42.354688) scale(0.1 -0.1)">
      <use xlink:href="#DejaVuSans-6c"/>
      <use xlink:href="#DejaVuSans-63" transform="translate(27.783203 0)"/>
      <use xlink:href="#DejaVuSans-6c" transform="translate(82.763672 0)"/>
      <use xlink:href="#DejaVuSans-31" transform="translate(110.546875 0)"/>
      <use xlink:href="#DejaVuSans-2e" transform="translate(174.169922 0)"/>
      <use xlink:href="#DejaVuSans-63" transform="translate(205.957031 0)"/>
      <use xlink:href="#DejaVuSans-61" transform="translate(260.9375 0)"/>
      <use xlink:href="#DejaVuSans-70" transform="translate(322.216797 0)"/>
      <use xlink:href="#DejaVuSans-61" transform="translate(385.693359 0)"/>
      <use xlink:href="#DejaVuSans-63" transform="translate(446.972656 0)"/>
      <use xlink:href="#DejaVuSans-69" transform="translate(501.953125 0)"/>
      <use xlink:href="#DejaVuSans-74" transform="translate(529.736328 0)"/>
      <use xlink:href="#DejaVuSans-6f" transform="translate(568.945312 0)"/>
      <use xlink:href="#DejaVuSans-72" transform="translate(630.126953 0)"/>
      <use xlink:href="#DejaVuSans-5f" transform="translate(671.240234 0)"/>
      <use xlink:href="#DejaVuSans-76" transform="translate(721.240234 0)"/>
      <use xlink:href="#DejaVuSans-5b" transform="translate(780.419922 0)"/>
      <use xlink:href="#DejaVuSans-31" transform="translate(819.433594 0)"/>
      <use xlink:href="#DejaVuSans-5d" transform="translate(883.056641 0)"/>
     </g>
    </g>
    <g id="line2d_20">
     <path d="M 392.860625 53.810938 
L 402.860625 53.810938 
L 412.860625 53.810938 
" style="fill: none; stroke: #2ca02c; stroke-linecap: square"/>
    </g>
    <g id="text_19">
     <!-- lcl1.capacitor_v[2] -->
     <g transform="translate(420.860625 57.310938) scale(0.1 -0.1)">
      <use xlink:href="#DejaVuSans-6c"/>
      <use xlink:href="#DejaVuSans-63" transform="translate(27.783203 0)"/>
      <use xlink:href="#DejaVuSans-6c" transform="translate(82.763672 0)"/>
      <use xlink:href="#DejaVuSans-31" transform="translate(110.546875 0)"/>
      <use xlink:href="#DejaVuSans-2e" transform="translate(174.169922 0)"/>
      <use xlink:href="#DejaVuSans-63" transform="translate(205.957031 0)"/>
      <use xlink:href="#DejaVuSans-61" transform="translate(260.9375 0)"/>
      <use xlink:href="#DejaVuSans-70" transform="translate(322.216797 0)"/>
      <use xlink:href="#DejaVuSans-61" transform="translate(385.693359 0)"/>
      <use xlink:href="#DejaVuSans-63" transform="translate(446.972656 0)"/>
      <use xlink:href="#DejaVuSans-69" transform="translate(501.953125 0)"/>
      <use xlink:href="#DejaVuSans-74" transform="translate(529.736328 0)"/>
      <use xlink:href="#DejaVuSans-6f" transform="translate(568.945312 0)"/>
      <use xlink:href="#DejaVuSans-72" transform="translate(630.126953 0)"/>
      <use xlink:href="#DejaVuSans-5f" transform="translate(671.240234 0)"/>
      <use xlink:href="#DejaVuSans-76" transform="translate(721.240234 0)"/>
      <use xlink:href="#DejaVuSans-5b" transform="translate(780.419922 0)"/>
      <use xlink:href="#DejaVuSans-32" transform="translate(819.433594 0)"/>
      <use xlink:href="#DejaVuSans-5d" transform="translate(883.056641 0)"/>
     </g>
    </g>
    <g id="line2d_21">
     <path d="M 392.860625 68.767188 
L 402.860625 68.767188 
L 402.860625 68.767188 
L 412.860625 68.767188 
L 412.860625 68.767188 
" style="fill: none; stroke-dasharray: 4.44,1.92; stroke-dashoffset: 0; stroke: #000000; stroke-width: 1.2"/>
    </g>
    <g id="text_20">
     <!-- load resistance -->
     <g transform="translate(420.860625 72.267188) scale(0.1 -0.1)">
      <defs>
       <path id="DejaVuSans-64" d="M 2906 2969 
L 2906 4863 
L 3481 4863 
L 3481 0 
L 2906 0 
L 2906 525 
Q 2725 213 2448 61 
Q 2172 -91 1784 -91 
Q 1150 -91 751 415 
Q 353 922 353 1747 
Q 353 2572 751 3078 
Q 1150 3584 1784 3584 
Q 2172 3584 2448 3432 
Q 2725 3281 2906 2969 
z
M 947 1747 
Q 947 1113 1208 752 
Q 1469 391 1925 391 
Q 2381 391 2643 752 
Q 2906 1113 2906 1747 
Q 2906 2381 2643 2742 
Q 2381 3103 1925 3103 
Q 1469 3103 1208 2742 
Q 947 2381 947 1747 
z
" transform="scale(0.015625)"/>
       <path id="DejaVuSans-6e" d="M 3513 2113 
L 3513 0 
L 2938 0 
L 2938 2094 
Q 2938 2591 2744 2837 
Q 2550 3084 2163 3084 
Q 1697 3084 1428 2787 
Q 1159 2491 1159 1978 
L 1159 0 
L 581 0 
L 581 3500 
L 1159 3500 
L 1159 2956 
Q 1366 3272 1645 3428 
Q 1925 3584 2291 3584 
Q 2894 3584 3203 3211 
Q 3513 2838 3513 2113 
z
" transform="scale(0.015625)"/>
      </defs>
      <use xlink:href="#DejaVuSans-6c"/>
      <use xlink:href="#DejaVuSans-6f" transform="translate(27.783203 0)"/>
      <use xlink:href="#DejaVuSans-61" transform="translate(88.964844 0)"/>
      <use xlink:href="#DejaVuSans-64" transform="translate(150.244141 0)"/>
      <use xlink:href="#DejaVuSans-20" transform="translate(213.720703 0)"/>
      <use xlink:href="#DejaVuSans-72" transform="translate(245.507812 0)"/>
      <use xlink:href="#DejaVuSans-65" transform="translate(284.371094 0)"/>
      <use xlink:href="#DejaVuSans-73" transform="translate(345.894531 0)"/>
      <use xlink:href="#DejaVuSans-69" transform="translate(397.994141 0)"/>
      <use xlink:href="#DejaVuSans-73" transform="translate(425.777344 0)"/>
      <use xlink:href="#DejaVuSans-74" transform="translate(477.876953 0)"/>
      <use xlink:href="#DejaVuSans-61" transform="translate(517.085938 0)"/>
      <use xlink:href="#DejaVuSans-6e" transform="translate(578.365234 0)"/>
      <use xlink:href="#DejaVuSans-63" transform="translate(641.744141 0)"/>
      <use xlink:href="#DejaVuSans-65" transform="translate(696.724609 0)"/>
     </g>
    </g>
   </g>
  </g>
  <g id="axes_2">
   <g id="matplotlib.axis_3">
    <g id="ytick_10">
     <g id="line2d_22">
      <defs>
       <path id="mfe2efe0c5e" d="M 0 0 
L 3.5 0 
" style="stroke: #000000; stroke-width: 0.8"/>
      </defs>
      <g>
       <use xlink:href="#mfe2efe0c5e" x="522.07" y="290.329091" style="stroke: #000000; stroke-width: 0.8"/>
      </g>
     </g>
     <g id="text_21">
      <!-- 20.0 -->
      <g transform="translate(529.07 294.12831) scale(0.1 -0.1)">
       <use xlink:href="#DejaVuSans-32"/>
       <use xlink:href="#DejaVuSans-30" transform="translate(63.623047 0)"/>
       <use xlink:href="#DejaVuSans-2e" transform="translate(127.246094 0)"/>
       <use xlink:href="#DejaVuSans-30" transform="translate(159.033203 0)"/>
      </g>
     </g>
    </g>
    <g id="ytick_11">
     <g id="line2d_23">
      <g>
       <use xlink:href="#mfe2efe0c5e" x="522.07" y="257.051818" style="stroke: #000000; stroke-width: 0.8"/>
      </g>
     </g>
     <g id="text_22">
      <!-- 22.5 -->
      <g transform="translate(529.07 260.851037) scale(0.1 -0.1)">
       <defs>
        <path id="DejaVuSans-35" d="M 691 4666 
L 3169 4666 
L 3169 4134 
L 1269 4134 
L 1269 2991 
Q 1406 3038 1543 3061 
Q 1681 3084 1819 3084 
Q 2600 3084 3056 2656 
Q 3513 2228 3513 1497 
Q 3513 744 3044 326 
Q 2575 -91 1722 -91 
Q 1428 -91 1123 -41 
Q 819 9 494 109 
L 494 744 
Q 775 591 1075 516 
Q 1375 441 1709 441 
Q 2250 441 2565 725 
Q 2881 1009 2881 1497 
Q 2881 1984 2565 2268 
Q 2250 2553 1709 2553 
Q 1456 2553 1204 2497 
Q 953 2441 691 2322 
L 691 4666 
z
" transform="scale(0.015625)"/>
       </defs>
       <use xlink:href="#DejaVuSans-32"/>
       <use xlink:href="#DejaVuSans-32" transform="translate(63.623047 0)"/>
       <use xlink:href="#DejaVuSans-2e" transform="translate(127.246094 0)"/>
       <use xlink:href="#DejaVuSans-35" transform="translate(159.033203 0)"/>
      </g>
     </g>
    </g>
    <g id="ytick_12">
     <g id="line2d_24">
      <g>
       <use xlink:href="#mfe2efe0c5e" x="522.07" y="223.774545" style="stroke: #000000; stroke-width: 0.8"/>
      </g>
     </g>
     <g id="text_23">
      <!-- 25.0 -->
      <g transform="translate(529.07 227.573764) scale(0.1 -0.1)">
       <use xlink:href="#DejaVuSans-32"/>
       <use xlink:href="#DejaVuSans-35" transform="translate(63.623047 0)"/>
       <use xlink:href="#DejaVuSans-2e" transform="translate(127.246094 0)"/>
       <use xlink:href="#DejaVuSans-30" transform="translate(159.033203 0)"/>
      </g>
     </g>
    </g>
    <g id="ytick_13">
     <g id="line2d_25">
      <g>
       <use xlink:href="#mfe2efe0c5e" x="522.07" y="190.497273" style="stroke: #000000; stroke-width: 0.8"/>
      </g>
     </g>
     <g id="text_24">
      <!-- 27.5 -->
      <g transform="translate(529.07 194.296491) scale(0.1 -0.1)">
       <defs>
        <path id="DejaVuSans-37" d="M 525 4666 
L 3525 4666 
L 3525 4397 
L 1831 0 
L 1172 0 
L 2766 4134 
L 525 4134 
L 525 4666 
z
" transform="scale(0.015625)"/>
       </defs>
       <use xlink:href="#DejaVuSans-32"/>
       <use xlink:href="#DejaVuSans-37" transform="translate(63.623047 0)"/>
       <use xlink:href="#DejaVuSans-2e" transform="translate(127.246094 0)"/>
       <use xlink:href="#DejaVuSans-35" transform="translate(159.033203 0)"/>
      </g>
     </g>
    </g>
    <g id="ytick_14">
     <g id="line2d_26">
      <g>
       <use xlink:href="#mfe2efe0c5e" x="522.07" y="157.22" style="stroke: #000000; stroke-width: 0.8"/>
      </g>
     </g>
     <g id="text_25">
      <!-- 30.0 -->
      <g transform="translate(529.07 161.019219) scale(0.1 -0.1)">
       <use xlink:href="#DejaVuSans-33"/>
       <use xlink:href="#DejaVuSans-30" transform="translate(63.623047 0)"/>
       <use xlink:href="#DejaVuSans-2e" transform="translate(127.246094 0)"/>
       <use xlink:href="#DejaVuSans-30" transform="translate(159.033203 0)"/>
      </g>
     </g>
    </g>
    <g id="ytick_15">
     <g id="line2d_27">
      <g>
       <use xlink:href="#mfe2efe0c5e" x="522.07" y="123.942727" style="stroke: #000000; stroke-width: 0.8"/>
      </g>
     </g>
     <g id="text_26">
      <!-- 32.5 -->
      <g transform="translate(529.07 127.741946) scale(0.1 -0.1)">
       <use xlink:href="#DejaVuSans-33"/>
       <use xlink:href="#DejaVuSans-32" transform="translate(63.623047 0)"/>
       <use xlink:href="#DejaVuSans-2e" transform="translate(127.246094 0)"/>
       <use xlink:href="#DejaVuSans-35" transform="translate(159.033203 0)"/>
      </g>
     </g>
    </g>
    <g id="ytick_16">
     <g id="line2d_28">
      <g>
       <use xlink:href="#mfe2efe0c5e" x="522.07" y="90.665455" style="stroke: #000000; stroke-width: 0.8"/>
      </g>
     </g>
     <g id="text_27">
      <!-- 35.0 -->
      <g transform="translate(529.07 94.464673) scale(0.1 -0.1)">
       <use xlink:href="#DejaVuSans-33"/>
       <use xlink:href="#DejaVuSans-35" transform="translate(63.623047 0)"/>
       <use xlink:href="#DejaVuSans-2e" transform="translate(127.246094 0)"/>
       <use xlink:href="#DejaVuSans-30" transform="translate(159.033203 0)"/>
      </g>
     </g>
    </g>
    <g id="ytick_17">
     <g id="line2d_29">
      <g>
       <use xlink:href="#mfe2efe0c5e" x="522.07" y="57.388182" style="stroke: #000000; stroke-width: 0.8"/>
      </g>
     </g>
     <g id="text_28">
      <!-- 37.5 -->
      <g transform="translate(529.07 61.187401) scale(0.1 -0.1)">
       <use xlink:href="#DejaVuSans-33"/>
       <use xlink:href="#DejaVuSans-37" transform="translate(63.623047 0)"/>
       <use xlink:href="#DejaVuSans-2e" transform="translate(127.246094 0)"/>
       <use xlink:href="#DejaVuSans-35" transform="translate(159.033203 0)"/>
      </g>
     </g>
    </g>
    <g id="ytick_18">
     <g id="line2d_30">
      <g>
       <use xlink:href="#mfe2efe0c5e" x="522.07" y="24.110909" style="stroke: #000000; stroke-width: 0.8"/>
      </g>
     </g>
     <g id="text_29">
      <!-- 40.0 -->
      <g transform="translate(529.07 27.910128) scale(0.1 -0.1)">
       <use xlink:href="#DejaVuSans-34"/>
       <use xlink:href="#DejaVuSans-30" transform="translate(63.623047 0)"/>
       <use xlink:href="#DejaVuSans-2e" transform="translate(127.246094 0)"/>
       <use xlink:href="#DejaVuSans-30" transform="translate(159.033203 0)"/>
      </g>
     </g>
    </g>
    <g id="text_30">
     <!-- load resistance, ohm -->
     <g transform="translate(562.934063 209.409063) rotate(-90) scale(0.1 -0.1)">
      <defs>
       <path id="DejaVuSans-68" d="M 3513 2113 
L 3513 0 
L 2938 0 
L 2938 2094 
Q 2938 2591 2744 2837 
Q 2550 3084 2163 3084 
Q 1697 3084 1428 2787 
Q 1159 2491 1159 1978 
L 1159 0 
L 581 0 
L 581 4863 
L 1159 4863 
L 1159 2956 
Q 1366 3272 1645 3428 
Q 1925 3584 2291 3584 
Q 2894 3584 3203 3211 
Q 3513 2838 3513 2113 
z
" transform="scale(0.015625)"/>
      </defs>
      <use xlink:href="#DejaVuSans-6c"/>
      <use xlink:href="#DejaVuSans-6f" transform="translate(27.783203 0)"/>
      <use xlink:href="#DejaVuSans-61" transform="translate(88.964844 0)"/>
      <use xlink:href="#DejaVuSans-64" transform="translate(150.244141 0)"/>
      <use xlink:href="#DejaVuSans-20" transform="translate(213.720703 0)"/>
      <use xlink:href="#DejaVuSans-72" transform="translate(245.507812 0)"/>
      <use xlink:href="#DejaVuSans-65" transform="translate(284.371094 0)"/>
      <use xlink:href="#DejaVuSans-73" transform="translate(345.894531 0)"/>
      <use xlink:href="#DejaVuSans-69" transform="translate(397.994141 0)"/>
      <use xlink:href="#DejaVuSans-73" transform="translate(425.777344 0)"/>
      <use xlink:href="#DejaVuSans-74" transform="translate(477.876953 0)"/>
      <use xlink:href="#DejaVuSans-61" transform="translate(517.085938 0)"/>
      <use xlink:href="#DejaVuSans-6e" transform="translate(578.365234 0)"/>
      <use xlink:href="#DejaVuSans-63" transform="translate(641.744141 0)"/>
      <use xlink:href="#DejaVuSans-65" transform="translate(696.724609 0)"/>
      <use xlink:href="#DejaVuSans-2c" transform="translate(758.248047 0)"/>
      <use xlink:href="#DejaVuSans-20" transform="translate(790.035156 0)"/>
      <use xlink:href="#DejaVuSans-6f" transform="translate(821.822266 0)"/>
      <use xlink:href="#DejaVuSans-68" transform="translate(883.003906 0)"/>
      <use xlink:href="#DejaVuSans-6d" transform="translate(946.382812 0)"/>
     </g>
    </g>
   </g>
   <g id="line2d_31">
    <path d="M 59.24 290.329091 
L 213.43949 290.329091 
L 213.43949 24.110909 
L 367.87051 24.110909 
L 367.87051 290.329091 
L 522.07 290.329091 
L 522.07 290.329091 
" clip-path="url(#p71adc32484)" style="fill: none; stroke-dasharray: 4.44,1.92; stroke-dashoffset: 0; stroke: #000000; stroke-width: 1.2"/>
   </g>
   <g id="patch_8">
    <path d="M 59.24 303.64 
L 59.24 10.8 
" style="fill: none; stroke: #000000; stroke-width: 0.8; stroke-linejoin: miter; stroke-linecap: square"/>
   </g>
   <g id="patch_9">
    <path d="M 522.07 303.64 
L 522.07 10.8 
" style="fill: none; stroke: #000000; stroke-width: 0.8; stroke-linejoin: miter; stroke-linecap: square"/>
   </g>
   <g id="patch_10">
    <path d="M 59.24 303.64 
L 522.07 303.64 
" style="fill: none; stroke: #000000; stroke-width: 0.8; stroke-linejoin: miter; stroke-linecap: square"/>
   </g>
   <g id="patch_11">
    <path d="M 59.24 10.8 
L 522.07 10.8 
" style="fill: none; stroke: #000000; stroke-width: 0.8; stroke-linejoin: miter; stroke-linecap: square"/>
   </g>
  </g>
 </g>
 <defs>
  <clipPath id="p71adc32484">
   <rect x="59.24" y="10.8" width="462.83" height="292.84"/>
  </clipPath>
 </defs>
</svg>
